<svg width="80" height="16" viewBox="0 0 80 16" fill="none" xmlns="http://www.w3.org/2000/svg">
<path d="M0.666667 8C0.666667 10.9455 3.05448 13.3333 6 13.3333C8.94552 13.3333 11.3333 10.9455 11.3333 8C11.3333 5.05448 8.94552 2.66667 6 2.66667C3.05448 2.66667 0.666667 5.05448 0.666667 8ZM79.7071 8.70711C80.0976 8.31658 80.0976 7.68342 79.7071 7.29289L73.3431 0.928932C72.9526 0.538408 72.3195 0.538408 71.9289 0.928932C71.5384 1.31946 71.5384 1.95262 71.9289 2.34315L77.5858 8L71.9289 13.6569C71.5384 14.0474 71.5384 14.6805 71.9289 15.0711C72.3195 15.4616 72.9526 15.4616 73.3431 15.0711L79.7071 8.70711ZM6 9H79V7H6V9Z" fill="#F27922"/>
</svg>
