<svg width="146" height="131" viewBox="0 0 146 131" fill="none" xmlns="http://www.w3.org/2000/svg">
<path d="M3.33861 127.969C4.29743 97.6299 5.80522 74.4164 33.1199 57.308C46.1575 49.1419 61.0698 49.8564 72.8193 60.4331C94.2005 79.68 51.3553 97.0059 43.8603 75.3208C30.1203 35.567 80.4741 14.5352 111.776 16.53C120.898 17.1113 131.264 17.9425 140.184 19.5037C147.922 20.8578 139.305 16.7638 136.741 15.1594C131.99 12.1871 128.543 8.2301 123.9 5.32468C115.774 0.240613 122.994 5.87748 126.838 7.99865C137.867 14.0833 148.783 16.8272 134.643 26.2252C131.797 28.1164 118.029 38.9432 118.3 36.4611C119.069 29.4241 116.307 20.7657 117.403 14.2696C118.903 5.3772 116.997 -0.144083 120.16 12.9042C121.192 17.1617 121.575 21.2067 122.394 25.4096C123.743 32.3359 123.585 22.8975 123.169 22.0346C121.962 19.5283 122.499 13.5375 123.703 19.7143C124.012 21.3045 124.274 27.858 124.714 25.9427C126.104 19.8952 121.892 10.5498 125.53 13.6939C128.587 16.3361 128.577 18.8489 127.485 22.582C127.113 23.8528 122.316 27.6832 122.816 25.5065" stroke="#F27922" stroke-width="5" stroke-linecap="round"/>
</svg>
