<svg width="67" height="92" viewBox="0 0 67 92" fill="none" xmlns="http://www.w3.org/2000/svg">
<rect opacity="0.5" x="0.5" width="66" height="66" rx="9" fill="#FDF1E9"/>
<path d="M48.4351 18.2017H47.9605C48.8652 16.7289 48.5311 14.7515 47.0792 13.6743C45.5148 12.5137 43.2916 12.8872 42.1999 14.5188L39.7354 18.2018H18.5642C16.824 18.2018 15.4082 19.6176 15.4082 21.3578V41.535C15.4082 43.2752 16.824 44.691 18.5642 44.691H30.8228L29.8966 48.5813H27.8975C26.5946 48.5813 25.5346 49.6412 25.5346 50.9441V51.4374H23.0702C22.6388 51.4374 22.289 51.7873 22.289 52.2187C22.289 52.6501 22.6388 52.9999 23.0702 52.9999H43.9291C44.3606 52.9999 44.7104 52.6501 44.7104 52.2187C44.7104 51.7873 44.3606 51.4374 43.9291 51.4374H41.4647V50.9441C41.4647 49.6412 40.4047 48.5813 39.1019 48.5813H37.1028L36.1765 44.691H48.4352C50.1754 44.691 51.5912 43.2752 51.5912 41.535V21.3577C51.5912 19.6175 50.1754 18.2017 48.4351 18.2017ZM37.2414 31.9358C36.02 32.7908 33.7317 31.6286 31.5464 32.7947C31.0132 30.0248 31.3494 27.4198 34.1247 26.8448C34.4834 26.77 34.8695 26.7362 35.1983 26.7428L38.0245 28.8397C38.4345 30.0325 38.2806 31.2084 37.2414 31.9358ZM38.0288 23.5619L40.2402 25.2026L38.5395 27.2761L36.5374 25.7906L38.0288 23.5619ZM43.4985 15.3877C44.0902 14.5033 45.297 14.2975 46.1482 14.9292C46.9998 15.5609 47.1523 16.7754 46.4775 17.5981L41.2321 23.9932L38.8986 22.2618L43.4985 15.3877ZM39.9022 50.9441V51.4374H27.0971V50.9441C27.0971 50.5028 27.4562 50.1438 27.8975 50.1438H39.1018C39.5431 50.1438 39.9022 50.5028 39.9022 50.9441ZM35.4966 48.5813H31.5027L32.429 44.691H34.5703L35.4966 48.5813ZM50.0287 41.535C50.0287 42.4137 49.3139 43.1285 48.4352 43.1285H18.5642C17.6856 43.1285 16.9708 42.4137 16.9708 41.535V37.8765H19.2032C19.6347 37.8765 19.9844 37.5267 19.9844 37.0953C19.9844 36.6639 19.6347 36.3141 19.2032 36.3141H16.9706V21.3577C16.9706 20.479 17.6854 19.7642 18.5641 19.7642H38.6899L35.0663 25.1793C33.5353 25.1931 32.0069 25.7264 31.0063 26.8946C29.6446 28.484 29.4054 30.9814 30.2953 34.3175C30.4474 34.8879 31.1591 35.0923 31.5898 34.6809C33.6099 32.7507 36.1258 34.8561 38.3788 33.0326C39.7541 31.9193 40.0795 30.1495 39.5609 28.4945L46.7216 19.7642H48.4351C49.3137 19.7642 50.0285 20.479 50.0285 21.3577V36.314H25.4529C25.0215 36.314 24.6717 36.6638 24.6717 37.0952C24.6717 37.5266 25.0215 37.8764 25.4529 37.8764H50.0287V41.535Z" fill="#F27922"/>
<path d="M22.177 36.3291C21.9997 36.3644 21.8402 36.4601 21.7256 36.5999C21.6111 36.7397 21.5486 36.9149 21.5488 37.0956C21.5488 37.5843 21.9956 37.9585 22.4824 37.8612C22.6856 37.8207 22.8643 37.7011 22.9793 37.5288C23.0943 37.3566 23.1362 37.1456 23.0957 36.9425C23.0088 36.5151 22.5942 36.2451 22.177 36.3291Z" fill="#F27922"/>
<path d="M0.5 90H33.5" stroke="#F27922" stroke-width="3"/>
</svg>
