<svg width="29" height="32" viewBox="0 0 29 32" fill="none" xmlns="http://www.w3.org/2000/svg">
<g id="Group">
<path id="Vector" d="M26.4215 4.1614H26.0419C26.7656 2.98311 26.4984 1.4012 25.3368 0.539408C24.0853 -0.389074 22.3067 -0.0902051 21.4333 1.21502L19.4617 4.16146H2.52476C1.1326 4.16146 0 5.29406 0 6.68623V22.828C0 24.2202 1.1326 25.3528 2.52476 25.3528H12.3317L11.5907 28.465H9.99143C8.94914 28.465 8.10115 29.313 8.10115 30.3553V30.7499H6.12963C5.78445 30.7499 5.50464 31.0298 5.50464 31.3749C5.50464 31.72 5.78445 31.9999 6.12963 31.9999H22.8167C23.1619 31.9999 23.4417 31.72 23.4417 31.3749C23.4417 31.0298 23.1619 30.7499 22.8167 30.7499H20.8452V30.3553C20.8452 29.313 19.9972 28.465 18.9549 28.465H17.3557L16.6147 25.3528H26.4216C27.8138 25.3528 28.9464 24.2202 28.9464 22.828V6.68616C28.9464 5.294 27.8138 4.1614 26.4215 4.1614ZM17.4666 15.1486C16.4894 15.8327 14.6588 14.9029 12.9106 15.8357C12.484 13.6198 12.7529 11.5358 14.9732 11.0758C15.2601 11.016 15.5691 10.989 15.8321 10.9942L18.093 12.6717C18.4211 13.626 18.298 14.5667 17.4666 15.1486ZM18.0965 8.4495L19.8656 9.7621L18.5051 11.4209L16.9034 10.2325L18.0965 8.4495ZM22.4722 1.91019C22.9456 1.20264 23.911 1.03802 24.592 1.54333C25.2733 2.04869 25.3953 3.0203 24.8554 3.67847L20.6592 8.79456L18.7923 7.40946L22.4722 1.91019ZM19.5952 30.3553V30.7499H9.35113V30.3553C9.35113 30.0023 9.63837 29.715 9.99143 29.715H18.9549C19.3079 29.715 19.5952 30.0023 19.5952 30.3553ZM16.0707 28.465H12.8756L13.6166 25.3528H15.3297L16.0707 28.465ZM27.6964 22.828C27.6964 23.531 27.1245 24.1028 26.4216 24.1028H2.52483C1.8219 24.1028 1.25004 23.531 1.25004 22.828V19.9012H3.036C3.38118 19.9012 3.66099 19.6213 3.66099 19.2762C3.66099 18.9311 3.38118 18.6512 3.036 18.6512H1.24991V6.68616C1.24991 5.98324 1.82178 5.41138 2.5247 5.41138H18.6253L15.7265 9.74341C14.5017 9.75448 13.2789 10.1812 12.4784 11.1156C11.3892 12.3872 11.1978 14.3851 11.9096 17.054C12.0313 17.5103 12.6008 17.6738 12.9453 17.3447C14.5613 15.8005 16.5741 17.4849 18.3765 16.026C19.4767 15.1354 19.7371 13.7196 19.3222 12.3956L25.0507 5.41138H26.4215C27.1244 5.41138 27.6963 5.98324 27.6963 6.68616V18.6512H8.03578C7.6906 18.6512 7.41079 18.931 7.41079 19.2762C7.41079 19.6213 7.6906 19.9012 8.03578 19.9012H27.6964V22.828Z" fill="#828282"/>
<path id="Vector_2" d="M5.4151 18.6633C5.27329 18.6915 5.14567 18.7681 5.05403 18.8799C4.96238 18.9917 4.9124 19.1319 4.9126 19.2765C4.9126 19.6674 5.27004 19.9668 5.65947 19.889C5.82198 19.8566 5.96496 19.7609 6.05697 19.6231C6.14897 19.4852 6.18247 19.3165 6.1501 19.154C6.08054 18.8121 5.74891 18.5961 5.4151 18.6633Z" fill="#828282"/>
</g>
</svg>
