<svg width="68" height="92" viewBox="0 0 68 92" fill="none" xmlns="http://www.w3.org/2000/svg">
<rect opacity="0.5" x="1.5" width="66" height="66" rx="9" fill="#FCE4D3"/>
<path fill-rule="evenodd" clip-rule="evenodd" d="M33.6668 17.1884C25.5918 17.6075 19.1085 24.09 18.6885 32.1667H16.1668C15.9458 32.1667 15.7339 32.2545 15.5776 32.4108C15.4213 32.5671 15.3335 32.779 15.3335 33C15.3335 33.2211 15.4213 33.433 15.5776 33.5893C15.7339 33.7456 15.9458 33.8334 16.1668 33.8334H18.6885C19.1077 41.9084 25.5902 48.3917 33.6668 48.8117V51.3334C33.6668 51.5544 33.7546 51.7663 33.9109 51.9226C34.0672 52.0789 34.2791 52.1667 34.5002 52.1667C34.7212 52.1667 34.9331 52.0789 35.0894 51.9226C35.2457 51.7663 35.3335 51.5544 35.3335 51.3334V48.8117C43.4085 48.3925 49.8918 41.91 50.3118 33.8334H52.8335C53.0545 33.8334 53.2665 33.7456 53.4228 33.5893C53.579 33.433 53.6668 33.2211 53.6668 33C53.6668 32.779 53.579 32.5671 53.4228 32.4108C53.2665 32.2545 53.0545 32.1667 52.8335 32.1667H50.3118C49.8927 24.0917 43.4102 17.6084 35.3335 17.1884V14.6667C35.3335 14.4457 35.2457 14.2337 35.0894 14.0775C34.9331 13.9212 34.7212 13.8334 34.5002 13.8334C34.2791 13.8334 34.0672 13.9212 33.9109 14.0775C33.7546 14.2337 33.6668 14.4457 33.6668 14.6667V17.1884ZM35.3335 18.8575V21.3334C35.3335 21.5544 35.2457 21.7663 35.0894 21.9226C34.9331 22.0789 34.7212 22.1667 34.5002 22.1667C34.2791 22.1667 34.0672 22.0789 33.9109 21.9226C33.7546 21.7663 33.6668 21.5544 33.6668 21.3334V18.8575C26.511 19.2734 20.7735 25.0109 20.3577 32.1667H22.8335C23.0545 32.1667 23.2665 32.2545 23.4228 32.4108C23.579 32.5671 23.6668 32.779 23.6668 33C23.6668 33.2211 23.579 33.433 23.4228 33.5893C23.2665 33.7456 23.0545 33.8334 22.8335 33.8334H20.3577C20.7735 40.9892 26.511 46.7267 33.6668 47.1425V44.6667C33.6668 44.4457 33.7546 44.2337 33.9109 44.0774C34.0672 43.9212 34.2791 43.8334 34.5002 43.8334C34.7212 43.8334 34.9331 43.9212 35.0894 44.0774C35.2457 44.2337 35.3335 44.4457 35.3335 44.6667V47.1425C42.4893 46.7267 48.2268 40.9892 48.6427 33.8334H46.1668C45.9458 33.8334 45.7339 33.7456 45.5776 33.5893C45.4213 33.433 45.3335 33.2211 45.3335 33C45.3335 32.779 45.4213 32.5671 45.5776 32.4108C45.7339 32.2545 45.9458 32.1667 46.1668 32.1667H48.6427C48.2268 25.0109 42.4893 19.2734 35.3335 18.8575Z" fill="#F27922"/>
<path fill-rule="evenodd" clip-rule="evenodd" d="M34.5002 23.8334C29.441 23.8334 25.3335 27.9409 25.3335 33C25.3335 38.0592 29.441 42.1667 34.5002 42.1667C39.5593 42.1667 43.6668 38.0592 43.6668 33C43.6668 27.9409 39.5593 23.8334 34.5002 23.8334ZM34.5002 25.5C38.6393 25.5 42.0002 28.8609 42.0002 33C42.0002 37.1392 38.6393 40.5 34.5002 40.5C30.361 40.5 27.0002 37.1392 27.0002 33C27.0002 28.8609 30.361 25.5 34.5002 25.5Z" fill="#F27922"/>
<path fill-rule="evenodd" clip-rule="evenodd" d="M34.5002 28.8334C32.2002 28.8334 30.3335 30.7 30.3335 33C30.3335 35.3 32.2002 37.1667 34.5002 37.1667C36.8002 37.1667 38.6668 35.3 38.6668 33C38.6668 30.7 36.8002 28.8334 34.5002 28.8334ZM34.5002 30.5C35.152 30.5169 35.7715 30.7877 36.2266 31.2547C36.6817 31.7217 36.9364 32.348 36.9364 33C36.9364 33.6521 36.6817 34.2784 36.2266 34.7454C35.7715 35.2124 35.152 35.4832 34.5002 35.5C33.8483 35.4832 33.2288 35.2124 32.7737 34.7454C32.3186 34.2784 32.0639 33.6521 32.0639 33C32.0639 32.348 32.3186 31.7217 32.7737 31.2547C33.2288 30.7877 33.8483 30.5169 34.5002 30.5Z" fill="#F27922"/>
<path d="M1.5 90H34.5" stroke="#F27922" stroke-width="3" stroke-linecap="round"/>
</svg>
