<svg width="31" height="31" viewBox="0 0 31 31" fill="none" xmlns="http://www.w3.org/2000/svg">
<g id="Group">
<path id="Vector" fill-rule="evenodd" clip-rule="evenodd" d="M14.6667 2.684C8.20667 3.01933 3.02 8.20533 2.684 14.6667H0.666667C0.489856 14.6667 0.320286 14.7369 0.195262 14.8619C0.0702379 14.987 0 15.1565 0 15.3333C0 15.5101 0.0702379 15.6797 0.195262 15.8047C0.320286 15.9298 0.489856 16 0.666667 16H2.684C3.01933 22.46 8.20533 27.6467 14.6667 27.9827V30C14.6667 30.1768 14.7369 30.3464 14.8619 30.4714C14.987 30.5964 15.1565 30.6667 15.3333 30.6667C15.5101 30.6667 15.6797 30.5964 15.8047 30.4714C15.9298 30.3464 16 30.1768 16 30V27.9827C22.46 27.6473 27.6467 22.4613 27.9827 16H30C30.1768 16 30.3464 15.9298 30.4714 15.8047C30.5964 15.6797 30.6667 15.5101 30.6667 15.3333C30.6667 15.1565 30.5964 14.987 30.4714 14.8619C30.3464 14.7369 30.1768 14.6667 30 14.6667H27.9827C27.6473 8.20667 22.4613 3.02 16 2.684V0.666667C16 0.489856 15.9298 0.320286 15.8047 0.195262C15.6797 0.0702379 15.5101 0 15.3333 0C15.1565 0 14.987 0.0702379 14.8619 0.195262C14.7369 0.320286 14.6667 0.489856 14.6667 0.666667V2.684ZM16 4.01933V6C16 6.17681 15.9298 6.34638 15.8047 6.4714C15.6797 6.59643 15.5101 6.66667 15.3333 6.66667C15.1565 6.66667 14.987 6.59643 14.8619 6.4714C14.7369 6.34638 14.6667 6.17681 14.6667 6V4.01933C8.942 4.352 4.352 8.942 4.01933 14.6667H6C6.17681 14.6667 6.34638 14.7369 6.4714 14.8619C6.59643 14.987 6.66667 15.1565 6.66667 15.3333C6.66667 15.5101 6.59643 15.6797 6.4714 15.8047C6.34638 15.9298 6.17681 16 6 16H4.01933C4.352 21.7247 8.942 26.3147 14.6667 26.6473V24.6667C14.6667 24.4899 14.7369 24.3203 14.8619 24.1953C14.987 24.0702 15.1565 24 15.3333 24C15.5101 24 15.6797 24.0702 15.8047 24.1953C15.9298 24.3203 16 24.4899 16 24.6667V26.6473C21.7247 26.3147 26.3147 21.7247 26.6473 16H24.6667C24.4899 16 24.3203 15.9298 24.1953 15.8047C24.0702 15.6797 24 15.5101 24 15.3333C24 15.1565 24.0702 14.987 24.1953 14.8619C24.3203 14.7369 24.4899 14.6667 24.6667 14.6667H26.6473C26.3147 8.942 21.7247 4.352 16 4.01933Z" fill="#828282"/>
<path id="Vector_2" fill-rule="evenodd" clip-rule="evenodd" d="M15.3333 8C11.286 8 8 11.286 8 15.3333C8 19.3807 11.286 22.6667 15.3333 22.6667C19.3807 22.6667 22.6667 19.3807 22.6667 15.3333C22.6667 11.286 19.3807 8 15.3333 8ZM15.3333 9.33333C18.6447 9.33333 21.3333 12.022 21.3333 15.3333C21.3333 18.6447 18.6447 21.3333 15.3333 21.3333C12.022 21.3333 9.33333 18.6447 9.33333 15.3333C9.33333 12.022 12.022 9.33333 15.3333 9.33333Z" fill="#828282"/>
<path id="Vector_3" fill-rule="evenodd" clip-rule="evenodd" d="M15.3333 12C13.4933 12 12 13.4933 12 15.3333C12 17.1733 13.4933 18.6667 15.3333 18.6667C17.1733 18.6667 18.6667 17.1733 18.6667 15.3333C18.6667 13.4933 17.1733 12 15.3333 12ZM15.3333 13.3333C15.8548 13.3468 16.3504 13.5634 16.7145 13.937C17.0786 14.3106 17.2824 14.8117 17.2824 15.3333C17.2824 15.855 17.0786 16.356 16.7145 16.7296C16.3504 17.1032 15.8548 17.3199 15.3333 17.3333C14.8118 17.3199 14.3162 17.1032 13.9521 16.7296C13.5881 16.356 13.3843 15.855 13.3843 15.3333C13.3843 14.8117 13.5881 14.3106 13.9521 13.937C14.3162 13.5634 14.8118 13.3468 15.3333 13.3333Z" fill="#828282"/>
</g>
</svg>
