<svg width="34" height="33" viewBox="0 0 28 28" fill="none" xmlns="http://www.w3.org/2000/svg">
<g id="Frame" clip-path="url(#clip0_879_1977)">
<g id="Group">
<path id="Vector" d="M14.0004 15.8112C13.078 15.8112 12.1763 15.5377 11.4093 15.0253C10.6424 14.5128 10.0446 13.7844 9.69161 12.9322C9.33862 12.08 9.24627 11.1423 9.42622 10.2376C9.60617 9.33296 10.0504 8.50196 10.7026 7.84972C11.3548 7.19749 12.1858 6.75331 13.0905 6.57336C13.9952 6.3934 14.9329 6.48576 15.7851 6.83875C16.6373 7.19174 17.3657 7.7895 17.8781 8.55645C18.3906 9.3234 18.6641 10.2251 18.6641 11.1475C18.6618 12.3837 18.1697 13.5686 17.2956 14.4427C16.4214 15.3168 15.2365 15.8089 14.0004 15.8112ZM14.0004 8.34749C13.4466 8.34749 12.9052 8.51171 12.4448 8.81938C11.9843 9.12705 11.6254 9.56435 11.4135 10.076C11.2016 10.5876 11.1461 11.1506 11.2542 11.6937C11.3622 12.2369 11.6289 12.7358 12.0205 13.1274C12.412 13.519 12.911 13.7857 13.4541 13.8937C13.9973 14.0017 14.5602 13.9463 15.0719 13.7344C15.5835 13.5224 16.0208 13.1635 16.3285 12.7031C16.6361 12.2426 16.8004 11.7013 16.8004 11.1475C16.8004 10.4049 16.5054 9.6927 15.9803 9.1676C15.4552 8.64249 14.743 8.34749 14.0004 8.34749ZM23.3366 16.7475C22.5976 16.7475 21.8753 16.5284 21.2609 16.1178C20.6464 15.7073 20.1675 15.1238 19.8848 14.441C19.602 13.7583 19.528 13.0071 19.6721 12.2823C19.8163 11.5576 20.1722 10.8918 20.6947 10.3693C21.2172 9.84679 21.8829 9.49095 22.6077 9.34679C23.3325 9.20262 24.0837 9.27661 24.7664 9.5594C25.4491 9.84219 26.0326 10.3211 26.4432 10.9355C26.8537 11.5499 27.0729 12.2723 27.0729 13.0112C27.0729 14.0022 26.6792 14.9525 25.9785 15.6532C25.2779 16.3539 24.3275 16.7475 23.3366 16.7475ZM23.3366 11.1475C22.968 11.1475 22.6077 11.2568 22.3012 11.4616C21.9947 11.6664 21.7558 11.9575 21.6147 12.298C21.4737 12.6386 21.4368 13.0133 21.5087 13.3748C21.5806 13.7364 21.7581 14.0685 22.0187 14.3291C22.2794 14.5898 22.6115 14.7673 22.973 14.8392C23.3345 14.9111 23.7093 14.8742 24.0498 14.7331C24.3904 14.5921 24.6815 14.3532 24.8863 14.0467C25.091 13.7402 25.2004 13.3799 25.2004 13.0112C25.1981 12.5177 25.001 12.0449 24.6519 11.6959C24.3029 11.3469 23.8302 11.1498 23.3366 11.1475ZM4.66411 16.7475C3.92515 16.7475 3.20278 16.5284 2.58836 16.1178C1.97393 15.7073 1.49505 15.1238 1.21226 14.441C0.929473 13.7583 0.855483 13.0071 0.999647 12.2823C1.14381 11.5576 1.49965 10.8918 2.02218 10.3693C2.5447 9.84679 3.21044 9.49095 3.9352 9.34679C4.65996 9.20262 5.4112 9.27661 6.09391 9.5594C6.77662 9.84219 7.36014 10.3211 7.77068 10.9355C8.18123 11.5499 8.40036 12.2723 8.40036 13.0112C8.40036 14.0022 8.00672 14.9525 7.30603 15.6532C6.60535 16.3539 5.65502 16.7475 4.66411 16.7475ZM4.66411 11.1475C4.29549 11.1475 3.93515 11.2568 3.62866 11.4616C3.32217 11.6664 3.08329 11.9575 2.94223 12.298C2.80116 12.6386 2.76425 13.0133 2.83617 13.3748C2.90808 13.7364 3.08559 14.0685 3.34624 14.3291C3.60689 14.5898 3.93897 14.7673 4.30051 14.8392C4.66204 14.9111 5.03678 14.8742 5.37733 14.7331C5.71789 14.5921 6.00897 14.3532 6.21376 14.0467C6.41855 13.7402 6.52786 13.3799 6.52786 13.0112C6.52556 12.5177 6.32846 12.0449 5.97943 11.6959C5.63041 11.3469 5.15769 11.1498 4.66411 11.1475ZM19.6004 23.1087C19.3638 23.107 19.1367 23.0159 18.9646 22.8535C18.7926 22.6912 18.6883 22.4698 18.6729 22.2337C18.5945 21.4323 18.2203 20.6889 17.6233 20.1485C17.0263 19.6081 16.2493 19.3096 15.4441 19.3112H12.5566C11.7514 19.3096 10.9744 19.6081 10.3774 20.1485C9.7804 20.6889 9.4062 21.4323 9.32786 22.2337C9.28304 22.4623 9.1546 22.666 8.96764 22.805C8.78068 22.944 8.54863 23.0083 8.31681 22.9853C8.08499 22.9623 7.87006 22.8538 7.714 22.6808C7.55794 22.5079 7.47196 22.2829 7.47286 22.05C7.60709 20.797 8.20115 19.6382 9.14016 18.7978C10.0792 17.9574 11.2964 17.495 12.5566 17.5H15.4441C16.7125 17.4963 17.9365 17.966 18.8768 18.8173C19.8171 19.6685 20.4058 20.84 20.5279 22.1025C20.5398 22.2276 20.5265 22.3538 20.4887 22.4737C20.4508 22.5935 20.3892 22.7045 20.3076 22.8C20.2259 22.8956 20.1259 22.9737 20.0134 23.0297C19.9009 23.0858 19.7783 23.1186 19.6529 23.1262L19.6004 23.1087ZM27.0641 22.4787C26.8276 22.477 26.6004 22.3859 26.4284 22.2235C26.2563 22.0612 26.1521 21.8398 26.1366 21.6037C26.0928 21.1458 25.8789 20.721 25.537 20.4132C25.1952 20.1054 24.7503 19.937 24.2904 19.9412H22.3654C22.1817 19.9421 21.9991 19.9686 21.8229 20.02C21.7008 20.0883 21.565 20.1285 21.4254 20.1375C21.2859 20.1464 21.146 20.124 21.0163 20.0719C20.8865 20.0197 20.77 19.9391 20.6755 19.8361C20.5809 19.733 20.5106 19.6101 20.4698 19.4763C20.429 19.3425 20.4187 19.2013 20.4397 19.063C20.4606 18.9247 20.5123 18.7928 20.5909 18.6771C20.6694 18.5614 20.773 18.4648 20.8938 18.3943C21.0146 18.3239 21.1497 18.2814 21.2891 18.27C21.6385 18.1666 22.0009 18.1136 22.3654 18.1125H24.2904C25.2144 18.106 26.1074 18.4453 26.794 19.0638C27.4805 19.6823 27.9108 20.5353 28.0004 21.455C28.0123 21.5801 27.999 21.7063 27.9612 21.8262C27.9233 21.946 27.8617 22.057 27.7801 22.1525C27.6984 22.2481 27.5984 22.3262 27.4859 22.3822C27.3734 22.4383 27.2508 22.4711 27.1254 22.4787H27.0641ZM0.936606 22.4787H0.875356C0.749917 22.4711 0.627301 22.4383 0.514817 22.3822C0.402333 22.3262 0.302284 22.2481 0.220632 22.1525C0.13898 22.057 0.0773964 21.946 0.0395523 21.8262C0.00170827 21.7063 -0.011622 21.5801 0.000356156 21.455C0.0897644 20.5368 0.518848 19.6851 1.20352 19.0668C1.88819 18.4485 2.77908 18.1082 3.70161 18.1125H5.62661C5.99102 18.1136 6.35342 18.1666 6.70286 18.27C6.84226 18.2814 6.97735 18.3239 7.09818 18.3943C7.21901 18.4648 7.32253 18.5614 7.40111 18.6771C7.4797 18.7928 7.53136 18.9247 7.5523 19.063C7.57324 19.2013 7.56293 19.3425 7.52213 19.4763C7.48132 19.6101 7.41106 19.733 7.3165 19.8361C7.22194 19.9391 7.10549 20.0197 6.97571 20.0719C6.84593 20.124 6.70611 20.1464 6.56652 20.1375C6.42694 20.1285 6.29114 20.0883 6.16911 20.02C5.99283 19.9686 5.81023 19.9421 5.62661 19.9412H3.70161C3.24162 19.937 2.79677 20.1054 2.45493 20.4132C2.1131 20.721 1.89915 21.1458 1.85536 21.6037C1.84001 21.8383 1.737 22.0585 1.56679 22.2206C1.39658 22.3827 1.17163 22.4749 0.936606 22.4787Z" fill="#F27922"/>
</g>
</g>
<defs>
<clipPath id="clip0_879_1977">
<rect width="34" height="33" fill="white"/>
</clipPath>
</defs>
</svg>
