<svg width="391" height="387" viewBox="0 0 391 387" fill="none" xmlns="http://www.w3.org/2000/svg">
<g filter="url(#filter0_d_2120_1129)">
<rect x="81.5" y="80" width="228" height="228" rx="114" fill="white"/>
</g>
<path d="M195.51 274.938C195.51 275.362 195.854 275.707 196.279 275.703C196.296 275.703 196.314 275.703 196.331 275.702C196.756 275.698 197.093 275.346 197.084 274.921C197.076 274.497 196.724 274.16 196.3 274.165C196.293 274.165 196.286 274.165 196.279 274.165C195.854 274.169 195.51 274.513 195.51 274.938Z" fill="#E9EDF0"/>
<path d="M195.752 293.028C195.752 293.379 196.037 293.664 196.387 293.661C196.738 293.659 197.019 293.371 197.014 293.02L196.851 280.18C196.848 279.878 196.6 279.637 196.299 279.639C195.997 279.641 195.752 279.885 195.752 280.187L195.752 293.028Z" fill="#E9EDF0"/>
<path d="M202.672 274.648C202.709 275.071 203.083 275.385 203.506 275.344C203.523 275.342 203.54 275.341 203.557 275.339C203.98 275.298 204.285 274.918 204.239 274.496C204.193 274.074 203.813 273.769 203.391 273.81C203.384 273.81 203.377 273.811 203.37 273.812C202.947 273.853 202.635 274.225 202.672 274.648Z" fill="#E9EDF0"/>
<path d="M204.505 292.649C204.536 292.999 204.844 293.257 205.194 293.225C205.543 293.193 205.797 292.881 205.762 292.532L204.47 279.755C204.44 279.454 204.172 279.236 203.872 279.264C203.572 279.291 203.349 279.556 203.376 279.856L204.505 292.649Z" fill="#E9EDF0"/>
<path d="M209.782 273.742C209.856 274.161 210.256 274.441 210.674 274.363C210.691 274.36 210.707 274.357 210.724 274.354C211.142 274.277 211.413 273.872 211.33 273.455C211.247 273.039 210.842 272.768 210.424 272.845C210.417 272.846 210.411 272.847 210.404 272.849C209.987 272.926 209.708 273.324 209.782 273.742Z" fill="#E9EDF0"/>
<path d="M213.191 291.517C213.252 291.862 213.582 292.093 213.927 292.031C214.272 291.968 214.498 291.636 214.432 291.292L212.022 278.674C211.965 278.377 211.679 278.183 211.383 278.236C211.086 278.29 210.888 278.573 210.941 278.87L213.191 291.517Z" fill="#E9EDF0"/>
<path d="M216.786 272.224C216.897 272.634 217.32 272.879 217.73 272.765C217.746 272.761 217.762 272.757 217.778 272.752C218.188 272.639 218.422 272.212 218.303 271.804C218.183 271.396 217.756 271.161 217.346 271.275C217.34 271.276 217.334 271.278 217.328 271.28C216.918 271.393 216.675 271.813 216.786 272.224Z" fill="#E9EDF0"/>
<path d="M221.745 289.638C221.836 289.976 222.185 290.177 222.523 290.085C222.861 289.993 223.057 289.643 222.962 289.306L219.45 276.943C219.368 276.653 219.066 276.484 218.775 276.563C218.484 276.643 218.312 276.941 218.391 277.232L221.745 289.638Z" fill="#E9EDF0"/>
<path d="M223.63 270.109C223.776 270.508 224.22 270.715 224.618 270.567C224.633 270.561 224.649 270.555 224.664 270.55C225.062 270.401 225.258 269.956 225.104 269.56C224.949 269.164 224.502 268.967 224.104 269.115C224.098 269.117 224.093 269.119 224.087 269.121C223.689 269.27 223.483 269.71 223.63 270.109Z" fill="#E9EDF0"/>
<path d="M230.102 287.027C230.223 287.356 230.588 287.526 230.916 287.405C231.245 287.285 231.41 286.919 231.285 286.592L226.699 274.579C226.592 274.297 226.276 274.155 225.994 274.259C225.711 274.363 225.565 274.675 225.669 274.958L230.102 287.027Z" fill="#E9EDF0"/>
<path d="M230.26 267.408C230.441 267.793 230.901 267.961 231.286 267.778C231.3 267.772 231.314 267.765 231.328 267.758C231.713 267.576 231.869 267.115 231.68 266.734C231.491 266.353 231.028 266.195 230.644 266.378C230.639 266.38 230.635 266.382 230.63 266.384C230.245 266.567 230.079 267.023 230.26 267.408Z" fill="#E9EDF0"/>
<path d="M238.195 283.704C238.344 284.021 238.723 284.159 239.04 284.01C239.357 283.861 239.489 283.483 239.336 283.168L233.711 271.595C233.579 271.325 233.252 271.21 232.98 271.338C232.707 271.466 232.589 271.79 232.717 272.062L238.195 283.704Z" fill="#E9EDF0"/>
<path d="M236.63 264.146C236.845 264.514 237.318 264.641 237.685 264.426C237.698 264.419 237.711 264.411 237.724 264.403C238.092 264.188 238.208 263.716 237.986 263.352C237.764 262.989 237.283 262.876 236.915 263.091C236.548 263.306 236.416 263.779 236.63 264.146Z" fill="#E9EDF0"/>
<path d="M245.968 279.696C246.144 279.998 246.533 280.103 246.836 279.927C247.138 279.751 247.237 279.364 247.057 279.064L240.435 268.02C240.28 267.762 239.944 267.676 239.684 267.827C239.424 267.978 239.335 268.31 239.486 268.57L245.968 279.696Z" fill="#E9EDF0"/>
<path d="M242.688 260.348C242.934 260.695 243.417 260.781 243.765 260.535C243.776 260.526 243.788 260.518 243.8 260.51C244.147 260.263 244.221 259.782 243.968 259.439C243.715 259.097 243.226 259.025 242.879 259.271C242.532 259.518 242.442 260 242.688 260.348Z" fill="#E9EDF0"/>
<path d="M253.358 275.032C253.56 275.317 253.956 275.387 254.242 275.186C254.528 274.985 254.593 274.591 254.387 274.308L246.818 263.876C246.641 263.633 246.3 263.577 246.054 263.75C245.808 263.923 245.748 264.261 245.922 264.507L253.358 275.032Z" fill="#E9EDF0"/>
<path d="M248.387 256.039C248.663 256.364 249.152 256.408 249.477 256.132C249.487 256.123 249.498 256.114 249.508 256.105C249.833 255.829 249.865 255.344 249.583 255.024C249.301 254.704 248.808 254.675 248.483 254.95C248.158 255.226 248.112 255.714 248.387 256.039Z" fill="#E9EDF0"/>
<path d="M260.309 269.747C260.535 270.013 260.936 270.048 261.203 269.823C261.47 269.598 261.5 269.2 261.271 268.937L252.812 259.197C252.615 258.97 252.27 258.945 252.04 259.138C251.81 259.332 251.78 259.673 251.974 259.903L260.309 269.747Z" fill="#E9EDF0"/>
<path d="M253.687 251.255C253.99 251.555 254.482 251.556 254.782 251.252C254.791 251.243 254.8 251.234 254.809 251.225C255.108 250.922 255.098 250.435 254.789 250.141C254.48 249.846 253.986 249.859 253.686 250.162C253.387 250.466 253.384 250.955 253.687 251.255Z" fill="#E9EDF0"/>
<path d="M266.77 263.881C267.018 264.127 267.42 264.127 267.667 263.88C267.913 263.632 267.908 263.234 267.657 262.991L258.372 254.018C258.156 253.809 257.811 253.814 257.599 254.026C257.387 254.239 257.387 254.582 257.6 254.793L266.77 263.881Z" fill="#E9EDF0"/>
<path d="M258.545 246.031C258.873 246.304 259.363 246.261 259.636 245.933C259.644 245.924 259.651 245.914 259.659 245.905C259.931 245.576 259.878 245.092 259.545 244.825C259.211 244.559 258.721 244.614 258.448 244.942C258.176 245.271 258.217 245.758 258.545 246.031Z" fill="#E9EDF0"/>
<path d="M272.69 257.48C272.958 257.703 273.358 257.668 273.582 257.4C273.806 257.133 273.766 256.736 273.495 256.517L263.455 248.379C263.222 248.19 262.878 248.224 262.686 248.454C262.494 248.684 262.523 249.026 262.754 249.217L272.69 257.48Z" fill="#E9EDF0"/>
<path d="M124.464 234.009C124.093 234.222 123.966 234.693 124.185 235.061C124.191 235.07 124.196 235.079 124.201 235.088C124.421 235.455 124.899 235.572 125.265 235.353C125.632 235.133 125.748 234.659 125.529 234.292C125.31 233.924 124.835 233.797 124.464 234.009Z" fill="#E9EDF0"/>
<path d="M108.771 243.267C108.468 243.44 108.365 243.825 108.542 244.125C108.72 244.425 109.108 244.523 109.409 244.347L120.562 237.779C120.82 237.626 120.904 237.295 120.752 237.037C120.599 236.779 120.266 236.69 120.006 236.839L108.771 243.267Z" fill="#E9EDF0"/>
<path d="M128.299 240.013C127.948 240.256 127.863 240.737 128.113 241.084C128.12 241.093 128.126 241.101 128.132 241.11C128.382 241.457 128.869 241.532 129.215 241.282C129.561 241.031 129.635 240.549 129.385 240.202C129.134 239.855 128.65 239.769 128.299 240.013Z" fill="#E9EDF0"/>
<path d="M113.478 250.591C113.192 250.789 113.123 251.181 113.326 251.465C113.529 251.748 113.925 251.813 114.208 251.611L124.742 244.105C124.985 243.931 125.04 243.593 124.865 243.35C124.691 243.106 124.351 243.046 124.105 243.216L113.478 250.591Z" fill="#E9EDF0"/>
<path d="M132.647 245.662C132.318 245.935 132.276 246.421 132.556 246.745C132.563 246.753 132.57 246.761 132.577 246.769C132.857 247.093 133.348 247.126 133.671 246.847C133.994 246.567 134.025 246.08 133.745 245.756C133.465 245.433 132.975 245.389 132.647 245.662Z" fill="#E9EDF0"/>
<path d="M118.812 257.48C118.545 257.702 118.511 258.098 118.738 258.363C118.965 258.628 119.365 258.658 119.63 258.433L129.462 250.045C129.69 249.851 129.715 249.51 129.52 249.282C129.324 249.054 128.981 249.024 128.751 249.215L118.812 257.48Z" fill="#E9EDF0"/>
<path d="M137.474 250.914C137.171 251.215 137.172 251.703 137.479 252.001C137.487 252.009 137.495 252.016 137.503 252.024C137.81 252.322 138.302 252.313 138.599 252.007C138.896 251.7 138.884 251.212 138.577 250.914C138.27 250.616 137.778 250.614 137.474 250.914Z" fill="#E9EDF0"/>
<path d="M124.732 263.882C124.485 264.127 124.486 264.525 124.735 264.769C124.985 265.013 125.386 265.009 125.63 264.761L134.688 255.556C134.897 255.343 134.892 255.001 134.678 254.791C134.463 254.581 134.118 254.581 133.906 254.791L124.732 263.882Z" fill="#E9EDF0"/>
<path d="M142.746 255.73C142.471 256.056 142.514 256.542 142.847 256.813C142.855 256.82 142.864 256.827 142.872 256.833C143.204 257.104 143.694 257.052 143.963 256.721C144.231 256.39 144.177 255.905 143.845 255.635C143.512 255.364 143.022 255.405 142.746 255.73Z" fill="#E9EDF0"/>
<path d="M131.193 269.748C130.969 270.014 131.004 270.41 131.274 270.632C131.544 270.854 131.944 270.815 132.165 270.546L140.378 260.595C140.569 260.364 140.534 260.024 140.301 259.833C140.069 259.643 139.725 259.672 139.532 259.9L131.193 269.748Z" fill="#E9EDF0"/>
<path d="M148.421 260.071C148.176 260.419 148.261 260.899 148.616 261.14C148.625 261.147 148.635 261.153 148.644 261.159C148.999 261.4 149.482 261.306 149.72 260.953C149.959 260.6 149.862 260.122 149.507 259.881C149.152 259.64 148.667 259.723 148.421 260.071Z" fill="#E9EDF0"/>
<path d="M138.145 275.034C137.944 275.318 138.014 275.71 138.303 275.907C138.591 276.105 138.986 276.031 139.183 275.745L146.489 265.122C146.659 264.876 146.594 264.54 146.346 264.37C146.097 264.2 145.757 264.259 145.585 264.503L138.145 275.034Z" fill="#E9EDF0"/>
<path d="M154.453 263.905C154.239 264.273 154.367 264.744 154.741 264.953C154.751 264.959 154.761 264.965 154.771 264.97C155.146 265.179 155.618 265.044 155.825 264.672C156.032 264.299 155.892 263.831 155.518 263.622C155.144 263.413 154.668 263.537 154.453 263.905Z" fill="#E9EDF0"/>
<path d="M145.533 279.699C145.358 279.999 145.462 280.384 145.767 280.556C146.072 280.727 146.459 280.62 146.63 280.317L152.974 269.105C153.121 268.845 153.027 268.515 152.765 268.368C152.503 268.22 152.169 268.308 152.019 268.566L145.533 279.699Z" fill="#E9EDF0"/>
<path d="M160.804 267.205C160.623 267.59 160.791 268.048 161.182 268.224C161.193 268.229 161.204 268.234 161.215 268.239C161.606 268.414 162.065 268.238 162.238 267.85C162.411 267.461 162.231 267.007 161.84 266.831C161.449 266.655 160.985 266.82 160.804 267.205Z" fill="#E9EDF0"/>
<path d="M153.307 283.708C153.159 284.023 153.297 284.397 153.615 284.542C153.934 284.687 154.31 284.546 154.454 284.229L159.787 272.512C159.911 272.24 159.789 271.92 159.515 271.796C159.24 271.671 158.916 271.788 158.788 272.058L153.307 283.708Z" fill="#E9EDF0"/>
<path d="M167.419 269.944C167.273 270.343 167.481 270.785 167.885 270.926C167.897 270.93 167.909 270.934 167.92 270.939C168.325 271.08 168.766 270.865 168.904 270.463C169.043 270.061 168.823 269.623 168.419 269.482C168.014 269.341 167.566 269.545 167.419 269.944Z" fill="#E9EDF0"/>
<path d="M161.401 287.032C161.282 287.358 161.451 287.719 161.782 287.836C162.112 287.953 162.474 287.78 162.59 287.452L166.872 275.32C166.972 275.038 166.822 274.73 166.538 274.629C166.254 274.529 165.94 274.673 165.837 274.954L161.401 287.032Z" fill="#E9EDF0"/>
<path d="M174.249 272.101C174.138 272.511 174.384 272.933 174.799 273.039C174.811 273.042 174.824 273.045 174.836 273.048C175.251 273.154 175.672 272.901 175.774 272.489C175.877 272.077 175.619 271.66 175.204 271.554C174.789 271.448 174.36 271.69 174.249 272.101Z" fill="#E9EDF0"/>
<path d="M169.758 289.642C169.667 289.977 169.868 290.323 170.207 290.41C170.547 290.498 170.892 290.294 170.979 289.958L174.178 277.503C174.252 277.213 174.075 276.918 173.784 276.843C173.492 276.767 173.192 276.939 173.114 277.227L169.758 289.642Z" fill="#E9EDF0"/>
<path d="M181.244 273.658C181.17 274.077 181.451 274.476 181.873 274.545C181.887 274.548 181.9 274.55 181.913 274.552C182.335 274.621 182.732 274.333 182.797 273.914C182.863 273.494 182.569 273.101 182.147 273.031C181.724 272.962 181.318 273.24 181.244 273.658Z" fill="#E9EDF0"/>
<path d="M178.312 291.52C178.251 291.863 178.481 292.189 178.827 292.248C179.173 292.306 179.499 292.073 179.556 291.729L181.647 279.046C181.696 278.751 181.494 278.473 181.197 278.423C180.899 278.373 180.616 278.569 180.563 278.864L178.312 291.52Z" fill="#E9EDF0"/>
<path d="M188.348 274.606C188.311 275.029 188.626 275.403 189.053 275.435C189.067 275.436 189.08 275.437 189.094 275.439C189.52 275.471 189.89 275.15 189.918 274.726C189.947 274.302 189.619 273.936 189.193 273.903C188.766 273.871 188.386 274.183 188.348 274.606Z" fill="#E9EDF0"/>
<path d="M186.999 292.653C186.968 293 187.226 293.306 187.576 293.334C187.925 293.362 188.23 293.102 188.256 292.755L189.224 279.94C189.247 279.641 189.021 279.382 188.721 279.357C188.42 279.333 188.155 279.554 188.129 279.852L186.999 292.653Z" fill="#E9EDF0"/>
<path d="M262.927 240.408C263.278 240.652 263.763 240.566 264.006 240.215C264.012 240.206 264.019 240.197 264.025 240.187C264.268 239.836 264.173 239.357 263.817 239.121C263.461 238.884 262.978 238.981 262.735 239.332C262.492 239.684 262.576 240.164 262.927 240.408Z" fill="#F27922"/>
<path d="M278.026 250.591C278.312 250.79 278.708 250.72 278.907 250.434C279.107 250.148 279.032 249.757 278.743 249.562L268.024 242.321C267.776 242.153 267.437 242.218 267.266 242.464C267.094 242.71 267.153 243.047 267.4 243.217L278.026 250.591Z" fill="#F27922"/>
<path d="M266.797 234.427C267.169 234.639 267.644 234.512 267.856 234.141C267.861 234.131 267.866 234.122 267.871 234.113C268.083 233.742 267.946 233.272 267.571 233.068C267.195 232.863 266.723 233 266.512 233.372C266.3 233.743 266.426 234.215 266.797 234.427Z" fill="#F27922"/>
<path d="M282.735 243.268C283.037 243.441 283.424 243.337 283.598 243.035C283.771 242.733 283.663 242.35 283.359 242.181L272.042 235.893C271.781 235.747 271.449 235.841 271.3 236.1C271.15 236.36 271.239 236.691 271.499 236.839L282.735 243.268Z" fill="#F27922"/>
<path d="M266.797 234.427C267.169 234.639 267.644 234.512 267.856 234.141C267.861 234.131 267.866 234.122 267.871 234.113C268.083 233.742 267.946 233.272 267.571 233.068C267.195 232.863 266.723 233 266.512 233.372C266.3 233.743 266.426 234.215 266.797 234.427Z" fill="#F27922"/>
<path d="M282.735 243.268C283.037 243.441 283.424 243.337 283.598 243.035C283.771 242.733 283.663 242.35 283.359 242.181L272.042 235.893C271.781 235.747 271.449 235.841 271.3 236.1C271.15 236.36 271.239 236.691 271.499 236.839L282.735 243.268Z" fill="#F27922"/>
<path d="M270.126 228.133C270.514 228.313 270.978 228.145 271.156 227.756C271.16 227.747 271.164 227.738 271.168 227.729C271.346 227.34 271.169 226.884 270.777 226.713C270.385 226.541 269.927 226.719 269.749 227.107C269.571 227.495 269.738 227.954 270.126 228.133Z" fill="#F27922"/>
<path d="M286.781 235.566C287.097 235.712 287.474 235.575 287.62 235.259C287.766 234.943 287.625 234.571 287.307 234.429L275.479 229.141C275.206 229.019 274.884 229.141 274.758 229.413C274.633 229.685 274.749 230.006 275.021 230.131L286.781 235.566Z" fill="#F27922"/>
<path d="M272.887 221.578C273.29 221.724 273.738 221.516 273.881 221.113C273.884 221.104 273.887 221.095 273.89 221.087C274.034 220.683 273.816 220.244 273.411 220.107C273.006 219.97 272.565 220.186 272.422 220.589C272.279 220.991 272.486 221.434 272.887 221.578Z" fill="#F27922"/>
<path d="M290.134 227.543C290.462 227.662 290.825 227.493 290.942 227.165C291.06 226.838 290.887 226.479 290.559 226.365L278.31 222.119C278.027 222.021 277.717 222.171 277.616 222.452C277.514 222.734 277.659 223.043 277.94 223.145L290.134 227.543Z" fill="#F27922"/>
<path d="M275.062 214.81C275.476 214.92 275.904 214.674 276.012 214.26C276.014 214.251 276.016 214.243 276.018 214.234C276.126 213.82 275.87 213.4 275.454 213.299C275.04 213.198 274.619 213.451 274.512 213.864C274.405 214.277 274.65 214.7 275.062 214.81Z" fill="#F27922"/>
<path d="M292.77 219.263C293.106 219.352 293.452 219.152 293.541 218.816C293.63 218.48 293.426 218.138 293.089 218.053L280.512 214.88C280.222 214.807 279.927 214.983 279.85 215.272C279.774 215.561 279.945 215.857 280.234 215.934L292.77 219.263Z" fill="#F27922"/>
<path d="M276.635 207.877C277.057 207.951 277.462 207.669 277.533 207.246C277.534 207.238 277.535 207.23 277.537 207.221C277.607 206.799 277.316 206.403 276.892 206.337C276.471 206.273 276.074 206.562 276.004 206.982C275.933 207.403 276.214 207.803 276.635 207.877Z" fill="#F27922"/>
<path d="M294.666 210.784C295.008 210.844 295.335 210.615 295.394 210.272C295.453 209.93 295.22 209.607 294.877 209.551L282.068 207.477C281.773 207.429 281.495 207.63 281.444 207.924C281.394 208.219 281.59 208.499 281.884 208.551L294.666 210.784Z" fill="#F27922"/>
<path d="M277.591 200.837C278.018 200.874 278.397 200.558 278.43 200.13C278.431 200.122 278.431 200.114 278.432 200.106C278.465 199.679 278.14 199.309 277.712 199.281C277.287 199.253 276.917 199.575 276.884 200C276.851 200.425 277.166 200.8 277.591 200.837Z" fill="#F27922"/>
<path d="M295.81 202.175C296.156 202.205 296.462 201.949 296.49 201.603C296.519 201.256 296.259 200.954 295.912 200.929L282.969 199.969C282.671 199.947 282.411 200.17 282.387 200.468C282.362 200.766 282.582 201.028 282.88 201.054L295.81 202.175Z" fill="#F27922"/>
<path d="M277.925 193.739C278.354 193.739 278.703 193.392 278.699 192.963C278.699 192.955 278.699 192.947 278.699 192.939C278.694 192.51 278.338 192.17 277.909 192.179C277.483 192.188 277.143 192.54 277.147 192.967C277.151 193.393 277.499 193.739 277.925 193.739Z" fill="#F27922"/>
<path d="M296.192 193.499C296.54 193.499 296.822 193.218 296.82 192.87C296.817 192.523 296.532 192.244 296.184 192.249L283.206 192.41C282.907 192.414 282.668 192.659 282.67 192.958C282.672 193.257 282.914 193.499 283.213 193.499L296.192 193.499Z" fill="#F27922"/>
<path d="M277.633 186.641C278.06 186.604 278.378 186.228 278.336 185.801C278.335 185.793 278.334 185.785 278.333 185.777C278.291 185.35 277.906 185.042 277.48 185.088C277.056 185.134 276.748 185.514 276.79 185.939C276.832 186.363 277.208 186.678 277.633 186.641Z" fill="#F27922"/>
<path d="M295.81 184.824C296.157 184.794 296.413 184.489 296.38 184.143C296.347 183.797 296.038 183.544 295.692 183.579L282.778 184.861C282.481 184.89 282.264 185.155 282.292 185.453C282.32 185.75 282.583 185.971 282.881 185.945L295.81 184.824Z" fill="#F27922"/>
<path d="M276.72 179.595C277.142 179.522 277.426 179.119 277.346 178.698C277.345 178.69 277.343 178.682 277.341 178.673C277.262 178.253 276.851 177.979 276.431 178.061C276.012 178.143 275.739 178.549 275.818 178.969C275.897 179.388 276.3 179.669 276.72 179.595Z" fill="#F27922"/>
<path d="M294.666 176.216C295.009 176.156 295.237 175.83 295.174 175.488C295.111 175.146 294.781 174.921 294.439 174.986L281.687 177.378C281.394 177.433 281.201 177.716 281.255 178.01C281.309 178.304 281.59 178.501 281.885 178.449L294.666 176.216Z" fill="#F27922"/>
<path d="M275.189 172.656C275.603 172.546 275.85 172.121 275.734 171.709C275.731 171.7 275.729 171.692 275.727 171.683C275.611 171.271 275.178 171.034 274.766 171.153C274.356 171.27 274.12 171.699 274.235 172.109C274.351 172.52 274.777 172.765 275.189 172.656Z" fill="#F27922"/>
<path d="M292.769 167.737C293.105 167.647 293.304 167.303 293.211 166.968C293.119 166.632 292.77 166.437 292.435 166.531L279.942 170.015C279.654 170.096 279.487 170.394 279.567 170.682C279.647 170.97 279.944 171.142 280.233 171.065L292.769 167.737Z" fill="#F27922"/>
<path d="M273.052 165.872C273.455 165.726 273.663 165.282 273.511 164.882C273.508 164.873 273.505 164.865 273.501 164.856C273.349 164.456 272.898 164.257 272.498 164.411C272.1 164.564 271.902 165.011 272.053 165.41C272.205 165.809 272.65 166.016 273.052 165.872Z" fill="#F27922"/>
<path d="M290.134 159.456C290.461 159.338 290.629 158.977 290.507 158.651C290.385 158.325 290.02 158.161 289.695 158.283L277.557 162.833C277.277 162.938 277.136 163.25 277.241 163.53C277.346 163.81 277.658 163.956 277.939 163.854L290.134 159.456Z" fill="#F27922"/>
<path d="M270.33 159.302C270.718 159.122 270.887 158.662 270.7 158.277C270.696 158.268 270.692 158.26 270.688 158.251C270.501 157.865 270.035 157.707 269.65 157.894C269.266 158.081 269.108 158.544 269.294 158.928C269.48 159.313 269.942 159.481 270.33 159.302Z" fill="#F27922"/>
<path d="M286.781 151.434C287.097 151.288 287.233 150.914 287.083 150.6C286.933 150.286 286.555 150.154 286.241 150.304L274.551 155.884C274.281 156.013 274.168 156.336 274.297 156.606C274.426 156.876 274.75 156.994 275.021 156.869L286.781 151.434Z" fill="#F27922"/>
<path d="M267.039 152.988C267.41 152.776 267.537 152.304 267.318 151.936C267.312 151.927 267.307 151.918 267.301 151.909C267.082 151.542 266.604 151.425 266.237 151.645C265.871 151.864 265.755 152.338 265.974 152.706C266.193 153.073 266.667 153.2 267.039 152.988Z" fill="#F27922"/>
<path d="M282.734 143.73C283.037 143.557 283.14 143.173 282.962 142.873C282.785 142.573 282.396 142.474 282.096 142.651L270.943 149.219C270.685 149.371 270.601 149.703 270.753 149.961C270.906 150.219 271.238 150.308 271.498 150.159L282.734 143.73Z" fill="#F27922"/>
<path d="M267.04 152.99C267.412 152.778 267.538 152.306 267.319 151.938C267.314 151.929 267.309 151.92 267.303 151.911C267.084 151.544 266.606 151.427 266.239 151.647C265.873 151.867 265.756 152.341 265.975 152.708C266.194 153.075 266.669 153.202 267.04 152.99Z" fill="#F27922"/>
<path d="M282.734 143.733C283.037 143.56 283.14 143.175 282.962 142.875C282.785 142.575 282.396 142.477 282.096 142.653L270.943 149.221C270.685 149.373 270.601 149.705 270.753 149.963C270.906 150.221 271.238 150.31 271.498 150.161L282.734 143.733Z" fill="#F27922"/>
<path d="M263.205 146.986C263.556 146.742 263.641 146.261 263.391 145.915C263.385 145.906 263.378 145.897 263.371 145.888C263.121 145.541 262.635 145.466 262.289 145.717C261.943 145.967 261.869 146.45 262.119 146.796C262.369 147.143 262.854 147.229 263.205 146.986Z" fill="#F27922"/>
<path d="M278.024 136.409C278.311 136.21 278.38 135.818 278.177 135.534C277.974 135.251 277.578 135.186 277.294 135.389L266.762 142.894C266.518 143.068 266.463 143.406 266.637 143.65C266.812 143.893 267.152 143.953 267.398 143.783L278.024 136.409Z" fill="#F27922"/>
<path d="M258.858 141.337C259.187 141.064 259.229 140.578 258.95 140.255C258.942 140.246 258.935 140.237 258.927 140.228C258.647 139.905 258.156 139.873 257.834 140.152C257.511 140.432 257.481 140.919 257.76 141.242C258.039 141.566 258.53 141.61 258.858 141.337Z" fill="#F27922"/>
<path d="M272.69 129.521C272.958 129.298 272.993 128.901 272.766 128.636C272.539 128.371 272.138 128.341 271.873 128.568L262.043 136.953C261.814 137.148 261.789 137.489 261.984 137.717C262.18 137.945 262.524 137.975 262.754 137.783L272.69 129.521Z" fill="#F27922"/>
<path d="M254.03 136.085C254.333 135.784 254.334 135.297 254.028 135C254.018 134.991 254.009 134.982 254 134.973C253.694 134.676 253.202 134.686 252.906 134.993C252.609 135.299 252.622 135.788 252.928 136.085C253.234 136.382 253.727 136.385 254.03 136.085Z" fill="#F27922"/>
<path d="M266.771 123.119C267.019 122.873 267.019 122.475 266.77 122.23C266.52 121.986 266.118 121.991 265.873 122.24L256.819 131.442C256.608 131.656 256.613 131.998 256.827 132.208C257.042 132.418 257.388 132.418 257.601 132.207L266.771 123.119Z" fill="#F27922"/>
<path d="M248.76 131.271C249.035 130.946 248.993 130.461 248.662 130.191C248.652 130.183 248.641 130.174 248.631 130.166C248.3 129.896 247.812 129.949 247.543 130.28C247.274 130.611 247.331 131.098 247.661 131.367C247.992 131.636 248.484 131.596 248.76 131.271Z" fill="#F27922"/>
<path d="M260.31 117.254C260.536 116.988 260.502 116.59 260.231 116.368C259.961 116.147 259.561 116.187 259.339 116.456L251.129 126.403C250.938 126.635 250.972 126.976 251.204 127.167C251.437 127.358 251.781 127.328 251.976 127.098L260.31 117.254Z" fill="#F27922"/>
<path d="M243.083 126.928C243.328 126.581 243.244 126.101 242.892 125.862C242.88 125.854 242.868 125.846 242.856 125.838C242.504 125.598 242.022 125.694 241.784 126.047C241.545 126.399 241.644 126.879 241.997 127.119C242.349 127.358 242.837 127.276 243.083 126.928Z" fill="#F27922"/>
<path d="M253.357 111.968C253.559 111.682 253.49 111.289 253.201 111.091C252.913 110.894 252.517 110.969 252.319 111.257L245.016 121.874C244.846 122.121 244.91 122.459 245.158 122.629C245.406 122.798 245.747 122.738 245.921 122.493L253.357 111.968Z" fill="#F27922"/>
<path d="M237.051 123.093C237.265 122.726 237.139 122.256 236.768 122.048C236.754 122.041 236.741 122.033 236.728 122.026C236.356 121.818 235.886 121.955 235.679 122.327C235.472 122.699 235.614 123.169 235.986 123.377C236.357 123.584 236.836 123.461 237.051 123.093Z" fill="#F27922"/>
<path d="M245.969 107.304C246.145 107.001 246.041 106.615 245.737 106.443C245.432 106.271 245.044 106.381 244.872 106.685L238.532 117.891C238.383 118.153 238.477 118.483 238.739 118.631C239.001 118.779 239.335 118.689 239.487 118.429L245.969 107.304Z" fill="#F27922"/>
<path d="M230.702 119.794C230.883 119.409 230.717 118.952 230.329 118.777C230.314 118.771 230.3 118.765 230.286 118.758C229.898 118.584 229.441 118.761 229.268 119.149C229.095 119.538 229.27 119.99 229.658 120.165C229.663 120.167 229.668 120.169 229.673 120.171C230.061 120.346 230.52 120.179 230.702 119.794Z" fill="#F27922"/>
<path d="M238.197 103.296C238.346 102.979 238.209 102.603 237.891 102.458C237.572 102.313 237.195 102.456 237.05 102.774L231.72 114.483C231.595 114.757 231.717 115.079 231.991 115.204C232.265 115.328 232.591 115.21 232.719 114.938L238.197 103.296Z" fill="#F27922"/>
<path d="M224.086 117.056C224.233 116.657 224.028 116.216 223.626 116.075C223.611 116.07 223.596 116.065 223.58 116.059C223.179 115.919 222.74 116.135 222.601 116.537C222.463 116.939 222.678 117.375 223.079 117.515C223.084 117.517 223.09 117.519 223.096 117.521C223.497 117.661 223.94 117.455 224.086 117.056Z" fill="#F27922"/>
<path d="M230.102 99.9731C230.223 99.6443 230.053 99.2811 229.723 99.1643C229.393 99.0475 229.03 99.2225 228.913 99.5529L224.634 111.677C224.534 111.961 224.683 112.271 224.967 112.371C225.251 112.472 225.565 112.326 225.669 112.043L230.102 99.9731Z" fill="#F27922"/>
<path d="M217.255 114.899C217.366 114.489 217.123 114.068 216.712 113.963C216.695 113.959 216.679 113.954 216.663 113.95C216.251 113.846 215.833 114.099 215.73 114.511C215.628 114.924 215.88 115.339 216.292 115.444C216.298 115.445 216.304 115.447 216.31 115.448C216.722 115.553 217.145 115.31 217.255 114.899Z" fill="#F27922"/>
<path d="M221.745 97.3619C221.836 97.0236 221.636 96.6762 221.297 96.5884C220.957 96.5005 220.611 96.7065 220.524 97.0459L217.327 109.492C217.252 109.784 217.428 110.08 217.72 110.156C218.012 110.231 218.312 110.058 218.391 109.767L221.745 97.3619Z" fill="#F27922"/>
<path d="M210.26 113.341C210.334 112.923 210.056 112.524 209.636 112.455C209.619 112.452 209.603 112.449 209.586 112.447C209.166 112.378 208.772 112.666 208.707 113.086C208.641 113.506 208.928 113.898 209.347 113.967C209.354 113.968 209.36 113.969 209.367 113.97C209.786 114.039 210.186 113.759 210.26 113.341Z" fill="#F27922"/>
<path d="M213.191 95.4834C213.253 95.1383 213.023 94.8093 212.677 94.7511C212.331 94.6929 212.004 94.9282 211.947 95.2741L209.858 107.948C209.809 108.246 210.01 108.526 210.307 108.576C210.605 108.626 210.888 108.428 210.941 108.131L213.191 95.4834Z" fill="#F27922"/>
<path d="M203.155 112.393C203.193 111.97 202.88 111.597 202.457 111.565C202.439 111.563 202.422 111.562 202.405 111.561C201.981 111.528 201.614 111.85 201.586 112.273C201.557 112.697 201.877 113.063 202.301 113.095C202.308 113.096 202.314 113.096 202.321 113.097C202.745 113.129 203.118 112.816 203.155 112.393Z" fill="#F27922"/>
<path d="M204.505 94.3505C204.536 94.0012 204.278 93.6932 203.928 93.6651C203.578 93.637 203.273 93.8997 203.247 94.2494L202.28 107.055C202.257 107.356 202.483 107.618 202.783 107.642C203.084 107.666 203.349 107.444 203.376 107.143L204.505 94.3505Z" fill="#F27922"/>
<path d="M195.993 112.061C195.993 111.636 195.649 111.292 195.224 111.296C195.207 111.296 195.189 111.296 195.172 111.296C194.747 111.301 194.41 111.653 194.419 112.077C194.427 112.502 194.779 112.839 195.203 112.834C195.21 112.834 195.217 112.834 195.224 112.834C195.649 112.83 195.993 112.486 195.993 112.061Z" fill="#F27922"/>
<path d="M195.752 93.9713C195.752 93.6206 195.467 93.3361 195.117 93.3383C194.766 93.3405 194.485 93.6285 194.49 93.9793L194.652 106.82C194.656 107.121 194.904 107.363 195.205 107.361C195.507 107.359 195.752 107.115 195.752 106.813L195.752 93.9713Z" fill="#F27922"/>
<path d="M203.158 112.394C203.196 111.971 202.88 111.597 202.454 111.565C202.44 111.564 202.427 111.562 202.413 111.561C201.986 111.529 201.617 111.85 201.589 112.274C201.56 112.698 201.887 113.064 202.314 113.096C202.741 113.129 203.121 112.817 203.158 112.394Z" fill="#F27922"/>
<path d="M204.508 94.3469C204.539 94.0001 204.281 93.6942 203.931 93.6661C203.581 93.638 203.277 93.8986 203.25 94.2457L202.283 107.06C202.26 107.359 202.486 107.619 202.786 107.643C203.087 107.667 203.352 107.447 203.378 107.148L204.508 94.3469Z" fill="#F27922"/>
<path d="M195.996 112.062C195.996 111.637 195.649 111.292 195.222 111.296C195.208 111.297 195.194 111.297 195.18 111.297C194.752 111.301 194.413 111.653 194.422 112.078C194.43 112.502 194.789 112.839 195.217 112.835C195.644 112.83 195.996 112.486 195.996 112.062Z" fill="#F27922"/>
<path d="M195.754 93.9673C195.754 93.6189 195.469 93.3363 195.119 93.3385C194.768 93.3407 194.487 93.6268 194.491 93.9752L194.654 106.824C194.658 107.123 194.906 107.363 195.207 107.361C195.509 107.359 195.754 107.116 195.754 106.817L195.754 93.9673Z" fill="#F27922"/>
<path d="M195.996 112.065C195.996 111.64 195.649 111.295 195.222 111.3C195.208 111.3 195.194 111.3 195.18 111.3C194.752 111.304 194.413 111.656 194.422 112.081C194.43 112.505 194.789 112.842 195.217 112.838C195.644 112.833 195.996 112.489 195.996 112.065Z" fill="#F27922"/>
<path d="M195.754 93.969C195.754 93.6206 195.469 93.338 195.118 93.3402C194.768 93.3424 194.487 93.6285 194.491 93.9769L194.654 106.825C194.658 107.125 194.906 107.365 195.207 107.363C195.509 107.361 195.754 107.118 195.754 106.819L195.754 93.969Z" fill="#F27922"/>
<path d="M188.833 112.352C188.795 111.929 188.42 111.616 187.995 111.657C187.981 111.658 187.966 111.659 187.952 111.661C187.527 111.702 187.22 112.082 187.266 112.504C187.312 112.926 187.699 113.231 188.124 113.189C188.55 113.148 188.87 112.775 188.833 112.352Z" fill="#F27922"/>
<path d="M187 94.3474C186.969 94.0002 186.661 93.743 186.312 93.7755C185.963 93.808 185.709 94.1174 185.744 94.4643L187.036 107.249C187.066 107.547 187.334 107.765 187.634 107.737C187.934 107.709 188.156 107.446 188.13 107.147L187 94.3474Z" fill="#F27922"/>
<path d="M181.724 113.257C181.649 112.839 181.248 112.559 180.828 112.637C180.814 112.639 180.8 112.642 180.785 112.645C180.365 112.723 180.093 113.127 180.176 113.544C180.259 113.961 180.672 114.23 181.092 114.153C181.512 114.075 181.798 113.676 181.724 113.257Z" fill="#F27922"/>
<path d="M178.314 95.4808C178.253 95.1374 177.924 94.9076 177.579 94.9701C177.234 95.0326 177.007 95.3631 177.073 95.7058L179.484 108.33C179.541 108.624 179.827 108.818 180.123 108.764C180.42 108.711 180.618 108.429 180.566 108.134L178.314 95.4808Z" fill="#F27922"/>
<path d="M174.72 114.776C174.609 114.366 174.184 114.122 173.773 114.235C173.759 114.239 173.745 114.243 173.73 114.247C173.319 114.361 173.084 114.788 173.203 115.196C173.323 115.604 173.758 115.836 174.169 115.723C174.58 115.609 174.831 115.186 174.72 114.776Z" fill="#F27922"/>
<path d="M169.761 97.3609C169.669 97.0238 169.321 96.8233 168.983 96.9154C168.644 97.0075 168.448 97.3563 168.544 97.6922L172.056 110.059C172.138 110.348 172.44 110.517 172.731 110.437C173.022 110.358 173.194 110.061 173.116 109.771L169.761 97.3609Z" fill="#F27922"/>
<path d="M167.874 116.893C167.728 116.494 167.284 116.287 166.884 116.436C166.87 116.441 166.856 116.446 166.842 116.451C166.442 116.6 166.245 117.046 166.4 117.442C166.555 117.838 167.009 118.032 167.409 117.884C167.808 117.735 168.021 117.292 167.874 116.893Z" fill="#F27922"/>
<path d="M161.403 99.972C161.282 99.6441 160.917 99.4744 160.588 99.5953C160.26 99.7162 160.095 100.081 160.219 100.407L164.806 112.424C164.913 112.704 165.229 112.846 165.511 112.742C165.794 112.638 165.94 112.327 165.836 112.045L161.403 99.972Z" fill="#F27922"/>
<path d="M161.244 119.593C161.063 119.208 160.602 119.041 160.217 119.223C160.204 119.23 160.19 119.236 160.176 119.243C159.792 119.425 159.635 119.886 159.824 120.267C160.013 120.648 160.482 120.803 160.867 120.62C161.252 120.438 161.425 119.978 161.244 119.593Z" fill="#F27922"/>
<path d="M153.309 103.295C153.16 102.979 152.782 102.841 152.465 102.99C152.148 103.139 152.016 103.516 152.169 103.831L157.795 115.405C157.926 115.676 158.253 115.79 158.525 115.662C158.798 115.534 158.916 115.211 158.788 114.939L153.309 103.295Z" fill="#F27922"/>
<path d="M154.876 122.853C154.661 122.486 154.188 122.358 153.82 122.573C153.807 122.581 153.794 122.589 153.781 122.596C153.414 122.812 153.298 123.284 153.52 123.648C153.742 124.011 154.223 124.124 154.591 123.909C154.958 123.694 155.09 123.221 154.876 122.853Z" fill="#F27922"/>
<path d="M145.538 107.304C145.362 107.002 144.973 106.897 144.67 107.073C144.367 107.249 144.269 107.636 144.449 107.936L151.071 118.98C151.226 119.238 151.561 119.324 151.822 119.173C152.082 119.022 152.171 118.69 152.02 118.43L145.538 107.304Z" fill="#F27922"/>
<path d="M148.819 126.653C148.573 126.305 148.09 126.219 147.743 126.465C147.731 126.474 147.719 126.482 147.706 126.491C147.359 126.737 147.286 127.218 147.539 127.561C147.791 127.904 148.281 127.975 148.628 127.729C148.975 127.483 149.065 127.001 148.819 126.653Z" fill="#F27922"/>
<path d="M138.148 111.97C137.946 111.684 137.55 111.613 137.264 111.814C136.978 112.016 136.914 112.41 137.119 112.694L144.688 123.124C144.864 123.368 145.206 123.423 145.452 123.251C145.698 123.078 145.758 122.739 145.584 122.493L138.148 111.97Z" fill="#F27922"/>
<path d="M143.119 130.961C142.843 130.636 142.354 130.592 142.03 130.867C142.019 130.877 142.008 130.887 141.996 130.896C141.672 131.171 141.641 131.657 141.923 131.976C142.205 132.296 142.699 132.325 143.023 132.05C143.347 131.775 143.394 131.287 143.119 130.961Z" fill="#F27922"/>
<path d="M131.197 117.256C130.97 116.989 130.569 116.953 130.302 117.178C130.035 117.403 130.005 117.802 130.235 118.066L138.692 127.803C138.89 128.031 139.235 128.057 139.465 127.863C139.695 127.67 139.724 127.328 139.53 127.098L131.197 117.256Z" fill="#F27922"/>
<path d="M137.819 135.747C137.516 135.447 137.025 135.445 136.726 135.747C136.716 135.758 136.706 135.768 136.695 135.779C136.397 136.081 136.408 136.567 136.717 136.862C137.026 137.156 137.521 137.142 137.819 136.84C138.118 136.537 138.122 136.047 137.819 135.747Z" fill="#F27922"/>
<path d="M124.737 123.122C124.488 122.875 124.085 122.875 123.839 123.122C123.593 123.369 123.599 123.769 123.851 124.012L133.132 132.982C133.349 133.191 133.695 133.188 133.907 132.975C134.119 132.762 134.119 132.419 133.904 132.207L124.737 123.122Z" fill="#F27922"/>
<path d="M132.96 140.969C132.632 140.696 132.143 140.738 131.871 141.065C131.862 141.076 131.853 141.087 131.844 141.098C131.573 141.425 131.627 141.909 131.96 142.175C132.294 142.441 132.785 142.385 133.057 142.058C133.328 141.731 133.288 141.242 132.96 140.969Z" fill="#F27922"/>
<path d="M118.817 129.522C118.548 129.298 118.146 129.332 117.923 129.6C117.699 129.867 117.74 130.265 118.012 130.485L128.048 138.62C128.282 138.81 128.627 138.776 128.819 138.546C129.011 138.316 128.981 137.974 128.749 137.781L118.817 129.522Z" fill="#F27922"/>
<path d="M128.581 146.593C128.23 146.35 127.746 146.433 127.504 146.783C127.496 146.794 127.488 146.806 127.48 146.818C127.239 147.167 127.335 147.644 127.691 147.881C128.047 148.117 128.531 148.019 128.773 147.669C129.014 147.32 128.932 146.837 128.581 146.593Z" fill="#F27922"/>
<path d="M113.484 136.411C113.196 136.211 112.799 136.28 112.6 136.566C112.4 136.852 112.476 137.244 112.767 137.44L123.48 144.677C123.73 144.846 124.07 144.783 124.241 144.537C124.413 144.291 124.352 143.953 124.104 143.781L113.484 136.411Z" fill="#F27922"/>
<path d="M124.709 152.573C124.338 152.361 123.864 152.486 123.654 152.855C123.647 152.867 123.64 152.879 123.633 152.891C123.423 153.261 123.561 153.728 123.936 153.933C124.312 154.137 124.785 153.998 124.995 153.629C125.205 153.26 125.08 152.786 124.709 152.573Z" fill="#F27922"/>
<path d="M108.775 143.734C108.471 143.56 108.081 143.663 107.908 143.965C107.735 144.267 107.844 144.651 108.151 144.821L119.46 151.106C119.724 151.252 120.057 151.159 120.206 150.9C120.355 150.64 120.266 150.309 120.004 150.159L108.775 143.734Z" fill="#F27922"/>
<path d="M124.709 152.573C124.338 152.361 123.864 152.486 123.653 152.855C123.647 152.867 123.64 152.879 123.633 152.891C123.423 153.261 123.561 153.728 123.936 153.933C124.312 154.137 124.785 153.998 124.995 153.629C125.205 153.26 125.08 152.786 124.709 152.573Z" fill="#F27922"/>
<path d="M108.775 143.734C108.471 143.56 108.081 143.663 107.908 143.965C107.735 144.267 107.844 144.651 108.151 144.821L119.46 151.106C119.724 151.252 120.057 151.159 120.206 150.9C120.355 150.64 120.266 150.309 120.004 150.159L108.775 143.734Z" fill="#F27922"/>
<path d="M121.379 158.864C120.99 158.685 120.528 158.851 120.351 159.237C120.346 159.249 120.34 159.261 120.335 159.274C120.158 159.66 120.336 160.114 120.728 160.285C121.12 160.457 121.579 160.277 121.756 159.891C121.933 159.505 121.767 159.044 121.379 158.864Z" fill="#F27922"/>
<path d="M104.728 151.436C104.41 151.289 104.031 151.425 103.885 151.741C103.739 152.057 103.882 152.43 104.202 152.573L116.022 157.857C116.297 157.98 116.621 157.859 116.747 157.587C116.872 157.315 116.754 156.993 116.48 156.867L104.728 151.436Z" fill="#F27922"/>
<path d="M118.617 165.421C118.215 165.275 117.769 165.481 117.627 165.881C117.622 165.893 117.618 165.906 117.614 165.918C117.471 166.318 117.689 166.755 118.094 166.892C118.5 167.029 118.942 166.811 119.084 166.411C119.226 166.01 119.02 165.566 118.617 165.421Z" fill="#F27922"/>
<path d="M101.376 159.458C101.046 159.339 100.681 159.507 100.563 159.834C100.446 160.162 100.62 160.521 100.952 160.636L113.192 164.879C113.477 164.978 113.789 164.829 113.89 164.548C113.991 164.266 113.845 163.955 113.562 163.853L101.376 159.458Z" fill="#F27922"/>
<path d="M116.441 172.191C116.027 172.081 115.601 172.324 115.495 172.736C115.491 172.748 115.488 172.76 115.485 172.773C115.378 173.184 115.633 173.601 116.049 173.702C116.466 173.804 116.886 173.548 116.993 173.137C117.1 172.726 116.855 172.301 116.441 172.191Z" fill="#F27922"/>
<path d="M98.7408 167.739C98.4021 167.649 98.0536 167.849 97.965 168.185C97.8763 168.521 98.082 168.864 98.4218 168.949L110.99 172.12C111.282 172.193 111.579 172.018 111.655 171.729C111.732 171.44 111.559 171.143 111.268 171.066L98.7408 167.739Z" fill="#F27922"/>
<path d="M114.869 179.121C114.447 179.047 114.045 179.327 113.974 179.746C113.972 179.758 113.97 179.771 113.968 179.783C113.898 180.202 114.188 180.595 114.612 180.661C115.035 180.726 115.432 180.435 115.502 180.016C115.572 179.597 115.292 179.195 114.869 179.121Z" fill="#F27922"/>
<path d="M96.8439 176.216C96.4988 176.155 96.1694 176.384 96.1107 176.727C96.052 177.069 96.2867 177.393 96.6326 177.449L109.432 179.521C109.73 179.57 110.01 179.369 110.061 179.075C110.111 178.78 109.913 178.499 109.616 178.448L96.8439 176.216Z" fill="#F27922"/>
<path d="M113.912 186.163C113.485 186.126 113.108 186.439 113.075 186.863C113.074 186.875 113.073 186.887 113.072 186.899C113.04 187.323 113.363 187.69 113.791 187.719C114.219 187.747 114.588 187.424 114.621 187C114.654 186.575 114.339 186.2 113.912 186.163Z" fill="#F27922"/>
<path d="M95.6997 184.825C95.3508 184.795 95.043 185.051 95.0147 185.398C94.9863 185.744 95.2484 186.046 95.5976 186.072L108.532 187.031C108.832 187.054 109.094 186.83 109.118 186.532C109.142 186.234 108.921 185.972 108.621 185.946L95.6997 184.825Z" fill="#F27922"/>
<path d="M113.577 193.259C113.148 193.259 112.801 193.604 112.805 194.03C112.805 194.041 112.805 194.053 112.805 194.064C112.81 194.49 113.165 194.828 113.593 194.819C114.022 194.81 114.361 194.457 114.357 194.031C114.353 193.605 114.006 193.259 113.577 193.259Z" fill="#F27922"/>
<path d="M95.317 193.499C94.9671 193.499 94.6832 193.781 94.6854 194.129C94.6876 194.476 94.975 194.754 95.3249 194.75L108.295 194.589C108.596 194.585 108.837 194.339 108.835 194.041C108.833 193.742 108.589 193.499 108.288 193.499L95.317 193.499Z" fill="#F27922"/>
<path d="M113.87 200.357C113.443 200.394 113.127 200.768 113.169 201.192C113.17 201.204 113.171 201.215 113.172 201.226C113.214 201.65 113.597 201.956 114.023 201.91C114.45 201.865 114.757 201.483 114.715 201.059C114.673 200.635 114.297 200.32 113.87 200.357Z" fill="#F27922"/>
<path d="M95.6994 202.174C95.351 202.204 95.0931 202.51 95.1259 202.856C95.1587 203.202 95.4693 203.454 95.8172 203.42L108.725 202.138C109.024 202.109 109.242 201.843 109.214 201.546C109.186 201.248 108.922 201.028 108.622 201.054L95.6994 202.174Z" fill="#F27922"/>
<path d="M114.785 207.405C114.363 207.479 114.081 207.879 114.16 208.298C114.162 208.309 114.164 208.319 114.166 208.33C114.245 208.749 114.654 209.021 115.074 208.939C115.495 208.857 115.768 208.45 115.689 208.031C115.61 207.612 115.207 207.331 114.785 207.405Z" fill="#F27922"/>
<path d="M96.8426 210.784C96.4984 210.844 96.2685 211.171 96.3316 211.513C96.3947 211.855 96.7261 212.079 97.0695 212.015L109.816 209.623C110.111 209.568 110.305 209.285 110.251 208.991C110.196 208.697 109.914 208.5 109.618 208.552L96.8426 210.784Z" fill="#F27922"/>
<path d="M116.316 214.345C115.902 214.455 115.657 214.878 115.772 215.289C115.775 215.299 115.778 215.31 115.781 215.32C115.897 215.731 116.328 215.967 116.739 215.848C117.151 215.73 117.387 215.302 117.271 214.891C117.156 214.48 116.73 214.235 116.316 214.345Z" fill="#F27922"/>
<path d="M98.7382 219.261C98.4007 219.351 98.2006 219.696 98.2935 220.031C98.3864 220.366 98.7362 220.561 99.0725 220.468L111.56 216.984C111.85 216.904 112.018 216.605 111.938 216.317C111.858 216.028 111.56 215.857 111.269 215.934L98.7382 219.261Z" fill="#F27922"/>
<path d="M118.452 221.127C118.049 221.272 117.842 221.715 117.993 222.114C117.997 222.124 118.001 222.134 118.004 222.144C118.156 222.543 118.606 222.741 119.006 222.588C119.405 222.434 119.603 221.988 119.451 221.588C119.3 221.189 118.855 220.982 118.452 221.127Z" fill="#F27922"/>
<path d="M101.373 227.544C101.045 227.662 100.876 228.023 100.998 228.349C101.12 228.675 101.485 228.839 101.812 228.716L113.946 224.168C114.227 224.062 114.368 223.75 114.263 223.47C114.159 223.19 113.846 223.045 113.564 223.146L101.373 227.544Z" fill="#F27922"/>
<path d="M121.174 227.698C120.786 227.877 120.618 228.336 120.804 228.721C120.809 228.731 120.813 228.74 120.818 228.75C121.004 229.134 121.47 229.292 121.854 229.105C122.239 228.918 122.396 228.456 122.211 228.071C122.025 227.686 121.563 227.518 121.174 227.698Z" fill="#F27922"/>
<path d="M104.725 235.566C104.409 235.712 104.272 236.086 104.423 236.4C104.573 236.714 104.951 236.846 105.266 236.696L116.954 231.116C117.225 230.987 117.338 230.664 117.209 230.394C117.08 230.124 116.756 230.006 116.484 230.132L104.725 235.566Z" fill="#F27922"/>
<path d="M124.467 234.011C124.096 234.223 123.969 234.695 124.188 235.062C124.194 235.071 124.199 235.08 124.204 235.089C124.424 235.456 124.902 235.574 125.268 235.354C125.635 235.134 125.751 234.66 125.532 234.293C125.313 233.926 124.838 233.798 124.467 234.011Z" fill="#F27922"/>
<path d="M108.772 243.268C108.469 243.441 108.366 243.826 108.543 244.126C108.721 244.426 109.109 244.524 109.41 244.348L120.563 237.78C120.821 237.627 120.905 237.296 120.753 237.038C120.6 236.78 120.267 236.691 120.007 236.84L108.772 243.268Z" fill="#F27922"/>
<g clip-path="url(#clip0_2120_1129)">
<path d="M192.57 153C192.57 151.382 193.882 150.07 195.5 150.07L196.672 147.082L195.5 143.918H193.449C192.964 143.918 192.57 144.311 192.57 144.797V145.273C192.57 145.815 192.296 146.329 191.829 146.606C191.352 146.888 190.779 146.891 190.3 146.615L189.86 146.361C189.44 146.119 188.903 146.263 188.66 146.683L186.609 150.235C186.366 150.655 186.51 151.193 186.931 151.436L187.37 151.689C187.849 151.966 188.133 152.464 188.127 153.018C188.12 153.561 187.813 154.055 187.343 154.326L186.931 154.564C186.51 154.807 186.366 155.345 186.609 155.765L188.66 159.317C188.903 159.737 189.44 159.881 189.86 159.639L190.3 159.385C190.779 159.108 191.352 159.112 191.829 159.394C192.296 159.671 192.57 160.185 192.57 160.727V161.203C192.57 161.689 192.964 162.082 193.449 162.082H195.5L197.258 159.211L195.5 155.93C193.882 155.93 192.57 154.618 192.57 153Z" fill="#F27922"/>
<path d="M204.069 154.564L203.63 154.311C203.151 154.034 202.867 153.536 202.873 152.982C202.879 152.439 203.187 151.945 203.657 151.674L204.069 151.436C204.489 151.193 204.633 150.655 204.391 150.235L202.34 146.683C202.097 146.263 201.56 146.119 201.139 146.361L200.7 146.615C200.221 146.891 199.648 146.888 199.171 146.606C198.704 146.329 198.43 145.815 198.43 145.273V144.797C198.43 144.311 198.036 143.918 197.551 143.918H195.5V150.07C197.118 150.07 198.43 151.382 198.43 153C198.43 154.618 197.118 155.93 195.5 155.93V162.082H197.551C198.036 162.082 198.43 161.689 198.43 161.203V160.727C198.43 160.185 198.704 159.671 199.171 159.394C199.648 159.112 200.221 159.109 200.7 159.385L201.139 159.639C201.56 159.881 202.097 159.737 202.34 159.317L204.391 155.765C204.633 155.345 204.489 154.807 204.069 154.564Z" fill="#F27922"/>
<path d="M193.449 153C193.449 151.869 194.369 150.949 195.5 150.949L196.086 150.07L195.5 149.191C193.4 149.191 191.691 150.9 191.691 153C191.691 155.1 193.4 156.809 195.5 156.809L196.086 155.871L195.5 155.051C194.369 155.051 193.449 154.131 193.449 153Z" fill="#FFF4F4"/>
<path d="M195.5 149.191V150.949C196.631 150.949 197.551 151.869 197.551 153C197.551 154.131 196.631 155.051 195.5 155.051V156.809C197.6 156.809 199.309 155.1 199.309 153C199.309 150.9 197.6 149.191 195.5 149.191Z" fill="#EBEBF0"/>
<path d="M195.5 138C191.493 138 187.727 139.56 184.893 142.393C182.06 145.227 180.5 148.993 180.5 153C180.5 155.263 180.992 157.438 181.963 159.467C182.173 159.905 182.697 160.09 183.135 159.88C183.573 159.671 183.758 159.146 183.549 158.708C182.692 156.918 182.258 154.998 182.258 153C182.258 145.698 188.198 139.758 195.5 139.758L196.438 138.879L195.5 138Z" fill="#DA4A4A"/>
<path d="M195.5 139.758C198.401 139.758 201.16 140.684 203.438 142.398L201.245 142.687C200.764 142.75 200.425 143.191 200.489 143.673C200.552 144.154 200.994 144.493 201.475 144.429L205.6 143.886C206.081 143.823 206.42 143.381 206.356 142.9L205.813 138.775C205.75 138.294 205.309 137.955 204.827 138.019H204.827C204.346 138.082 204.007 138.523 204.071 139.005L204.315 140.859C201.769 139.002 198.711 138 195.5 138V139.758Z" fill="#DA4A4A"/>
<path d="M195.5 166.242C192.599 166.242 189.84 165.315 187.561 163.602L189.754 163.313C190.236 163.25 190.574 162.809 190.511 162.327C190.448 161.846 190.006 161.507 189.525 161.571L185.4 162.114C184.919 162.177 184.58 162.618 184.643 163.1L185.186 167.225C185.25 167.706 185.691 168.045 186.173 167.981C186.654 167.918 186.993 167.476 186.929 166.995L186.685 165.141C189.231 166.998 192.288 168 195.5 168L196.437 167.121L195.5 166.242Z" fill="#FAC9A7"/>
<path d="M209.037 146.533C208.828 146.095 208.303 145.91 207.865 146.12C207.427 146.329 207.242 146.854 207.451 147.292C208.308 149.082 208.742 151.002 208.742 153C208.742 160.302 202.802 166.242 195.5 166.242V168C199.507 168 203.273 166.44 206.107 163.607C208.94 160.774 210.5 157.007 210.5 153C210.5 150.738 210.008 148.562 209.037 146.533Z" fill="#FAC9A7"/>
</g>
<path d="M163.488 226V217.504H166.008C167.568 217.504 168.984 218.056 168.984 219.832C168.984 221.692 167.4 222.184 166.2 222.184H164.496V226H163.488ZM164.496 218.44V221.248H166.2C167.208 221.248 167.904 220.792 167.904 219.844C167.904 218.896 167.208 218.44 166.2 218.44H164.496ZM170.601 226V217.504H172.773C174.417 217.504 176.157 217.744 176.157 219.844C176.157 221.08 175.353 221.884 174.033 222.088L176.445 226H175.209L172.905 222.184H171.609V226H170.601ZM171.609 218.44V221.248H172.509C173.625 221.248 175.077 221.248 175.077 219.844C175.077 218.62 174.009 218.44 173.025 218.44H171.609ZM181.885 226.216C179.305 226.216 177.445 224.32 177.445 221.752C177.445 219.184 179.305 217.288 181.885 217.288C184.465 217.288 186.325 219.184 186.325 221.752C186.325 224.32 184.465 226.216 181.885 226.216ZM181.885 225.28C183.877 225.28 185.245 223.708 185.245 221.752C185.245 219.796 183.877 218.224 181.885 218.224C179.893 218.224 178.525 219.796 178.525 221.752C178.525 223.708 179.893 225.28 181.885 225.28ZM194.773 218.62L193.897 219.256C193.393 218.572 192.589 218.224 191.773 218.224C189.877 218.224 188.533 219.892 188.533 221.752C188.533 223.72 189.865 225.28 191.773 225.28C192.805 225.28 193.633 224.86 194.233 224.092L194.989 224.728C194.233 225.748 193.129 226.216 191.773 226.216C189.337 226.216 187.453 224.332 187.453 221.752C187.453 219.256 189.253 217.288 191.773 217.288C192.925 217.288 194.053 217.684 194.773 218.62ZM196.394 226V217.504H201.734V218.44H197.402V221.104H201.446V222.04H197.402V225.064H201.95V226H196.394ZM208.367 218.284L207.539 219.004C207.203 218.464 206.603 218.224 205.991 218.224C205.103 218.224 204.179 218.644 204.179 219.652C204.179 220.432 204.611 220.78 205.967 221.212C207.287 221.632 208.511 222.064 208.511 223.732C208.511 225.424 207.059 226.216 205.523 226.216C204.539 226.216 203.483 225.892 202.907 225.04L203.771 224.332C204.131 224.956 204.851 225.28 205.583 225.28C206.447 225.28 207.431 224.776 207.431 223.804C207.431 222.76 206.723 222.58 205.211 222.076C204.011 221.68 203.099 221.152 203.099 219.736C203.099 218.104 204.503 217.288 205.991 217.288C206.939 217.288 207.743 217.552 208.367 218.284ZM215.035 218.284L214.207 219.004C213.871 218.464 213.271 218.224 212.659 218.224C211.771 218.224 210.847 218.644 210.847 219.652C210.847 220.432 211.279 220.78 212.635 221.212C213.955 221.632 215.179 222.064 215.179 223.732C215.179 225.424 213.727 226.216 212.191 226.216C211.207 226.216 210.151 225.892 209.575 225.04L210.439 224.332C210.799 224.956 211.519 225.28 212.251 225.28C213.115 225.28 214.099 224.776 214.099 223.804C214.099 222.76 213.391 222.58 211.879 222.076C210.679 221.68 209.767 221.152 209.767 219.736C209.767 218.104 211.171 217.288 212.659 217.288C213.607 217.288 214.411 217.552 215.035 218.284ZM216.843 226V217.504H222.183V218.44H217.851V221.104H221.895V222.04H217.851V225.064H222.399V226H216.843ZM228.816 218.284L227.988 219.004C227.652 218.464 227.052 218.224 226.44 218.224C225.552 218.224 224.628 218.644 224.628 219.652C224.628 220.432 225.06 220.78 226.416 221.212C227.736 221.632 228.96 222.064 228.96 223.732C228.96 225.424 227.508 226.216 225.972 226.216C224.988 226.216 223.932 225.892 223.356 225.04L224.22 224.332C224.58 224.956 225.3 225.28 226.032 225.28C226.896 225.28 227.88 224.776 227.88 223.804C227.88 222.76 227.172 222.58 225.66 222.076C224.46 221.68 223.548 221.152 223.548 219.736C223.548 218.104 224.952 217.288 226.44 217.288C227.388 217.288 228.192 217.552 228.816 218.284ZM158.607 243L162.351 234.504H163.299L166.911 243H165.735L164.871 240.912H160.623L159.747 243H158.607ZM164.487 239.976L162.807 235.8H162.783L161.019 239.976H164.487ZM174.412 234.504V239.76C174.412 241.608 173.548 243.216 171.208 243.216C168.868 243.216 168.004 241.608 168.004 239.76V234.504H169.012V239.616C169.012 240.984 169.516 242.28 171.208 242.28C172.9 242.28 173.404 240.984 173.404 239.616V234.504H174.412ZM182.19 234.504V235.44H179.382V243H178.374V235.44H175.566V234.504H182.19ZM187.328 243.216C184.748 243.216 182.888 241.32 182.888 238.752C182.888 236.184 184.748 234.288 187.328 234.288C189.908 234.288 191.768 236.184 191.768 238.752C191.768 241.32 189.908 243.216 187.328 243.216ZM187.328 242.28C189.32 242.28 190.688 240.708 190.688 238.752C190.688 236.796 189.32 235.224 187.328 235.224C185.336 235.224 183.968 236.796 183.968 238.752C183.968 240.708 185.336 242.28 187.328 242.28ZM193.388 243V234.504H194.888L197.768 241.164H197.792L200.696 234.504H202.16V243H201.152V235.872H201.128L198.08 243H197.468L194.42 235.872H194.396V243H193.388ZM203.291 243L207.035 234.504H207.983L211.595 243H210.419L209.555 240.912H205.307L204.431 243H203.291ZM209.171 239.976L207.491 235.8H207.467L205.703 239.976H209.171ZM217.322 234.504V235.44H214.514V243H213.506V235.44H210.698V234.504H217.322ZM218.513 243V234.504H223.853V235.44H219.521V238.104H223.565V239.04H219.521V242.064H224.069V243H218.513ZM225.47 243V234.504H228.734C230.402 234.504 232.898 235.62 232.898 238.752C232.898 241.884 230.402 243 228.734 243H225.47ZM226.478 235.44V242.064H228.398C230.342 242.064 231.818 241.08 231.818 238.752C231.818 236.424 230.342 235.44 228.398 235.44H226.478Z" fill="black"/>
<path d="M172.384 199V195.184L178.984 189.256C179.656 188.632 180.496 187.912 180.496 186.88C180.496 185.728 179.512 185.032 178.408 185.032C177.088 185.032 176.296 185.968 176.2 187.192L172.6 186.928C172.816 183.424 175.264 181.72 178.6 181.72C181.696 181.72 184.096 183.424 184.096 186.832C184.096 189.016 183.16 190.264 181.864 191.392L176.704 195.832H184.24V199H172.384ZM186.203 190.504C186.203 186.472 187.475 181.72 192.515 181.72C197.555 181.72 198.827 186.472 198.827 190.504C198.827 194.536 197.555 199.288 192.515 199.288C187.475 199.288 186.203 194.536 186.203 190.504ZM189.803 190.504C189.803 192.28 189.923 195.976 192.515 195.976C195.107 195.976 195.227 192.28 195.227 190.504C195.227 188.728 195.107 185.032 192.515 185.032C189.923 185.032 189.803 188.728 189.803 190.504ZM200.406 190.504C200.406 186.472 201.678 181.72 206.718 181.72C211.758 181.72 213.03 186.472 213.03 190.504C213.03 194.536 211.758 199.288 206.718 199.288C201.678 199.288 200.406 194.536 200.406 190.504ZM204.006 190.504C204.006 192.28 204.126 195.976 206.718 195.976C209.31 195.976 209.43 192.28 209.43 190.504C209.43 188.728 209.31 185.032 206.718 185.032C204.126 185.032 204.006 188.728 204.006 190.504ZM215.233 193.24V190.216H220.297V185.152H223.321V190.216H228.385V193.24H223.321V198.304H220.297V193.24H215.233Z" fill="black"/>
<defs>
<filter id="filter0_d_2120_1129" x="78.1471" y="76.6471" width="234.706" height="234.706" filterUnits="userSpaceOnUse" color-interpolation-filters="sRGB">
<feFlood flood-opacity="0" result="BackgroundImageFix"/>
<feColorMatrix in="SourceAlpha" type="matrix" values="0 0 0 0 0 0 0 0 0 0 0 0 0 0 0 0 0 0 127 0" result="hardAlpha"/>
<feOffset/>
<feGaussianBlur stdDeviation="1.67647"/>
<feComposite in2="hardAlpha" operator="out"/>
<feColorMatrix type="matrix" values="0 0 0 0 0 0 0 0 0 0 0 0 0 0 0 0 0 0 0.25 0"/>
<feBlend mode="normal" in2="BackgroundImageFix" result="effect1_dropShadow_2120_1129"/>
<feBlend mode="normal" in="SourceGraphic" in2="effect1_dropShadow_2120_1129" result="shape"/>
</filter>
<clipPath id="clip0_2120_1129">
<rect width="30" height="30" fill="white" transform="translate(180.5 138)"/>
</clipPath>
</defs>
</svg>
