<svg width="285" height="254" viewBox="0 0 285 254" fill="none" xmlns="http://www.w3.org/2000/svg">
<g filter="url(#filter0_d_2120_1385)">
<rect x="4.5" y="4" width="276" height="246" rx="20" fill="white"/>
<path d="M30.3922 221.257V228.53H28.8546V222.717H28.812L27.1465 223.761V222.397L28.9469 221.257H30.3922ZM34.9723 228.69C34.3615 228.687 33.8359 228.537 33.3956 228.239C32.9576 227.94 32.6203 227.508 32.3835 226.942C32.1491 226.377 32.0331 225.696 32.0355 224.901C32.0355 224.107 32.1527 223.432 32.3871 222.873C32.6238 222.314 32.9612 221.889 33.3991 221.598C33.8395 221.304 34.3639 221.158 34.9723 221.158C35.5807 221.158 36.1039 221.304 36.5419 221.598C36.9822 221.892 37.3208 222.318 37.5575 222.876C37.7943 223.433 37.9115 224.107 37.9091 224.901C37.9091 225.698 37.7907 226.38 37.554 226.946C37.3196 227.512 36.9834 227.944 36.5455 228.242C36.1075 228.54 35.5831 228.69 34.9723 228.69ZM34.9723 227.415C35.389 227.415 35.7216 227.205 35.9702 226.786C36.2188 226.367 36.3419 225.739 36.3395 224.901C36.3395 224.349 36.2827 223.89 36.169 223.523C36.0578 223.156 35.8991 222.88 35.6932 222.695C35.4896 222.511 35.2493 222.418 34.9723 222.418C34.558 222.418 34.2266 222.625 33.978 223.04C33.7294 223.454 33.6039 224.074 33.6016 224.901C33.6016 225.459 33.6572 225.926 33.7685 226.3C33.8821 226.671 34.0419 226.951 34.2479 227.138C34.4538 227.322 34.6953 227.415 34.9723 227.415Z" fill="black"/>
<path d="M74.0123 221.257V228.53H72.4747V222.717H72.4321L70.7666 223.761V222.397L72.567 221.257H74.0123ZM78.9049 221.257V228.53H77.3673V222.717H77.3247L75.6592 223.761V222.397L77.4596 221.257H78.9049Z" fill="black"/>
<path d="M115.632 221.257V228.53H114.095V222.717H114.052L112.387 223.761V222.397L114.187 221.257H115.632ZM117.361 228.53V227.422L119.95 225.025C120.17 224.812 120.355 224.62 120.504 224.45C120.655 224.279 120.77 224.112 120.848 223.949C120.926 223.783 120.965 223.604 120.965 223.413C120.965 223.2 120.917 223.016 120.82 222.862C120.723 222.706 120.59 222.586 120.422 222.504C120.254 222.418 120.063 222.376 119.85 222.376C119.628 222.376 119.434 222.421 119.268 222.511C119.102 222.601 118.974 222.73 118.884 222.898C118.794 223.066 118.749 223.266 118.749 223.498H117.29C117.29 223.022 117.398 222.609 117.613 222.258C117.829 221.908 118.13 221.637 118.519 221.445C118.907 221.254 119.354 221.158 119.861 221.158C120.382 221.158 120.835 221.25 121.221 221.435C121.609 221.617 121.911 221.87 122.127 222.195C122.342 222.519 122.45 222.891 122.45 223.31C122.45 223.584 122.395 223.855 122.286 224.123C122.18 224.39 121.989 224.687 121.715 225.014C121.44 225.338 121.053 225.728 120.553 226.182L119.492 227.223V227.273H122.546V228.53H117.361Z" fill="black"/>
<path d="M159.252 221.257V228.53H157.714V222.717H157.671L156.006 223.761V222.397L157.806 221.257H159.252ZM163.668 228.629C163.138 228.629 162.666 228.538 162.251 228.356C161.839 228.171 161.514 227.918 161.275 227.596C161.038 227.271 160.916 226.897 160.909 226.474H162.457C162.467 226.651 162.525 226.807 162.631 226.942C162.74 227.075 162.885 227.178 163.065 227.251C163.245 227.325 163.447 227.361 163.672 227.361C163.906 227.361 164.113 227.32 164.293 227.237C164.473 227.154 164.614 227.039 164.716 226.893C164.818 226.746 164.869 226.577 164.869 226.385C164.869 226.191 164.814 226.019 164.705 225.87C164.599 225.718 164.445 225.6 164.244 225.515C164.045 225.43 163.808 225.387 163.533 225.387H162.855V224.258H163.533C163.765 224.258 163.97 224.218 164.148 224.137C164.328 224.057 164.467 223.945 164.567 223.803C164.666 223.659 164.716 223.491 164.716 223.299C164.716 223.117 164.672 222.957 164.585 222.82C164.499 222.68 164.379 222.571 164.222 222.493C164.068 222.415 163.888 222.376 163.683 222.376C163.474 222.376 163.284 222.414 163.111 222.489C162.938 222.563 162.799 222.668 162.695 222.805C162.591 222.943 162.536 223.104 162.528 223.288H161.055C161.062 222.869 161.181 222.5 161.413 222.18C161.645 221.861 161.958 221.611 162.351 221.431C162.746 221.249 163.192 221.158 163.69 221.158C164.192 221.158 164.631 221.249 165.007 221.431C165.384 221.613 165.676 221.86 165.884 222.17C166.095 222.477 166.199 222.823 166.197 223.207C166.199 223.614 166.072 223.954 165.817 224.226C165.563 224.498 165.233 224.671 164.826 224.744V224.801C165.361 224.87 165.768 225.056 166.048 225.359C166.329 225.659 166.469 226.036 166.467 226.488C166.469 226.902 166.349 227.27 166.108 227.592C165.869 227.914 165.539 228.168 165.117 228.352C164.696 228.537 164.213 228.629 163.668 228.629Z" fill="black"/>
<path d="M202.872 221.257V228.53H201.334V222.717H201.291L199.626 223.761V222.397L201.426 221.257H202.872ZM204.49 227.251V226.04L207.526 221.257H208.57V222.933H207.953L206.038 225.962V226.019H210.353V227.251H204.49ZM207.981 228.53V226.882L208.009 226.346V221.257H209.451V228.53H207.981Z" fill="black"/>
<path d="M23.446 28.1662L25.2038 33.6918H25.2713L27.0327 28.1662H28.7372L26.2301 35.439H24.2486L21.7379 28.1662H23.446ZM29.5842 35.439V29.9844H31.0969V35.439H29.5842ZM30.3441 29.2813C30.1192 29.2813 29.9263 29.2067 29.7653 29.0576C29.6067 28.9061 29.5273 28.7249 29.5273 28.5142C29.5273 28.3059 29.6067 28.1272 29.7653 27.978C29.9263 27.8265 30.1192 27.7508 30.3441 27.7508C30.569 27.7508 30.7608 27.8265 30.9194 27.978C31.0804 28.1272 31.1609 28.3059 31.1609 28.5142C31.1609 28.7249 31.0804 28.9061 30.9194 29.0576C30.7608 29.2067 30.569 29.2813 30.3441 29.2813ZM34.7946 35.5455C34.2335 35.5455 33.7505 35.4319 33.3457 35.2046C32.9432 34.9749 32.6331 34.6506 32.4153 34.2316C32.1975 33.8102 32.0886 33.3118 32.0886 32.7365C32.0886 32.1755 32.1975 31.683 32.4153 31.2593C32.6331 30.8355 32.9397 30.5053 33.335 30.2685C33.7328 30.0318 34.1992 29.9134 34.7342 29.9134C35.094 29.9134 35.429 29.9714 35.7392 30.0874C36.0517 30.201 36.3239 30.3727 36.5559 30.6023C36.7903 30.832 36.9726 31.1208 37.1028 31.4688C37.233 31.8144 37.2981 32.2193 37.2981 32.6833V33.0988H32.6923V32.1613H35.8741C35.8741 31.9435 35.8268 31.7505 35.7321 31.5824C35.6374 31.4143 35.506 31.283 35.3379 31.1883C35.1722 31.0912 34.9792 31.0427 34.7591 31.0427C34.5294 31.0427 34.3258 31.0959 34.1483 31.2025C33.9731 31.3066 33.8358 31.4475 33.7363 31.625C33.6369 31.8002 33.586 31.9955 33.5836 32.211V33.1023C33.5836 33.3722 33.6333 33.6054 33.7328 33.8019C33.8346 33.9984 33.9778 34.1499 34.1625 34.2564C34.3471 34.363 34.5661 34.4162 34.8194 34.4162C34.9875 34.4162 35.1414 34.3926 35.2811 34.3452C35.4208 34.2979 35.5403 34.2268 35.6397 34.1321C35.7392 34.0374 35.8149 33.9214 35.867 33.7841L37.2662 33.8765C37.1951 34.2126 37.0495 34.5062 36.8294 34.7571C36.6116 35.0057 36.3298 35.1999 35.9842 35.3395C35.6409 35.4768 35.2444 35.5455 34.7946 35.5455ZM39.3223 35.439L37.8379 29.9844H39.3684L40.2136 33.6492H40.2633L41.144 29.9844H42.6461L43.541 33.6279H43.5872L44.4181 29.9844H45.9451L44.4643 35.439H42.8627L41.9252 32.0086H41.8578L40.9203 35.439H39.3223ZM51.2905 31.5398L49.9055 31.625C49.8819 31.5067 49.831 31.4001 49.7528 31.3054C49.6747 31.2084 49.5717 31.1314 49.4439 31.0746C49.3184 31.0154 49.1681 30.9858 48.9929 30.9858C48.7585 30.9858 48.5608 31.0356 48.3999 31.135C48.2389 31.2321 48.1584 31.3623 48.1584 31.5256C48.1584 31.6558 48.2105 31.7659 48.3146 31.8559C48.4188 31.9458 48.5975 32.018 48.8509 32.0725L49.8381 32.2714C50.3684 32.3803 50.7637 32.5554 51.0241 32.7969C51.2846 33.0384 51.4148 33.3556 51.4148 33.7486C51.4148 34.1061 51.3094 34.4198 51.0987 34.6897C50.8904 34.9596 50.6039 35.1703 50.2393 35.3218C49.8771 35.4709 49.4593 35.5455 48.9858 35.5455C48.2637 35.5455 47.6884 35.3952 47.2599 35.0945C46.8338 34.7915 46.584 34.3795 46.5107 33.8587L47.9986 33.7806C48.0436 34.0008 48.1525 34.1688 48.3253 34.2848C48.4981 34.3985 48.7195 34.4553 48.9893 34.4553C49.2545 34.4553 49.4676 34.4044 49.6286 34.3026C49.7919 34.1984 49.8748 34.0647 49.8771 33.9013C49.8748 33.764 49.8168 33.6516 49.7031 33.564C49.5895 33.474 49.4143 33.4053 49.1776 33.358L48.233 33.1698C47.7003 33.0633 47.3037 32.8786 47.0433 32.6158C46.7853 32.353 46.6562 32.018 46.6562 31.6108C46.6562 31.2605 46.7509 30.9586 46.9403 30.7053C47.1321 30.452 47.4008 30.2567 47.7464 30.1194C48.0945 29.9821 48.5017 29.9134 48.968 29.9134C49.657 29.9134 50.1991 30.059 50.5945 30.3502C50.9922 30.6414 51.2242 31.0379 51.2905 31.5398Z" fill="#828282"/>
<path d="M246.492 221.257V228.53H244.954V222.717H244.912L243.246 223.761V222.397L245.047 221.257H246.492ZM250.877 228.629C250.375 228.629 249.927 228.537 249.534 228.352C249.144 228.168 248.834 227.913 248.604 227.589C248.374 227.264 248.255 226.893 248.245 226.474H249.737C249.753 226.755 249.872 226.984 250.092 227.159C250.312 227.334 250.574 227.422 250.877 227.422C251.118 227.422 251.331 227.369 251.516 227.262C251.703 227.153 251.848 227.003 251.953 226.811C252.059 226.617 252.112 226.394 252.112 226.143C252.112 225.888 252.058 225.663 251.949 225.469C251.843 225.275 251.695 225.123 251.505 225.014C251.316 224.905 251.099 224.85 250.855 224.847C250.642 224.847 250.435 224.891 250.234 224.979C250.035 225.066 249.88 225.186 249.769 225.337L248.401 225.092L248.746 221.257H253.192V222.514H250.014L249.825 224.336H249.868C249.996 224.156 250.189 224.007 250.447 223.888C250.705 223.77 250.994 223.711 251.313 223.711C251.751 223.711 252.142 223.814 252.485 224.02C252.829 224.226 253.1 224.509 253.298 224.869C253.497 225.226 253.596 225.638 253.593 226.104C253.596 226.594 253.482 227.03 253.252 227.411C253.025 227.79 252.707 228.088 252.297 228.306C251.89 228.521 251.416 228.629 250.877 228.629Z" fill="black"/>
<path d="M111.259 64V55.2727H114.702C115.364 55.2727 115.928 55.3991 116.393 55.652C116.859 55.902 117.214 56.25 117.459 56.696C117.706 57.1392 117.83 57.6506 117.83 58.2301C117.83 58.8097 117.705 59.321 117.455 59.7642C117.205 60.2074 116.842 60.5526 116.368 60.7997C115.896 61.0469 115.325 61.1705 114.655 61.1705H112.46V59.6918H114.357C114.712 59.6918 115.004 59.6307 115.234 59.5085C115.467 59.3835 115.641 59.2116 115.754 58.9929C115.871 58.7713 115.929 58.517 115.929 58.2301C115.929 57.9403 115.871 57.6875 115.754 57.4716C115.641 57.2528 115.467 57.0838 115.234 56.9645C115.001 56.8423 114.706 56.7812 114.348 56.7812H113.104V64H111.259ZM120.685 64.1236C120.267 64.1236 119.895 64.0511 119.568 63.9062C119.241 63.7585 118.983 63.5412 118.793 63.2543C118.605 62.9645 118.511 62.6037 118.511 62.1719C118.511 61.8082 118.578 61.5028 118.712 61.2557C118.845 61.0085 119.027 60.8097 119.257 60.6591C119.487 60.5085 119.749 60.3949 120.041 60.3182C120.337 60.2415 120.646 60.1875 120.97 60.1562C121.351 60.1165 121.658 60.0795 121.891 60.0455C122.124 60.0085 122.293 59.9545 122.398 59.8835C122.503 59.8125 122.555 59.7074 122.555 59.5682V59.5426C122.555 59.2727 122.47 59.0639 122.3 58.9162C122.132 58.7685 121.893 58.6946 121.584 58.6946C121.257 58.6946 120.997 58.767 120.804 58.9119C120.611 59.054 120.483 59.233 120.42 59.4489L118.741 59.3125C118.827 58.9148 118.994 58.571 119.244 58.2812C119.494 57.9886 119.817 57.7642 120.212 57.608C120.609 57.4489 121.07 57.3693 121.592 57.3693C121.956 57.3693 122.304 57.4119 122.636 57.4972C122.972 57.5824 123.268 57.7145 123.527 57.8935C123.788 58.0724 123.994 58.3026 124.145 58.5838C124.295 58.8622 124.371 59.196 124.371 59.5852V64H122.649V63.0923H122.598C122.493 63.2969 122.352 63.4773 122.176 63.6335C122 63.7869 121.788 63.9077 121.541 63.9957C121.294 64.081 121.009 64.1236 120.685 64.1236ZM121.205 62.8707C121.472 62.8707 121.707 62.8182 121.912 62.7131C122.116 62.6051 122.277 62.4602 122.393 62.2784C122.51 62.0966 122.568 61.8906 122.568 61.6605V60.9659C122.511 61.0028 122.433 61.0369 122.334 61.0682C122.237 61.0966 122.128 61.1236 122.006 61.1491C121.884 61.1719 121.761 61.1932 121.639 61.2131C121.517 61.2301 121.406 61.2457 121.307 61.2599C121.094 61.2912 120.908 61.3409 120.749 61.4091C120.589 61.4773 120.466 61.5696 120.378 61.6861C120.29 61.7997 120.246 61.9418 120.246 62.1122C120.246 62.3594 120.335 62.5483 120.514 62.679C120.696 62.8068 120.926 62.8707 121.205 62.8707ZM128.728 66.5909C128.14 66.5909 127.636 66.5099 127.215 66.348C126.798 66.1889 126.465 65.9716 126.218 65.696C125.971 65.4205 125.81 65.1108 125.737 64.767L127.415 64.5412C127.467 64.6719 127.548 64.794 127.658 64.9077C127.769 65.0213 127.915 65.1122 128.097 65.1804C128.282 65.2514 128.506 65.2869 128.771 65.2869C129.165 65.2869 129.491 65.1903 129.746 64.9972C130.005 64.8068 130.134 64.4872 130.134 64.0384V62.8409H130.058C129.978 63.0227 129.859 63.1946 129.7 63.3565C129.54 63.5185 129.336 63.6506 129.086 63.7528C128.836 63.8551 128.538 63.9062 128.191 63.9062C127.7 63.9062 127.252 63.7926 126.849 63.5653C126.448 63.3352 126.129 62.9844 125.89 62.5128C125.654 62.0384 125.536 61.4389 125.536 60.7145C125.536 59.973 125.657 59.3537 125.898 58.8565C126.14 58.3594 126.461 57.9872 126.862 57.7401C127.265 57.4929 127.707 57.3693 128.187 57.3693C128.553 57.3693 128.86 57.4318 129.107 57.5568C129.354 57.679 129.553 57.8324 129.704 58.017C129.857 58.1989 129.975 58.3778 130.058 58.554H130.126V57.4545H131.928V64.0639C131.928 64.6207 131.792 65.0866 131.519 65.4616C131.246 65.8366 130.869 66.1179 130.386 66.3054C129.906 66.4957 129.353 66.5909 128.728 66.5909ZM128.766 62.5426C129.059 62.5426 129.306 62.4702 129.508 62.3253C129.712 62.1776 129.869 61.9673 129.977 61.6946C130.087 61.419 130.143 61.0895 130.143 60.706C130.143 60.3224 130.089 59.9901 129.981 59.7088C129.873 59.4247 129.717 59.2045 129.512 59.0483C129.308 58.892 129.059 58.8139 128.766 58.8139C128.468 58.8139 128.217 58.8949 128.012 59.0568C127.808 59.2159 127.653 59.4375 127.548 59.7216C127.442 60.0057 127.39 60.3338 127.39 60.706C127.39 61.0838 127.442 61.4105 127.548 61.6861C127.656 61.9588 127.81 62.1705 128.012 62.321C128.217 62.4687 128.468 62.5426 128.766 62.5426ZM136.356 64.1278C135.683 64.1278 135.103 63.9915 134.617 63.7188C134.134 63.4432 133.762 63.054 133.501 62.5511C133.239 62.0455 133.109 61.4474 133.109 60.7571C133.109 60.0838 133.239 59.4929 133.501 58.9844C133.762 58.4759 134.13 58.0795 134.604 57.7955C135.082 57.5114 135.641 57.3693 136.283 57.3693C136.715 57.3693 137.117 57.4389 137.489 57.5781C137.864 57.7145 138.191 57.9205 138.469 58.196C138.751 58.4716 138.969 58.8182 139.126 59.2358C139.282 59.6506 139.36 60.1364 139.36 60.6932V61.1918H133.833V60.0668H137.651C137.651 59.8054 137.594 59.5739 137.481 59.3722C137.367 59.1705 137.21 59.0128 137.008 58.8991C136.809 58.7827 136.577 58.7244 136.313 58.7244C136.038 58.7244 135.793 58.7884 135.58 58.9162C135.37 59.0412 135.205 59.2102 135.086 59.4233C134.967 59.6335 134.906 59.8679 134.903 60.1264V61.196C134.903 61.5199 134.962 61.7997 135.082 62.0355C135.204 62.2713 135.376 62.4531 135.597 62.581C135.819 62.7088 136.082 62.7727 136.386 62.7727C136.587 62.7727 136.772 62.7443 136.94 62.6875C137.107 62.6307 137.251 62.5455 137.37 62.4318C137.489 62.3182 137.58 62.179 137.643 62.0142L139.322 62.125C139.237 62.5284 139.062 62.8807 138.798 63.1818C138.536 63.4801 138.198 63.7131 137.783 63.8807C137.371 64.0455 136.896 64.1278 136.356 64.1278ZM145.991 59.321L144.329 59.4233C144.3 59.2812 144.239 59.1534 144.146 59.0398C144.052 58.9233 143.928 58.831 143.775 58.7628C143.624 58.6918 143.444 58.6562 143.234 58.6562C142.952 58.6562 142.715 58.7159 142.522 58.8352C142.329 58.9517 142.232 59.108 142.232 59.304C142.232 59.4602 142.295 59.5923 142.42 59.7003C142.545 59.8082 142.759 59.8949 143.063 59.9602L144.248 60.1989C144.884 60.3295 145.359 60.5398 145.671 60.8295C145.984 61.1193 146.14 61.5 146.14 61.9716C146.14 62.4006 146.013 62.777 145.761 63.1009C145.511 63.4247 145.167 63.6776 144.729 63.8594C144.295 64.0384 143.793 64.1278 143.225 64.1278C142.359 64.1278 141.668 63.9474 141.154 63.5866C140.643 63.223 140.343 62.7287 140.255 62.1037L142.04 62.0099C142.094 62.2741 142.225 62.4759 142.433 62.6151C142.64 62.7514 142.906 62.8196 143.229 62.8196C143.548 62.8196 143.803 62.7585 143.996 62.6364C144.192 62.5114 144.292 62.3509 144.295 62.1548C144.292 61.9901 144.222 61.8551 144.086 61.75C143.95 61.642 143.739 61.5597 143.455 61.5028L142.322 61.277C141.683 61.1491 141.207 60.9276 140.894 60.6122C140.585 60.2969 140.43 59.8949 140.43 59.4062C140.43 58.9858 140.543 58.6236 140.771 58.3196C141.001 58.0156 141.323 57.7812 141.738 57.6165C142.156 57.4517 142.644 57.3693 143.204 57.3693C144.031 57.3693 144.681 57.544 145.156 57.8935C145.633 58.2429 145.911 58.7187 145.991 59.321ZM156.163 57.4545L153.874 64H151.829L149.54 57.4545H151.458L152.817 62.1378H152.886L154.241 57.4545H156.163ZM157.092 64V57.4545H158.907V64H157.092ZM158.004 56.6108C157.734 56.6108 157.502 56.5213 157.309 56.3423C157.119 56.1605 157.023 55.9432 157.023 55.6903C157.023 55.4403 157.119 55.2259 157.309 55.0469C157.502 54.8651 157.734 54.7741 158.004 54.7741C158.273 54.7741 158.504 54.8651 158.694 55.0469C158.887 55.2259 158.984 55.4403 158.984 55.6903C158.984 55.9432 158.887 56.1605 158.694 56.3423C158.504 56.5213 158.273 56.6108 158.004 56.6108ZM163.344 64.1278C162.671 64.1278 162.091 63.9915 161.605 63.7188C161.123 63.4432 160.75 63.054 160.489 62.5511C160.228 62.0455 160.097 61.4474 160.097 60.7571C160.097 60.0838 160.228 59.4929 160.489 58.9844C160.75 58.4759 161.118 58.0795 161.593 57.7955C162.07 57.5114 162.63 57.3693 163.272 57.3693C163.703 57.3693 164.105 57.4389 164.478 57.5781C164.853 57.7145 165.179 57.9205 165.458 58.196C165.739 58.4716 165.958 58.8182 166.114 59.2358C166.27 59.6506 166.348 60.1364 166.348 60.6932V61.1918H160.821V60.0668H164.64C164.64 59.8054 164.583 59.5739 164.469 59.3722C164.355 59.1705 164.198 59.0128 163.996 58.8991C163.797 58.7827 163.566 58.7244 163.301 58.7244C163.026 58.7244 162.782 58.7884 162.569 58.9162C162.358 59.0412 162.194 59.2102 162.074 59.4233C161.955 59.6335 161.894 59.8679 161.891 60.1264V61.196C161.891 61.5199 161.951 61.7997 162.07 62.0355C162.192 62.2713 162.364 62.4531 162.586 62.581C162.807 62.7088 163.07 62.7727 163.374 62.7727C163.576 62.7727 163.76 62.7443 163.928 62.6875C164.096 62.6307 164.239 62.5455 164.358 62.4318C164.478 62.3182 164.569 62.179 164.631 62.0142L166.31 62.125C166.225 62.5284 166.05 62.8807 165.786 63.1818C165.525 63.4801 165.186 63.7131 164.772 63.8807C164.36 64.0455 163.884 64.1278 163.344 64.1278ZM168.777 64L166.996 57.4545H168.833L169.847 61.8523H169.907L170.963 57.4545H172.766L173.84 61.8267H173.895L174.892 57.4545H176.725L174.948 64H173.026L171.901 59.8835H171.82L170.695 64H168.777ZM183.139 59.321L181.477 59.4233C181.449 59.2812 181.388 59.1534 181.294 59.0398C181.2 58.9233 181.077 58.831 180.923 58.7628C180.773 58.6918 180.592 58.6562 180.382 58.6562C180.101 58.6562 179.864 58.7159 179.67 58.8352C179.477 58.9517 179.381 59.108 179.381 59.304C179.381 59.4602 179.443 59.5923 179.568 59.7003C179.693 59.8082 179.908 59.8949 180.212 59.9602L181.396 60.1989C182.033 60.3295 182.507 60.5398 182.82 60.8295C183.132 61.1193 183.288 61.5 183.288 61.9716C183.288 62.4006 183.162 62.777 182.909 63.1009C182.659 63.4247 182.315 63.6776 181.878 63.8594C181.443 64.0384 180.942 64.1278 180.374 64.1278C179.507 64.1278 178.817 63.9474 178.303 63.5866C177.791 63.223 177.491 62.7287 177.403 62.1037L179.189 62.0099C179.243 62.2741 179.374 62.4759 179.581 62.6151C179.788 62.7514 180.054 62.8196 180.378 62.8196C180.696 62.8196 180.952 62.7585 181.145 62.6364C181.341 62.5114 181.44 62.3509 181.443 62.1548C181.44 61.9901 181.371 61.8551 181.234 61.75C181.098 61.642 180.888 61.5597 180.604 61.5028L179.47 61.277C178.831 61.1491 178.355 60.9276 178.043 60.6122C177.733 60.2969 177.578 59.8949 177.578 59.4062C177.578 58.9858 177.692 58.6236 177.919 58.3196C178.149 58.0156 178.472 57.7812 178.886 57.6165C179.304 57.4517 179.793 57.3693 180.352 57.3693C181.179 57.3693 181.83 57.544 182.304 57.8935C182.781 58.2429 183.06 58.7187 183.139 59.321Z" fill="black"/>
<line opacity="0.5" x1="21.25" y1="207" x2="21.25" y2="80" stroke="#ADADAD" stroke-width="0.5"/>
<line opacity="0.5" x1="167.25" y1="207" x2="167.25" y2="83" stroke="#ADADAD" stroke-width="0.5"/>
<line opacity="0.5" x1="70.25" y1="207" x2="70.25" y2="83" stroke="#ADADAD" stroke-width="0.5"/>
<line x1="216.25" y1="207" x2="216.25" y2="83" stroke="#ADADAD" stroke-width="0.5"/>
<line opacity="0.5" x1="119.25" y1="207" x2="119.25" y2="83" stroke="#ADADAD" stroke-width="0.5"/>
<line opacity="0.5" x1="265.25" y1="207" x2="265.25" y2="83" stroke="#ADADAD" stroke-width="0.5"/>
<path d="M30.5085 42.9844V60.439H26.8182V46.4873H26.7159L22.7188 48.9929V45.7202L27.0398 42.9844H30.5085ZM41.5007 60.8225C40.0348 60.8168 38.7734 60.456 37.7166 59.7401C36.6655 59.0242 35.8558 57.9873 35.2876 56.6293C34.7251 55.2714 34.4467 53.6378 34.4524 51.7287C34.4524 49.8253 34.7337 48.2032 35.2962 46.8623C35.8643 45.5214 36.674 44.5015 37.7251 43.8026C38.782 43.0981 40.0405 42.7458 41.5007 42.7458C42.9609 42.7458 44.2166 43.0981 45.2678 43.8026C46.3246 44.5071 47.1371 45.5299 47.7053 46.8708C48.2734 48.206 48.5547 49.8253 48.549 51.7287C48.549 53.6435 48.2649 55.2799 47.6967 56.6378C47.1342 57.9958 46.3274 59.0327 45.2763 59.7486C44.2251 60.4645 42.9666 60.8225 41.5007 60.8225ZM41.5007 57.7628C42.5007 57.7628 43.299 57.26 43.8956 56.2543C44.4922 55.2486 44.7876 53.7401 44.782 51.7287C44.782 50.4049 44.6456 49.3026 44.3729 48.4219C44.1058 47.5412 43.7251 46.8793 43.2308 46.4361C42.7422 45.9929 42.1655 45.7714 41.5007 45.7714C40.5064 45.7714 39.7109 46.2685 39.1143 47.2628C38.5178 48.2571 38.2166 49.7458 38.2109 51.7287C38.2109 53.0696 38.3445 54.189 38.6115 55.0867C38.8842 55.9787 39.2678 56.6492 39.7621 57.0981C40.2564 57.5412 40.8359 57.7628 41.5007 57.7628ZM58.0241 60.8225C56.5582 60.8168 55.2969 60.456 54.2401 59.7401C53.1889 59.0242 52.3793 57.9873 51.8111 56.6293C51.2486 55.2714 50.9702 53.6378 50.9759 51.7287C50.9759 49.8253 51.2571 48.2032 51.8196 46.8623C52.3878 45.5214 53.1974 44.5015 54.2486 43.8026C55.3054 43.0981 56.5639 42.7458 58.0241 42.7458C59.4844 42.7458 60.7401 43.0981 61.7912 43.8026C62.848 44.5071 63.6605 45.5299 64.2287 46.8708C64.7969 48.206 65.0781 49.8253 65.0724 51.7287C65.0724 53.6435 64.7884 55.2799 64.2202 56.6378C63.6577 57.9958 62.8509 59.0327 61.7997 59.7486C60.7486 60.4645 59.4901 60.8225 58.0241 60.8225ZM58.0241 57.7628C59.0241 57.7628 59.8224 57.26 60.419 56.2543C61.0156 55.2486 61.3111 53.7401 61.3054 51.7287C61.3054 50.4049 61.169 49.3026 60.8963 48.4219C60.6293 47.5412 60.2486 46.8793 59.7543 46.4361C59.2656 45.9929 58.6889 45.7714 58.0241 45.7714C57.0298 45.7714 56.2344 46.2685 55.6378 47.2628C55.0412 48.2571 54.7401 49.7458 54.7344 51.7287C54.7344 53.0696 54.8679 54.189 55.1349 55.0867C55.4077 55.9787 55.7912 56.6492 56.2855 57.0981C56.7798 57.5412 57.3594 57.7628 58.0241 57.7628ZM67.8061 42.9844H72.3572L77.1641 54.7117H77.3686L82.1754 42.9844H86.7266V60.439H83.147V49.0782H83.0021L78.4851 60.3537H76.0476L71.5305 49.0356H71.3857V60.439H67.8061V42.9844ZM94.8807 57.7799V45.7117H97.9318V57.7799H94.8807ZM90.3722 53.2714V50.2202H102.44V53.2714H90.3722Z" fill="black"/>
<path d="M20.5 102.252V206H265.5V121.945C260.184 115.38 248.249 101.388 243.03 97.9326C236.506 93.6136 234.331 104.751 223.459 121.945C214.76 135.7 204.854 127.676 200.988 121.945L182.142 111.717C178.276 117.162 169.385 125.615 164.746 115.867C160.107 106.12 148.799 102.729 143.725 102.252C137.531 106.346 123.069 116.016 114.77 121.945C104.397 129.356 101.069 121.203 92.066 111.717C83.0627 102.231 73.2765 113.644 67.2091 115.867C61.1417 118.091 55.0742 107.271 53.7042 104.751C52.3341 102.231 44.3094 105.492 40.1992 104.751C36.9111 104.158 35.7022 96.6345 31.0908 97.0225L20.5 102.252Z" fill="url(#paint0_linear_2120_1385)"/>
<path d="M20.5 102.487L31.0908 97.0235C35.7022 96.6181 36.9111 104.479 40.1992 105.099C44.3094 105.873 52.3341 102.466 53.7042 105.099C55.0742 107.732 61.1417 119.037 67.2091 116.714C73.2765 114.391 83.0627 102.466 92.066 112.378C101.069 122.29 104.397 130.808 114.77 123.064C123.069 116.869 137.531 106.765 143.725 102.487C148.799 102.986 160.107 106.53 164.746 116.714C169.385 126.899 178.276 118.067 182.142 112.378L200.988 123.064C204.854 129.053 214.76 137.437 223.459 123.064C234.331 105.099 236.506 93.4616 243.03 97.9744C248.249 101.585 260.184 116.205 265.5 123.064" stroke="#F27922"/>
<rect opacity="0.5" x="167.5" y="79" width="49" height="128" fill="white"/>
<path d="M178.979 106.827V105.616L182.016 100.833H183.06V102.509H182.442L180.528 105.538V105.595H184.842V106.827H178.979ZM182.47 108.105V106.458L182.499 105.922V100.833H183.94V108.105H182.47ZM188.523 108.205C188.021 108.205 187.574 108.113 187.181 107.928C186.79 107.743 186.48 107.489 186.25 107.164C186.021 106.84 185.901 106.468 185.892 106.049H187.383C187.4 106.331 187.518 106.56 187.738 106.735C187.958 106.91 188.22 106.998 188.523 106.998C188.765 106.998 188.978 106.944 189.162 106.838C189.349 106.729 189.495 106.578 189.599 106.387C189.706 106.193 189.759 105.97 189.759 105.719C189.759 105.463 189.704 105.239 189.596 105.044C189.489 104.85 189.341 104.699 189.152 104.59C188.962 104.481 188.746 104.425 188.502 104.423C188.289 104.423 188.082 104.467 187.88 104.554C187.681 104.642 187.526 104.761 187.415 104.913L186.048 104.668L186.392 100.833H190.838V102.09H187.66L187.472 103.912H187.515C187.642 103.732 187.835 103.583 188.093 103.464C188.351 103.346 188.64 103.287 188.96 103.287C189.398 103.287 189.788 103.39 190.132 103.596C190.475 103.801 190.746 104.084 190.945 104.444C191.144 104.802 191.242 105.214 191.24 105.68C191.242 106.17 191.128 106.606 190.899 106.987C190.672 107.366 190.353 107.664 189.944 107.882C189.536 108.097 189.063 108.205 188.523 108.205ZM195.164 108.265C194.553 108.263 194.027 108.113 193.587 107.814C193.149 107.516 192.812 107.084 192.575 106.518C192.341 105.952 192.225 105.272 192.227 104.476C192.227 103.683 192.344 103.007 192.578 102.449C192.815 101.89 193.153 101.465 193.591 101.174C194.031 100.88 194.555 100.733 195.164 100.733C195.772 100.733 196.295 100.88 196.733 101.174C197.174 101.467 197.512 101.893 197.749 102.452C197.986 103.008 198.103 103.683 198.1 104.476C198.1 105.274 197.982 105.956 197.745 106.522C197.511 107.087 197.175 107.52 196.737 107.818C196.299 108.116 195.775 108.265 195.164 108.265ZM195.164 106.99C195.58 106.99 195.913 106.781 196.162 106.362C196.41 105.943 196.533 105.314 196.531 104.476C196.531 103.925 196.474 103.465 196.36 103.098C196.249 102.731 196.091 102.456 195.885 102.271C195.681 102.086 195.441 101.994 195.164 101.994C194.749 101.994 194.418 102.201 194.169 102.615C193.921 103.03 193.795 103.65 193.793 104.476C193.793 105.035 193.849 105.501 193.96 105.875C194.074 106.247 194.233 106.526 194.439 106.713C194.645 106.898 194.887 106.99 195.164 106.99ZM202.048 108.265C201.438 108.263 200.912 108.113 200.472 107.814C200.034 107.516 199.696 107.084 199.46 106.518C199.225 105.952 199.109 105.272 199.112 104.476C199.112 103.683 199.229 103.007 199.463 102.449C199.7 101.89 200.037 101.465 200.475 101.174C200.916 100.88 201.44 100.733 202.048 100.733C202.657 100.733 203.18 100.88 203.618 101.174C204.058 101.467 204.397 101.893 204.634 102.452C204.87 103.008 204.988 103.683 204.985 104.476C204.985 105.274 204.867 105.956 204.63 106.522C204.396 107.087 204.06 107.52 203.622 107.818C203.184 108.116 202.659 108.265 202.048 108.265ZM202.048 106.99C202.465 106.99 202.798 106.781 203.046 106.362C203.295 105.943 203.418 105.314 203.416 104.476C203.416 103.925 203.359 103.465 203.245 103.098C203.134 102.731 202.975 102.456 202.769 102.271C202.566 102.086 202.325 101.994 202.048 101.994C201.634 101.994 201.303 102.201 201.054 102.615C200.806 103.03 200.68 103.65 200.678 104.476C200.678 105.035 200.733 105.501 200.845 105.875C200.958 106.247 201.118 106.526 201.324 106.713C201.53 106.898 201.771 106.99 202.048 106.99Z" fill="#F27922"/>
<g clip-path="url(#clip0_2120_1385)">
<path d="M194.43 87.0013C194.43 88.0672 193.566 88.9312 192.5 88.9312C191.434 88.9312 190.57 88.0672 190.57 87.0013C190.57 85.9355 191.434 85.0714 192.5 85.0714C193.566 85.0714 194.43 85.9355 194.43 87.0013Z" fill="#F27922" stroke="#F27922" stroke-width="1.06667"/>
<path d="M185.156 86.6593L185.156 86.6594C184.992 86.8575 184.992 87.1458 185.156 87.3438L185.156 87.3439C185.617 87.9003 186.582 88.9733 187.864 89.9069L187.864 89.9069C189.477 91.0807 191.004 91.6377 192.497 91.6383C193.991 91.6389 195.52 91.0833 197.136 89.9069L197.136 89.9069C198.418 88.9734 199.383 87.9004 199.844 87.344L185.156 86.6593ZM185.156 86.6593C187.016 84.4116 189.747 82.3622 192.5 82.3622C195.253 82.3622 197.982 84.41 199.844 86.6592M185.156 86.6593L199.844 86.6592M199.844 86.6592C200.008 86.858 200.007 87.146 199.844 87.3439L199.844 86.6592ZM196.482 87.0016C196.482 84.8055 194.696 83.0198 192.5 83.0198C190.304 83.0198 188.518 84.8055 188.518 87.0016C188.518 89.1978 190.304 90.9835 192.5 90.9835C194.696 90.9835 196.482 89.1978 196.482 87.0016Z" fill="white" stroke="#F27922" stroke-width="1.06667"/>
</g>
</g>
<defs>
<filter id="filter0_d_2120_1385" x="0.5" y="0" width="284" height="254" filterUnits="userSpaceOnUse" color-interpolation-filters="sRGB">
<feFlood flood-opacity="0" result="BackgroundImageFix"/>
<feColorMatrix in="SourceAlpha" type="matrix" values="0 0 0 0 0 0 0 0 0 0 0 0 0 0 0 0 0 0 127 0" result="hardAlpha"/>
<feOffset/>
<feGaussianBlur stdDeviation="2"/>
<feComposite in2="hardAlpha" operator="out"/>
<feColorMatrix type="matrix" values="0 0 0 0 0 0 0 0 0 0 0 0 0 0 0 0 0 0 0.25 0"/>
<feBlend mode="normal" in2="BackgroundImageFix" result="effect1_dropShadow_2120_1385"/>
<feBlend mode="normal" in="SourceGraphic" in2="effect1_dropShadow_2120_1385" result="shape"/>
</filter>
<linearGradient id="paint0_linear_2120_1385" x1="143" y1="97" x2="143" y2="206" gradientUnits="userSpaceOnUse">
<stop stop-color="#F9DCAD"/>
<stop offset="1" stop-color="#F8DDB1" stop-opacity="0"/>
</linearGradient>
<clipPath id="clip0_2120_1385">
<rect width="16" height="16" fill="white" transform="translate(184.5 79)"/>
</clipPath>
</defs>
</svg>
