<svg width="34" height="33" viewBox="0 0 34 35" fill="none" xmlns="http://www.w3.org/2000/svg">
<g id="Frame" clip-path="url(#clip0_879_1969)">
<g id="Group">
<path id="Vector" d="M16.7003 19.9994C15.6132 19.9994 14.5505 19.6672 13.6466 19.045C12.7427 18.4227 12.0382 17.5382 11.6222 16.5034C11.2062 15.4686 11.0973 14.33 11.3094 13.2314C11.5215 12.1329 12.045 11.1238 12.8137 10.3318C13.5824 9.53981 14.5618 9.00045 15.628 8.78194C16.6942 8.56342 17.7994 8.67557 18.8038 9.1042C19.8081 9.53283 20.6666 10.2587 21.2706 11.19C21.8745 12.1213 22.1969 13.2162 22.1969 14.3362C22.1942 15.8373 21.6142 17.2761 20.584 18.3376C19.5538 19.399 18.1573 19.9966 16.7003 19.9994ZM16.7003 10.9362C16.0477 10.9362 15.4096 11.1357 14.867 11.5092C14.3243 11.8828 13.9013 12.4139 13.6515 13.0351C13.4018 13.6564 13.3364 14.34 13.4637 14.9996C13.5911 15.6591 13.9054 16.2649 14.3669 16.7404C14.8284 17.2159 15.4164 17.5397 16.0565 17.6709C16.6967 17.8021 17.3602 17.7348 17.9632 17.4774C18.5662 17.2201 19.0816 16.7843 19.4442 16.2252C19.8068 15.6661 20.0003 15.0087 20.0003 14.3362C20.0003 13.4345 19.6527 12.5697 19.0338 11.9321C18.4149 11.2945 17.5756 10.9362 16.7003 10.9362ZM27.7038 21.1362C26.8329 21.1362 25.9815 20.8702 25.2574 20.3716C24.5332 19.8731 23.9688 19.1646 23.6355 18.3356C23.3022 17.5066 23.215 16.5943 23.3849 15.7143C23.5549 14.8342 23.9742 14.0258 24.5901 13.3913C25.2059 12.7568 25.9905 12.3247 26.8447 12.1497C27.6989 11.9746 28.5843 12.0645 29.3889 12.4078C30.1935 12.7512 30.8812 13.3327 31.3651 14.0788C31.849 14.8249 32.1072 15.7021 32.1072 16.5994C32.1072 17.8026 31.6433 18.9566 30.8175 19.8074C29.9917 20.6583 28.8716 21.1362 27.7038 21.1362ZM27.7038 14.3362C27.2693 14.3362 26.8447 14.469 26.4834 14.7177C26.1222 14.9663 25.8407 15.3198 25.6744 15.7333C25.5082 16.1468 25.4647 16.6019 25.5494 17.0409C25.6342 17.4799 25.8434 17.8831 26.1506 18.1996C26.4578 18.5161 26.8492 18.7317 27.2752 18.819C27.7013 18.9063 28.143 18.8615 28.5444 18.6902C28.9457 18.5189 29.2888 18.2289 29.5301 17.8567C29.7715 17.4845 29.9003 17.047 29.9003 16.5994C29.8976 16 29.6653 15.426 29.254 15.0022C28.8426 14.5784 28.2855 14.339 27.7038 14.3362ZM5.6969 21.1362C4.82598 21.1362 3.97462 20.8702 3.25048 20.3716C2.52634 19.8731 1.96194 19.1646 1.62865 18.3356C1.29537 17.5066 1.20816 16.5943 1.37807 15.7143C1.54798 14.8342 1.96737 14.0258 2.5832 13.3913C3.19903 12.7568 3.98365 12.3247 4.83783 12.1497C5.69201 11.9746 6.5774 12.0645 7.38202 12.4078C8.18664 12.7512 8.87437 13.3327 9.35822 14.0788C9.84208 14.8249 10.1003 15.7021 10.1003 16.5994C10.1003 17.8026 9.6364 18.9566 8.8106 19.8074C7.98479 20.6583 6.86476 21.1362 5.6969 21.1362ZM5.6969 14.3362C5.26246 14.3362 4.83778 14.469 4.47655 14.7177C4.11533 14.9663 3.83379 15.3198 3.66754 15.7333C3.50129 16.1468 3.45779 16.6019 3.54254 17.0409C3.6273 17.4799 3.8365 17.8831 4.14369 18.1996C4.45089 18.5161 4.84228 18.7317 5.26837 18.819C5.69446 18.9063 6.13612 18.8615 6.53749 18.6902C6.93886 18.5189 7.28191 18.2289 7.52327 17.8567C7.76464 17.4845 7.89346 17.047 7.89346 16.5994C7.89075 16 7.65846 15.426 7.24711 15.0022C6.83576 14.5784 6.27863 14.339 5.6969 14.3362ZM23.3003 28.8606C23.0216 28.8586 22.7539 28.7478 22.5511 28.5507C22.3483 28.3536 22.2254 28.0847 22.2072 27.7981C22.1149 26.825 21.6739 25.9222 20.9702 25.266C20.2666 24.6098 19.3509 24.2474 18.4019 24.2494H14.9988C14.0497 24.2474 13.134 24.6098 12.4304 25.266C11.7268 25.9222 11.2858 26.825 11.1935 27.7981C11.1406 28.0757 10.9893 28.323 10.7689 28.4918C10.5486 28.6605 10.2751 28.7386 10.0019 28.7107C9.72865 28.6828 9.47534 28.551 9.29141 28.341C9.10748 28.131 9.00615 27.8579 9.00721 27.575C9.16542 26.0535 9.86555 24.6464 10.9722 23.6259C12.0789 22.6054 13.5136 22.0439 14.9988 22.05H18.4019C19.8967 22.0455 21.3394 22.6159 22.4476 23.6496C23.5557 24.6832 24.2496 26.1057 24.3935 27.6387C24.4076 27.7907 24.3919 27.9439 24.3473 28.0895C24.3027 28.235 24.2301 28.3697 24.1339 28.4858C24.0376 28.6018 23.9197 28.6966 23.7871 28.7647C23.6546 28.8327 23.51 28.8726 23.3622 28.8819L23.3003 28.8606ZM32.0969 28.0956C31.8181 28.0936 31.5504 27.9828 31.3476 27.7857C31.1449 27.5886 31.022 27.3197 31.0038 27.0331C30.9522 26.4771 30.7 25.9612 30.2971 25.5874C29.8943 25.2137 29.37 25.0092 28.8278 25.0144H26.5591C26.3427 25.0154 26.1275 25.0476 25.9197 25.11C25.7759 25.193 25.6158 25.2417 25.4513 25.2526C25.2868 25.2635 25.122 25.2363 24.9691 25.173C24.8161 25.1096 24.6789 25.0118 24.5674 24.8867C24.456 24.7615 24.3732 24.6122 24.3251 24.4498C24.277 24.2873 24.2648 24.1158 24.2895 23.9479C24.3142 23.78 24.3751 23.6199 24.4677 23.4793C24.5603 23.3388 24.6823 23.2215 24.8247 23.136C24.9671 23.0504 25.1263 22.9988 25.2906 22.985C25.7025 22.8594 26.1296 22.795 26.5591 22.7937H28.8278C29.9169 22.7858 30.9694 23.1979 31.7785 23.9489C32.5876 24.7 33.0948 25.7357 33.2003 26.8525C33.2145 27.0044 33.1987 27.1577 33.1541 27.3032C33.1095 27.4487 33.037 27.5835 32.9407 27.6995C32.8445 27.8155 32.7266 27.9104 32.594 27.9784C32.4614 28.0465 32.3169 28.0863 32.1691 28.0956H32.0969ZM1.30377 28.0956H1.23159C1.08375 28.0863 0.939235 28.0465 0.806665 27.9784C0.674095 27.9104 0.556179 27.8155 0.459947 27.6995C0.363714 27.5835 0.291134 27.4487 0.246532 27.3032C0.20193 27.1577 0.186219 27.0044 0.200336 26.8525C0.30571 25.7375 0.811416 24.7033 1.61835 23.9525C2.42528 23.2017 3.47526 22.7885 4.56252 22.7937H6.83127C7.26076 22.795 7.68787 22.8594 8.09971 22.985C8.26401 22.9988 8.42322 23.0504 8.56563 23.136C8.70804 23.2215 8.83004 23.3388 8.92265 23.4793C9.01527 23.6199 9.07616 23.78 9.10084 23.9479C9.12552 24.1158 9.11337 24.2873 9.06528 24.4498C9.01719 24.6122 8.93438 24.7615 8.82294 24.8867C8.71149 25.0118 8.57425 25.1096 8.42129 25.173C8.26833 25.2363 8.10354 25.2635 7.93903 25.2526C7.77452 25.2417 7.61448 25.193 7.47065 25.11C7.2629 25.0476 7.04768 25.0154 6.83127 25.0144H4.56252C4.0204 25.0092 3.49611 25.2137 3.09323 25.5874C2.69035 25.9612 2.4382 26.4771 2.38659 27.0331C2.3685 27.3179 2.2471 27.5853 2.04649 27.7822C1.84589 27.979 1.58076 28.0909 1.30377 28.0956Z" fill="#F27922"/>
</g>
<path id="Vector_2" d="M20.5 29.0446L19.4909 27.2046L19.2749 27.336C18.4901 27.813 17.5091 27.2167 17.5091 26.2626V26H15.4909V26.2626C15.4909 27.2167 14.5099 27.813 13.7251 27.336L13.5091 27.2046L12.5 29.0446L12.716 29.1759C13.5008 29.653 13.5008 30.8455 12.716 31.3226L12.5 31.4539L13.5091 33.2939L13.7251 33.1625C14.5099 32.6855 15.4909 33.2818 15.4909 34.2358V34.4985H17.5091V34.2358C17.5091 33.2818 18.4901 32.6855 19.2749 33.1625L19.4909 33.2939L20.5 31.4539L20.284 31.3226C19.4992 30.8455 19.4992 29.653 20.284 29.1759L20.5 29.0446Z" stroke="#F27922" stroke-width="0.853641" stroke-miterlimit="10" stroke-linecap="round" stroke-linejoin="round"/>
<path id="Vector_3" d="M16.5001 31.7668C17.2962 31.7668 17.9416 31.0874 17.9416 30.2492C17.9416 29.4111 17.2962 28.7316 16.5001 28.7316C15.704 28.7316 15.0586 29.4111 15.0586 30.2492C15.0586 31.0874 15.704 31.7668 16.5001 31.7668Z" stroke="#F27922" stroke-width="0.853641" stroke-miterlimit="10" stroke-linecap="round" stroke-linejoin="round"/>
</g>
<defs>
<clipPath id="clip0_879_1969">
<rect width="33" height="34" fill="white" transform="translate(0.200195 0.800003)"/>
</clipPath>
</defs>
</svg>
