<svg width="245" height="197" viewBox="0 0 245 197" fill="none" xmlns="http://www.w3.org/2000/svg">
<g filter="url(#filter0_d_2120_1504)">
<rect x="4.5" y="4" width="236" height="189" rx="20" fill="white"/>
</g>
<path d="M32.48 106V102.82L37.98 97.88C38.54 97.36 39.24 96.76 39.24 95.9C39.24 94.94 38.42 94.36 37.5 94.36C36.4 94.36 35.74 95.14 35.66 96.16L32.66 95.94C32.84 93.02 34.88 91.6 37.66 91.6C40.24 91.6 42.24 93.02 42.24 95.86C42.24 97.68 41.46 98.72 40.38 99.66L36.08 103.36H42.36V106H32.48ZM43.9959 98.92C43.9959 95.56 45.0559 91.6 49.2559 91.6C53.4559 91.6 54.5159 95.56 54.5159 98.92C54.5159 102.28 53.4559 106.24 49.2559 106.24C45.0559 106.24 43.9959 102.28 43.9959 98.92ZM46.9959 98.92C46.9959 100.4 47.0959 103.48 49.2559 103.48C51.4159 103.48 51.5159 100.4 51.5159 98.92C51.5159 97.44 51.4159 94.36 49.2559 94.36C47.0959 94.36 46.9959 97.44 46.9959 98.92ZM56.3519 101.2V98.68H60.5719V94.46H63.0919V98.68H67.3119V101.2H63.0919V105.42H60.5719V101.2H56.3519ZM75.9702 106V91.84H85.5902V94.72H79.0902V97.36H85.2302V100.24H79.0902V103.12H85.9502V106H75.9702ZM88.0678 106V96.28H90.9478V97.6H90.9878C91.3878 96.84 92.3678 96.04 93.8278 96.04C96.8678 96.04 97.4278 98.04 97.4278 100.64V106H94.4278V101.24C94.4278 100.12 94.4078 98.68 92.8678 98.68C91.3078 98.68 91.0678 99.9 91.0678 101.16V106H88.0678ZM106.172 96.28V98.68H103.532V101.92C103.532 102.96 103.652 103.72 104.952 103.72C105.272 103.72 105.912 103.68 106.172 103.44V105.94C105.512 106.18 104.772 106.24 104.072 106.24C102.072 106.24 100.532 105.42 100.532 103.3V98.68H98.6122V96.28H100.532V93.4H103.532V96.28H106.172ZM107.737 106V96.28H110.737V106H107.737ZM107.497 93.22C107.497 92.26 108.277 91.48 109.237 91.48C110.197 91.48 110.977 92.26 110.977 93.22C110.977 94.18 110.197 94.96 109.237 94.96C108.277 94.96 107.497 94.18 107.497 93.22ZM119.512 96.28V98.68H116.872V101.92C116.872 102.96 116.992 103.72 118.292 103.72C118.612 103.72 119.252 103.68 119.512 103.44V105.94C118.852 106.18 118.112 106.24 117.412 106.24C115.412 106.24 113.872 105.42 113.872 103.3V98.68H111.952V96.28H113.872V93.4H116.872V96.28H119.512ZM121.077 106V96.28H124.077V106H121.077ZM120.837 93.22C120.837 92.26 121.617 91.48 122.577 91.48C123.537 91.48 124.317 92.26 124.317 93.22C124.317 94.18 123.537 94.96 122.577 94.96C121.617 94.96 120.837 94.18 120.837 93.22ZM133.332 102.78L135.432 104.32C134.472 105.54 132.892 106.24 131.332 106.24C128.332 106.24 125.932 104.24 125.932 101.14C125.932 98.04 128.332 96.04 131.332 96.04C134.132 96.04 135.892 98.04 135.892 101.14V102.08H128.932C129.172 103.22 130.032 103.96 131.192 103.96C132.172 103.96 132.832 103.46 133.332 102.78ZM128.932 100.04H132.892C132.912 99.04 132.132 98.2 131.052 98.2C129.732 98.2 129.012 99.1 128.932 100.04ZM145.056 97.32L143.216 99.14C142.776 98.6 142.196 98.32 141.476 98.32C140.976 98.32 140.376 98.54 140.376 99.12C140.376 100.56 145.436 99.34 145.436 103.04C145.436 105.52 143.036 106.24 140.956 106.24C139.596 106.24 138.096 105.9 137.136 104.92L138.956 102.9C139.516 103.58 140.176 103.96 141.076 103.96C141.756 103.96 142.436 103.78 142.436 103.26C142.436 101.7 137.376 103.02 137.376 99.32C137.376 97.04 139.416 96.04 141.456 96.04C142.736 96.04 144.156 96.36 145.056 97.32ZM38.66 130V128.78H38.62C37.96 129.82 36.76 130.24 35.54 130.24C33.72 130.24 32.08 129.2 32.08 127.24C32.08 123.88 36.16 123.82 38.66 123.82C38.66 122.76 37.78 122.08 36.74 122.08C35.76 122.08 34.94 122.52 34.3 123.24L32.7 121.6C33.8 120.56 35.4 120.04 36.98 120.04C40.48 120.04 41.42 121.82 41.42 125.06V130H38.66ZM38.66 125.74H37.92C37 125.74 34.96 125.82 34.96 127.14C34.96 127.86 35.72 128.2 36.38 128.2C37.56 128.2 38.66 127.58 38.66 126.38V125.74ZM51.8622 121.34L49.8822 123.42C49.5822 123 49.0222 122.68 48.4022 122.68C46.9022 122.68 46.0022 123.68 46.0022 125.14C46.0022 126.6 46.9022 127.6 48.4022 127.6C49.0622 127.6 49.5422 127.26 49.8822 126.86L51.8622 128.94C50.9222 129.9 49.5422 130.24 48.4022 130.24C45.4022 130.24 43.0022 128.24 43.0022 125.14C43.0022 122.04 45.4022 120.04 48.4022 120.04C49.5422 120.04 50.9222 120.38 51.8622 121.34ZM52.9506 114.88H55.9506V121.6H55.9906C56.2706 120.84 57.2506 120.04 58.7106 120.04C61.7506 120.04 62.3106 122.04 62.3106 124.64V130H59.3106V125.24C59.3106 124.12 59.2906 122.68 57.7506 122.68C56.1906 122.68 55.9506 123.9 55.9506 125.16V130H52.9506V114.88ZM64.475 130V120.28H67.475V130H64.475ZM64.235 117.22C64.235 116.26 65.015 115.48 65.975 115.48C66.935 115.48 67.715 116.26 67.715 117.22C67.715 118.18 66.935 118.96 65.975 118.96C65.015 118.96 64.235 118.18 64.235 117.22ZM76.7303 126.78L78.8303 128.32C77.8703 129.54 76.2903 130.24 74.7303 130.24C71.7303 130.24 69.3303 128.24 69.3303 125.14C69.3303 122.04 71.7303 120.04 74.7303 120.04C77.5303 120.04 79.2903 122.04 79.2903 125.14V126.08H72.3303C72.5703 127.22 73.4303 127.96 74.5903 127.96C75.5703 127.96 76.2303 127.46 76.7303 126.78ZM72.3303 124.04H76.2903C76.3103 123.04 75.5303 122.2 74.4503 122.2C73.1303 122.2 72.4103 123.1 72.3303 124.04ZM84.1147 130L80.0947 120.28H83.3347L85.7947 126.88H85.8347L88.1147 120.28H91.1347L87.2947 130H84.1147ZM99.328 126.78L101.428 128.32C100.468 129.54 98.888 130.24 97.328 130.24C94.328 130.24 91.928 128.24 91.928 125.14C91.928 122.04 94.328 120.04 97.328 120.04C100.128 120.04 101.888 122.04 101.888 125.14V126.08H94.928C95.168 127.22 96.028 127.96 97.188 127.96C98.168 127.96 98.828 127.46 99.328 126.78ZM94.928 124.04H98.888C98.908 123.04 98.128 122.2 97.048 122.2C95.728 122.2 95.008 123.1 94.928 124.04ZM113.912 114.88V130H111.152V128.72H111.112C110.652 129.42 109.492 130.24 108.132 130.24C105.252 130.24 103.352 128.16 103.352 125.22C103.352 122.52 105.032 120.04 107.792 120.04C109.032 120.04 110.192 120.38 110.872 121.32H110.912V114.88H113.912ZM111.152 125.14C111.152 123.68 110.252 122.68 108.752 122.68C107.252 122.68 106.352 123.68 106.352 125.14C106.352 126.6 107.252 127.6 108.752 127.6C110.252 127.6 111.152 126.6 111.152 125.14ZM128.848 120.28V122.68H126.208V125.92C126.208 126.96 126.328 127.72 127.628 127.72C127.948 127.72 128.588 127.68 128.848 127.44V129.94C128.188 130.18 127.448 130.24 126.748 130.24C124.748 130.24 123.208 129.42 123.208 127.3V122.68H121.288V120.28H123.208V117.4H126.208V120.28H128.848ZM130.373 114.88H133.373V121.6H133.413C133.693 120.84 134.673 120.04 136.133 120.04C139.173 120.04 139.733 122.04 139.733 124.64V130H136.733V125.24C136.733 124.12 136.713 122.68 135.173 122.68C133.613 122.68 133.373 123.9 133.373 125.16V130H130.373V114.88ZM141.897 130V120.28H144.897V130H141.897ZM141.657 117.22C141.657 116.26 142.437 115.48 143.397 115.48C144.357 115.48 145.137 116.26 145.137 117.22C145.137 118.18 144.357 118.96 143.397 118.96C142.437 118.96 141.657 118.18 141.657 117.22ZM154.152 126.78L156.252 128.32C155.292 129.54 153.712 130.24 152.152 130.24C149.152 130.24 146.752 128.24 146.752 125.14C146.752 122.04 149.152 120.04 152.152 120.04C154.952 120.04 156.712 122.04 156.712 125.14V126.08H149.752C149.992 127.22 150.852 127.96 152.012 127.96C152.992 127.96 153.652 127.46 154.152 126.78ZM149.752 124.04H153.712C153.732 123.04 152.952 122.2 151.872 122.2C150.552 122.2 149.832 123.1 149.752 124.04ZM158.537 130V120.28H161.537V121.84H161.577C162.217 120.66 163.057 120.04 164.377 120.04C164.717 120.04 165.097 120.06 165.377 120.14V122.88C164.957 122.76 164.537 122.68 164.097 122.68C161.817 122.68 161.537 124 161.537 125.94V130H158.537ZM42.76 138.88V154H40V152.72H39.96C39.5 153.42 38.34 154.24 36.98 154.24C34.1 154.24 32.2 152.16 32.2 149.22C32.2 146.52 33.88 144.04 36.64 144.04C37.88 144.04 39.04 144.38 39.72 145.32H39.76V138.88H42.76ZM40 149.14C40 147.68 39.1 146.68 37.6 146.68C36.1 146.68 35.2 147.68 35.2 149.14C35.2 150.6 36.1 151.6 37.6 151.6C39.1 151.6 40 150.6 40 149.14ZM45.1977 154V144.28H48.1977V154H45.1977ZM44.9577 141.22C44.9577 140.26 45.7377 139.48 46.6977 139.48C47.6577 139.48 48.4377 140.26 48.4377 141.22C48.4377 142.18 47.6577 142.96 46.6977 142.96C45.7377 142.96 44.9577 142.18 44.9577 141.22ZM60.553 144.28V153.18C60.553 156.84 58.693 158.8 54.933 158.8C53.213 158.8 51.453 158.5 50.053 157.38L51.713 154.9C52.633 155.68 53.653 156.16 54.873 156.16C56.693 156.16 57.553 155.16 57.553 153.78V152.84H57.513C56.833 153.78 55.673 154.12 54.773 154.12C51.893 154.12 49.993 152.04 49.993 149.1C49.993 146.52 51.673 144.04 54.433 144.04C56.133 144.04 57.293 144.86 57.753 145.56H57.793V144.28H60.553ZM52.993 149.08C52.993 150.34 54.033 151.48 55.393 151.48C56.753 151.48 57.793 150.34 57.793 149.08C57.793 147.82 56.753 146.68 55.393 146.68C54.033 146.68 52.993 147.82 52.993 149.08ZM62.9906 154V144.28H65.9906V154H62.9906ZM62.7506 141.22C62.7506 140.26 63.5306 139.48 64.4906 139.48C65.4506 139.48 66.2306 140.26 66.2306 141.22C66.2306 142.18 65.4506 142.96 64.4906 142.96C63.5306 142.96 62.7506 142.18 62.7506 141.22ZM74.7659 144.28V146.68H72.1259V149.92C72.1259 150.96 72.2459 151.72 73.5459 151.72C73.8659 151.72 74.5059 151.68 74.7659 151.44V153.94C74.1059 154.18 73.3659 154.24 72.6659 154.24C70.6659 154.24 69.1259 153.42 69.1259 151.3V146.68H67.2059V144.28H69.1259V141.4H72.1259V144.28H74.7659ZM82.3905 154V152.78H82.3505C81.6905 153.82 80.4905 154.24 79.2705 154.24C77.4505 154.24 75.8105 153.2 75.8105 151.24C75.8105 147.88 79.8905 147.82 82.3905 147.82C82.3905 146.76 81.5105 146.08 80.4705 146.08C79.4905 146.08 78.6705 146.52 78.0305 147.24L76.4305 145.6C77.5305 144.56 79.1305 144.04 80.7105 144.04C84.2105 144.04 85.1505 145.82 85.1505 149.06V154H82.3905ZM82.3905 149.74H81.6505C80.7305 149.74 78.6905 149.82 78.6905 151.14C78.6905 151.86 79.4505 152.2 80.1105 152.2C81.2905 152.2 82.3905 151.58 82.3905 150.38V149.74ZM87.0727 154V138.88H90.0727V154H87.0727ZM98.4259 158.56V144.28H101.186V145.56H101.226C101.686 144.86 102.846 144.04 104.206 144.04C107.086 144.04 108.986 146.12 108.986 149.06C108.986 151.76 107.306 154.24 104.546 154.24C103.306 154.24 102.146 153.9 101.466 152.96H101.426V158.56H98.4259ZM101.186 149.14C101.186 150.6 102.086 151.6 103.586 151.6C105.086 151.6 105.986 150.6 105.986 149.14C105.986 147.68 105.086 146.68 103.586 146.68C102.086 146.68 101.186 147.68 101.186 149.14ZM110.744 154V144.28H113.744V145.84H113.784C114.424 144.66 115.264 144.04 116.584 144.04C116.924 144.04 117.304 144.06 117.584 144.14V146.88C117.164 146.76 116.744 146.68 116.304 146.68C114.024 146.68 113.744 148 113.744 149.94V154H110.744ZM125.637 150.78L127.737 152.32C126.777 153.54 125.197 154.24 123.637 154.24C120.637 154.24 118.237 152.24 118.237 149.14C118.237 146.04 120.637 144.04 123.637 144.04C126.437 144.04 128.197 146.04 128.197 149.14V150.08H121.237C121.477 151.22 122.337 151.96 123.497 151.96C124.477 151.96 125.137 151.46 125.637 150.78ZM121.237 148.04H125.197C125.217 147.04 124.437 146.2 123.357 146.2C122.037 146.2 121.317 147.1 121.237 148.04ZM137.361 145.32L135.521 147.14C135.081 146.6 134.501 146.32 133.781 146.32C133.281 146.32 132.681 146.54 132.681 147.12C132.681 148.56 137.741 147.34 137.741 151.04C137.741 153.52 135.341 154.24 133.261 154.24C131.901 154.24 130.401 153.9 129.441 152.92L131.261 150.9C131.821 151.58 132.481 151.96 133.381 151.96C134.061 151.96 134.741 151.78 134.741 151.26C134.741 149.7 129.681 151.02 129.681 147.32C129.681 145.04 131.721 144.04 133.761 144.04C135.041 144.04 136.461 144.36 137.361 145.32ZM146.379 150.78L148.479 152.32C147.519 153.54 145.939 154.24 144.379 154.24C141.379 154.24 138.979 152.24 138.979 149.14C138.979 146.04 141.379 144.04 144.379 144.04C147.179 144.04 148.939 146.04 148.939 149.14V150.08H141.979C142.219 151.22 143.079 151.96 144.239 151.96C145.219 151.96 145.879 151.46 146.379 150.78ZM141.979 148.04H145.939C145.959 147.04 145.179 146.2 144.099 146.2C142.779 146.2 142.059 147.1 141.979 148.04ZM150.763 154V144.28H153.643V145.6H153.683C154.083 144.84 155.063 144.04 156.523 144.04C159.563 144.04 160.123 146.04 160.123 148.64V154H157.123V149.24C157.123 148.12 157.103 146.68 155.563 146.68C154.003 146.68 153.763 147.9 153.763 149.16V154H150.763ZM170.808 145.34L168.828 147.42C168.528 147 167.968 146.68 167.348 146.68C165.848 146.68 164.948 147.68 164.948 149.14C164.948 150.6 165.848 151.6 167.348 151.6C168.008 151.6 168.488 151.26 168.828 150.86L170.808 152.94C169.868 153.9 168.488 154.24 167.348 154.24C164.348 154.24 161.948 152.24 161.948 149.14C161.948 146.04 164.348 144.04 167.348 144.04C168.488 144.04 169.868 144.38 170.808 145.34ZM178.996 150.78L181.096 152.32C180.136 153.54 178.556 154.24 176.996 154.24C173.996 154.24 171.596 152.24 171.596 149.14C171.596 146.04 173.996 144.04 176.996 144.04C179.796 144.04 181.556 146.04 181.556 149.14V150.08H174.596C174.836 151.22 175.696 151.96 176.856 151.96C177.836 151.96 178.496 151.46 178.996 150.78ZM174.596 148.04H178.556C178.576 147.04 177.796 146.2 176.716 146.2C175.396 146.2 174.676 147.1 174.596 148.04Z" fill="black"/>
<path opacity="0.75" fill-rule="evenodd" clip-rule="evenodd" d="M69.3031 37.3799C69.3031 36.7487 69.0219 36.1434 68.5212 35.697C68.0205 35.2507 67.3415 35 66.6334 35H39.9363C39.2283 35 38.5492 35.2507 38.0485 35.697C37.5479 36.1434 37.2666 36.7487 37.2666 37.3799V65.9381C37.2666 66.5693 37.5479 67.1746 38.0485 67.621C38.5492 68.0673 39.2283 68.318 39.9363 68.318H66.6334C67.3415 68.318 68.0205 68.0673 68.5212 67.621C69.0219 67.1746 69.3031 66.5693 69.3031 65.9381V37.3799Z" fill="#FCE4D3"/>
<path fill-rule="evenodd" clip-rule="evenodd" d="M37.2666 43.0492H69.4633V37.6831C69.4633 36.9715 69.1806 36.289 68.6775 35.7858C68.1743 35.2827 67.4918 35 66.7803 35H39.9497C39.2381 35 38.5556 35.2827 38.0525 35.7858C37.5493 36.289 37.2666 36.9715 37.2666 37.6831V43.0492Z" fill="#F27922"/>
<path d="M40.8904 40.3662C41.6313 40.3662 42.2319 39.7655 42.2319 39.0246C42.2319 38.2837 41.6313 37.6831 40.8904 37.6831C40.1495 37.6831 39.5488 38.2837 39.5488 39.0246C39.5488 39.7655 40.1495 40.3662 40.8904 40.3662Z" fill="#DA4A4A"/>
<path d="M46.2566 40.3662C46.9975 40.3662 47.5981 39.7655 47.5981 39.0246C47.5981 38.2837 46.9975 37.6831 46.2566 37.6831C45.5157 37.6831 44.915 38.2837 44.915 39.0246C44.915 39.7655 45.5157 40.3662 46.2566 40.3662Z" fill="#FFCE4B"/>
<path d="M51.6228 40.3662C52.3637 40.3662 52.9643 39.7655 52.9643 39.0246C52.9643 38.2837 52.3637 37.6831 51.6228 37.6831C50.8819 37.6831 50.2812 38.2837 50.2812 39.0246C50.2812 39.7655 50.8819 40.3662 51.6228 40.3662Z" fill="#F27922"/>
<path fill-rule="evenodd" clip-rule="evenodd" d="M66.3797 39.0246C66.3797 38.6688 66.2384 38.3276 65.9868 38.076C65.7352 37.8244 65.394 37.6831 65.0382 37.6831H56.989C56.6332 37.6831 56.292 37.8244 56.0404 38.076C55.7888 38.3276 55.6475 38.6688 55.6475 39.0246C55.6475 39.3804 55.7888 39.7217 56.0404 39.9732C56.292 40.2248 56.6332 40.3662 56.989 40.3662H65.0382C65.394 40.3662 65.7352 40.2248 65.9868 39.9732C66.2384 39.7217 66.3797 39.3804 66.3797 39.0246Z" fill="#E0E0E0"/>
<path fill-rule="evenodd" clip-rule="evenodd" d="M34.1831 63.2922C34.1831 62.9364 34.0417 62.5952 33.7901 62.3436C33.5385 62.092 33.1973 61.9507 32.8415 61.9507C32.4857 61.9507 32.1445 62.092 31.8929 62.3436C31.6413 62.5952 31.5 62.9364 31.5 63.2922V68.6583C31.5 69.0141 31.6413 69.3554 31.8929 69.6069C32.1445 69.8585 32.4857 69.9999 32.8415 69.9999C33.1973 69.9999 33.5385 69.8585 33.7901 69.6069C34.0417 69.3554 34.1831 69.0141 34.1831 68.6583V63.2922Z" fill="#FFCE20"/>
<path fill-rule="evenodd" clip-rule="evenodd" d="M50.2797 55.2429C50.2797 54.8871 50.1384 54.5459 49.8868 54.2943C49.6352 54.0427 49.294 53.9014 48.9382 53.9014C48.5824 53.9014 48.2412 54.0427 47.9896 54.2943C47.738 54.5459 47.5967 54.8871 47.5967 55.2429V68.6582C47.5967 69.014 47.738 69.3552 47.9896 69.6068C48.2412 69.8584 48.5824 69.9997 48.9382 69.9997C49.294 69.9997 49.6352 69.8584 49.8868 69.6068C50.1384 69.3552 50.2797 69.014 50.2797 68.6582V55.2429Z" fill="#F27922"/>
<path fill-rule="evenodd" clip-rule="evenodd" d="M44.9165 60.6091C44.9165 60.2533 44.7751 59.9121 44.5235 59.6605C44.2719 59.4089 43.9307 59.2676 43.5749 59.2676C43.2191 59.2676 42.8779 59.4089 42.6263 59.6605C42.3747 59.9121 42.2334 60.2533 42.2334 60.6091V68.6583C42.2334 69.0141 42.3747 69.3553 42.6263 69.6069C42.8779 69.8585 43.2191 69.9998 43.5749 69.9998C43.9307 69.9998 44.2719 69.8585 44.5235 69.6069C44.7751 69.3553 44.9165 69.0141 44.9165 68.6583V60.6091Z" fill="#FFCE20"/>
<path fill-rule="evenodd" clip-rule="evenodd" d="M36.8678 52.5599V68.6583C36.8678 69.0141 37.0091 69.3553 37.2607 69.6069C37.5123 69.8585 37.8535 69.9998 38.2093 69.9998C38.5651 69.9998 38.9063 69.8585 39.1579 69.6069C39.4095 69.3553 39.5508 69.0141 39.5508 68.6583V52.5599H40.889C41.1317 52.5599 41.3699 52.4941 41.5781 52.3694C41.7864 52.2447 41.9569 52.0658 42.0715 51.8519C42.1861 51.6379 42.2406 51.3969 42.229 51.1545C42.2174 50.912 42.1403 50.6773 42.0058 50.4752L39.3255 46.4506C39.2033 46.2665 39.0375 46.1155 38.8428 46.011C38.6481 45.9065 38.4306 45.8517 38.2097 45.8516C37.9887 45.8514 37.7712 45.9059 37.5764 46.0102C37.3816 46.1145 37.2156 46.2653 37.0932 46.4493L34.4074 50.4738C34.2722 50.6757 34.1944 50.9106 34.1823 51.1533C34.1703 51.396 34.2244 51.6374 34.339 51.8517C34.4536 52.066 34.6243 52.2451 34.8328 52.3698C35.0414 52.4946 35.2799 52.5603 35.5229 52.5599H36.8678Z" fill="#F27922"/>
<g clip-path="url(#clip0_2120_1504)">
<path d="M54.9211 56.2126C54.9206 56.2987 54.936 56.3838 54.9664 56.4644C55.0022 56.5709 55.0626 56.6675 55.1426 56.7463C55.2126 56.8165 55.2958 56.8722 55.3874 56.9102C55.479 56.9482 55.5771 56.9678 55.6763 56.9678H56.1797C55.9794 56.9678 55.7874 57.0473 55.6457 57.189C55.5041 57.3306 55.4246 57.5227 55.4246 57.7229C55.4241 57.809 55.4394 57.8941 55.4699 57.9746C55.5056 58.0812 55.566 58.1778 55.6461 58.2566C55.7161 58.3268 55.7992 58.3825 55.8908 58.4205C55.9824 58.4585 56.0806 58.4781 56.1797 58.4781H56.6831C56.4829 58.4781 56.2908 58.5576 56.1492 58.6993C56.0076 58.8409 55.928 59.0329 55.928 59.2332C55.928 59.4335 56.0076 59.6256 56.1492 59.7672C56.2908 59.9088 56.4829 59.9884 56.6831 59.9884H61.214C61.5991 59.9944 61.9818 59.927 62.3417 59.7895C62.5884 59.6913 62.8049 59.5328 63.044 59.417C63.2979 59.2958 63.5757 59.233 63.857 59.2332H64.4863L63.9829 54.1989C63.4705 54.1983 62.969 54.0507 62.538 53.7735C61.6294 53.1946 60.2525 52.1424 60.5495 50.8033C60.6502 50.3527 60.6879 49.9122 60.2072 49.668C59.6735 49.3962 59.1625 49.741 58.9133 50.1765C58.0751 51.644 59.5401 53.9472 59.5401 53.9472H55.928C55.7277 53.9472 55.5356 54.0268 55.394 54.1684C55.2524 54.31 55.1728 54.5021 55.1728 54.7023C55.1723 54.7884 55.1877 54.8735 55.2182 54.9541C55.2539 55.0606 55.3143 55.1572 55.3944 55.236C55.4644 55.3062 55.5475 55.3619 55.6391 55.3999C55.7307 55.4379 55.8288 55.4575 55.928 55.4575H55.6763C55.476 55.4575 55.2839 55.5371 55.1423 55.6787C55.0007 55.8203 54.9211 56.0124 54.9211 56.2126Z" fill="#FDD7AD"/>
<path d="M55.4703 57.9747C55.506 58.0812 55.5664 58.1778 55.6465 58.2566C55.7165 58.3268 55.7997 58.3825 55.8912 58.4206C55.9828 58.4586 56.081 58.4781 56.1801 58.4781H57.4387C57.5055 58.4781 57.5695 58.4516 57.6167 58.4044C57.6639 58.3572 57.6904 58.2932 57.6904 58.2264C57.6904 58.1596 57.6639 58.0956 57.6167 58.0484C57.5695 58.0012 57.5055 57.9747 57.4387 57.9747H55.4703ZM54.9669 56.4644C55.0026 56.5709 55.063 56.6675 55.1431 56.7463C55.2131 56.8165 55.2962 56.8723 55.3878 56.9103C55.4794 56.9483 55.5776 56.9678 55.6767 56.9678H57.4387C57.5055 56.9678 57.5695 56.9413 57.6167 56.8941C57.6639 56.8469 57.6904 56.7829 57.6904 56.7161C57.6904 56.6494 57.6639 56.5853 57.6167 56.5381C57.5695 56.4909 57.5055 56.4644 57.4387 56.4644H54.9669ZM55.2186 54.9541C55.2543 55.0606 55.3147 55.1572 55.3948 55.236C55.4648 55.3062 55.548 55.362 55.6395 55.4C55.7311 55.438 55.8293 55.4575 55.9284 55.4575H57.4387C57.5055 55.4575 57.5695 55.431 57.6167 55.3838C57.6639 55.3366 57.6904 55.2726 57.6904 55.2058C57.6904 55.1391 57.6639 55.075 57.6167 55.0278C57.5695 54.9806 57.5055 54.9541 57.4387 54.9541H55.2186Z" fill="#F9C795"/>
<path d="M64.7382 53.4441H65.9968C66.4139 53.4441 66.752 53.7822 66.752 54.1992V59.2336C66.752 59.6506 66.4139 59.9887 65.9968 59.9887H64.7382C64.3212 59.9887 63.9831 59.6506 63.9831 59.2336V54.1992C63.9831 53.7822 64.3212 53.4441 64.7382 53.4441Z" fill="#F27922"/>
<path d="M55.1731 51.4302C55.2398 51.4302 55.3038 51.4037 55.3511 51.3565C55.3983 51.3093 55.4248 51.2452 55.4248 51.1785V50.6751C55.4248 50.6083 55.3983 50.5443 55.3511 50.4971C55.3038 50.4499 55.2398 50.4233 55.1731 50.4233C55.1063 50.4233 55.0423 50.4499 54.9951 50.4971C54.9479 50.5443 54.9213 50.6083 54.9213 50.6751V51.1785C54.9213 51.2452 54.9479 51.3093 54.9951 51.3565C55.0423 51.4037 55.1063 51.4302 55.1731 51.4302ZM55.1731 52.9405C55.2398 52.9405 55.3038 52.914 55.3511 52.8668C55.3983 52.8196 55.4248 52.7555 55.4248 52.6888V52.1853C55.4248 52.1186 55.3983 52.0546 55.3511 52.0074C55.3038 51.9602 55.2398 51.9336 55.1731 51.9336C55.1063 51.9336 55.0423 51.9602 54.9951 52.0074C54.9479 52.0546 54.9213 52.1186 54.9213 52.1853V52.6888C54.9213 52.7555 54.9479 52.8196 54.9951 52.8668C55.0423 52.914 55.1063 52.9405 55.1731 52.9405ZM54.1662 51.9336H54.6696C54.7364 51.9336 54.8004 51.9071 54.8476 51.8599C54.8948 51.8127 54.9213 51.7487 54.9213 51.6819C54.9213 51.6152 54.8948 51.5511 54.8476 51.5039C54.8004 51.4567 54.7364 51.4302 54.6696 51.4302H54.1662C54.0994 51.4302 54.0354 51.4567 53.9882 51.5039C53.941 51.5511 53.9145 51.6152 53.9145 51.6819C53.9145 51.7487 53.941 51.8127 53.9882 51.8599C54.0354 51.9071 54.0994 51.9336 54.1662 51.9336ZM55.6765 51.9336H56.1799C56.2467 51.9336 56.3107 51.9071 56.3579 51.8599C56.4051 51.8127 56.4316 51.7487 56.4316 51.6819C56.4316 51.6152 56.4051 51.5511 56.3579 51.5039C56.3107 51.4567 56.2467 51.4302 56.1799 51.4302H55.6765C55.6097 51.4302 55.5457 51.4567 55.4985 51.5039C55.4513 51.5511 55.4248 51.6152 55.4248 51.6819C55.4248 51.7487 55.4513 51.8127 55.4985 51.8599C55.5457 51.9071 55.6097 51.9336 55.6765 51.9336Z" fill="#DA4A4A"/>
<path d="M60.9627 47.9062C61.0294 47.9062 61.0934 47.8797 61.1406 47.8325L61.5182 47.4549C61.5422 47.4317 61.5614 47.4039 61.5746 47.3732C61.5878 47.3425 61.5947 47.3095 61.595 47.276C61.5953 47.2426 61.5889 47.2095 61.5763 47.1785C61.5636 47.1476 61.5449 47.1195 61.5213 47.0959C61.4977 47.0722 61.4696 47.0535 61.4386 47.0409C61.4077 47.0282 61.3746 47.0218 61.3411 47.0221C61.3077 47.0224 61.2747 47.0294 61.244 47.0426C61.2133 47.0558 61.1855 47.0749 61.1623 47.099L60.7847 47.4765C60.7495 47.5117 60.7255 47.5566 60.7158 47.6054C60.7061 47.6542 60.7111 47.7048 60.7301 47.7508C60.7492 47.7968 60.7815 47.8361 60.8228 47.8638C60.8642 47.8914 60.9129 47.9062 60.9627 47.9062ZM62.0954 46.7735C62.1621 46.7735 62.2261 46.747 62.2733 46.6997L62.6509 46.3222C62.6968 46.2747 62.7221 46.2111 62.7216 46.1451C62.721 46.0791 62.6945 46.016 62.6478 45.9693C62.6012 45.9226 62.538 45.8962 62.472 45.8956C62.406 45.895 62.3425 45.9204 62.295 45.9663L61.9174 46.3438C61.8822 46.379 61.8583 46.4239 61.8485 46.4727C61.8388 46.5215 61.8438 46.5721 61.8629 46.6181C61.8819 46.6641 61.9142 46.7034 61.9556 46.7311C61.9969 46.7587 62.0456 46.7735 62.0954 46.7735ZM62.4729 47.9062C62.5227 47.9062 62.5714 47.8914 62.6128 47.8638C62.6541 47.8361 62.6864 47.7968 62.7055 47.7508C62.7245 47.7048 62.7295 47.6542 62.7198 47.6054C62.7101 47.5566 62.6861 47.5117 62.6509 47.4765L62.2733 47.099C62.2501 47.0749 62.2223 47.0558 62.1916 47.0426C62.1609 47.0294 62.1279 47.0224 62.0945 47.0221C62.061 47.0218 62.0279 47.0282 61.997 47.0409C61.966 47.0535 61.9379 47.0722 61.9143 47.0959C61.8907 47.1195 61.872 47.1476 61.8593 47.1785C61.8467 47.2095 61.8403 47.2426 61.8406 47.276C61.8409 47.3095 61.8478 47.3425 61.861 47.3732C61.8742 47.4039 61.8934 47.4317 61.9174 47.4549L62.295 47.8325C62.3422 47.8797 62.4062 47.9062 62.4729 47.9062ZM61.3402 46.7735C61.39 46.7735 61.4387 46.7587 61.48 46.7311C61.5214 46.7034 61.5537 46.6641 61.5727 46.6181C61.5918 46.5721 61.5968 46.5215 61.5871 46.4727C61.5773 46.4239 61.5534 46.379 61.5182 46.3438L61.1406 45.9663C61.1174 45.9422 61.0896 45.923 61.0589 45.9098C61.0282 45.8966 60.9952 45.8897 60.9617 45.8894C60.9283 45.8891 60.8952 45.8955 60.8642 45.9081C60.8333 45.9208 60.8052 45.9395 60.7816 45.9631C60.7579 45.9868 60.7392 46.0149 60.7266 46.0458C60.7139 46.0767 60.7076 46.1099 60.7079 46.1433C60.7081 46.1767 60.7151 46.2098 60.7283 46.2405C60.7415 46.2712 60.7606 46.299 60.7847 46.3222L61.1623 46.6997C61.2095 46.747 61.2735 46.7735 61.3402 46.7735Z" fill="#955BA5"/>
<path d="M55.6344 48.0883C55.9473 48.2068 56.2313 48.3907 56.4675 48.6277C56.7036 48.8647 56.8865 49.1494 57.0038 49.4627C57.0131 49.4868 57.0296 49.5075 57.0511 49.5219C57.0726 49.5363 57.098 49.5437 57.1239 49.5432C57.1497 49.5426 57.1748 49.5341 57.1956 49.5188C57.2165 49.5035 57.2321 49.4822 57.2404 49.4577C57.3592 49.1458 57.5426 48.8625 57.7786 48.6265C58.0146 48.3905 58.2978 48.2071 58.6097 48.0883C58.6349 48.0804 58.6568 48.0646 58.6724 48.0433C58.688 48.0221 58.6964 47.9964 58.6964 47.97C58.6964 47.9437 58.688 47.918 58.6724 47.8967C58.6568 47.8754 58.6349 47.8597 58.6097 47.8517C58.2972 47.734 58.0134 47.551 57.7772 47.3149C57.5411 47.0787 57.3581 46.7949 57.2404 46.4824C57.2324 46.4573 57.2167 46.4353 57.1954 46.4197C57.1741 46.4041 57.1485 46.3958 57.1221 46.3958C57.0957 46.3958 57.07 46.4041 57.0488 46.4197C57.0275 46.4353 57.0117 46.4573 57.0038 46.4824C56.8861 46.7957 56.7025 47.0801 56.4654 47.3164C56.2283 47.5526 55.9432 47.7352 55.6294 47.8517C55.6053 47.861 55.5846 47.8776 55.5702 47.8991C55.5558 47.9205 55.5484 47.9459 55.549 47.9718C55.5495 47.9976 55.558 48.0227 55.5733 48.0436C55.5886 48.0644 55.6099 48.08 55.6344 48.0883ZM63.0915 50.3047C63.4388 50.4746 63.7195 50.7554 63.8895 51.1026C63.8988 51.1249 63.9146 51.144 63.9347 51.1574C63.9549 51.1708 63.9785 51.1779 64.0027 51.1779C64.0269 51.1779 64.0506 51.1708 64.0707 51.1574C64.0909 51.144 64.1066 51.1249 64.116 51.1026C64.2854 50.755 64.5663 50.4741 64.9139 50.3047C64.9363 50.2953 64.9553 50.2796 64.9687 50.2594C64.9821 50.2393 64.9893 50.2156 64.9893 50.1914C64.9893 50.1672 64.9821 50.1436 64.9687 50.1234C64.9553 50.1033 64.9363 50.0875 64.9139 50.0781C64.5663 49.9088 64.2854 49.6278 64.116 49.2802C64.1066 49.2579 64.0909 49.2388 64.0707 49.2254C64.0506 49.212 64.0269 49.2049 64.0027 49.2049C63.9785 49.2049 63.9549 49.212 63.9347 49.2254C63.9146 49.2388 63.8988 49.2579 63.8895 49.2802C63.7195 49.6275 63.4388 49.9082 63.0915 50.0781C63.0692 50.0875 63.0502 50.1033 63.0368 50.1234C63.0234 50.1436 63.0162 50.1672 63.0162 50.1914C63.0162 50.2156 63.0234 50.2393 63.0368 50.2594C63.0502 50.2796 63.0692 50.2953 63.0915 50.3047Z" fill="#FFCE20"/>
</g>
<defs>
<filter id="filter0_d_2120_1504" x="0.5" y="0" width="244" height="197" filterUnits="userSpaceOnUse" color-interpolation-filters="sRGB">
<feFlood flood-opacity="0" result="BackgroundImageFix"/>
<feColorMatrix in="SourceAlpha" type="matrix" values="0 0 0 0 0 0 0 0 0 0 0 0 0 0 0 0 0 0 127 0" result="hardAlpha"/>
<feOffset/>
<feGaussianBlur stdDeviation="2"/>
<feComposite in2="hardAlpha" operator="out"/>
<feColorMatrix type="matrix" values="0 0 0 0 0 0 0 0 0 0 0 0 0 0 0 0 0 0 0.25 0"/>
<feBlend mode="normal" in2="BackgroundImageFix" result="effect1_dropShadow_2120_1504"/>
<feBlend mode="normal" in="SourceGraphic" in2="effect1_dropShadow_2120_1504" result="shape"/>
</filter>
<clipPath id="clip0_2120_1504">
<rect width="14.0961" height="14.0961" fill="white" transform="matrix(-1 0 0 1 67.3809 45.8923)"/>
</clipPath>
</defs>
</svg>
