<svg width="67" height="92" viewBox="0 0 67 92" fill="none" xmlns="http://www.w3.org/2000/svg">
<rect opacity="0.5" x="0.5" width="66" height="66" rx="9" fill="#FEF8F4"/>
<g clip-path="url(#clip0_879_8558)">
<path d="M35.4998 22.1428C28.4093 22.1428 22.6465 27.9057 22.6465 35C22.6465 42.0904 28.4093 47.8571 35.4998 47.8571C42.5903 47.8571 48.357 42.0904 48.357 35C48.357 27.9057 42.5903 22.1428 35.4998 22.1428ZM35.4998 46.4285C29.1789 46.4285 24.0674 41.3209 24.0674 35C24.0674 28.679 29.1789 23.5714 35.4998 23.5714C41.8208 23.5714 46.9284 28.679 46.9284 35C46.9284 41.3171 41.8208 46.4285 35.4998 46.4285Z" fill="#F27922"/>
<path d="M55.1543 31.2981C55.1241 31.1335 55.0373 30.9847 54.9089 30.8774C54.7806 30.7701 54.6187 30.7111 54.4514 30.7105H52.0962C51.6918 29.1613 51.0786 27.6743 50.2733 26.2905L51.9286 24.6314C52.0478 24.5139 52.1218 24.358 52.1375 24.1913C52.1532 24.0246 52.1095 23.8577 52.0143 23.72C50.612 21.6634 48.8366 19.888 46.78 18.4857C46.6428 18.3917 46.4771 18.3485 46.3115 18.3634C46.1458 18.3784 45.9905 18.4506 45.8724 18.5676L44.2762 20.1676C42.9105 19.3676 41.319 18.8019 39.7857 18.4038V16.0495C39.7861 15.8825 39.7279 15.7205 39.6212 15.592C39.5145 15.4634 39.3662 15.3762 39.2019 15.3457C37.9801 15.1155 36.7395 14.9997 35.4962 15C34.2535 15.0041 33.0139 15.1262 31.7943 15.3648C31.6311 15.3951 31.4837 15.4816 31.3778 15.6093C31.2718 15.737 31.2139 15.8979 31.2143 16.0638V18.4038C29.6686 18.813 28.1855 19.4301 26.8057 20.2381L25.1276 18.5676C25.0096 18.4504 24.8543 18.3781 24.6886 18.3631C24.5229 18.3482 24.3571 18.3915 24.22 18.4857C22.1652 19.8901 20.3901 21.6652 18.9857 23.72C18.8922 23.8576 18.8496 24.0236 18.8652 24.1892C18.8809 24.3549 18.9538 24.5099 19.0714 24.6276L20.7381 26.2905C19.9381 27.6524 19.3095 29.1857 18.9114 30.7105H16.56C16.3939 30.7113 16.2332 30.7694 16.1051 30.8751C15.977 30.9808 15.8894 31.1276 15.8571 31.2905C15.6229 32.5132 15.5034 33.7551 15.5 35C15.5038 36.2429 15.6229 37.4848 15.8571 38.7057C15.9238 39.041 16.2181 39.2857 16.56 39.2857H18.9114C19.317 40.8315 19.9316 42.3147 20.7381 43.6943L19.0714 45.3686C18.954 45.4864 18.8812 45.6414 18.8655 45.807C18.8499 45.9726 18.8924 46.1385 18.9857 46.2762C20.3909 48.3325 22.1658 50.1099 24.22 51.5181C24.3573 51.6125 24.5235 51.6557 24.6894 51.64C24.8553 51.6243 25.0104 51.5508 25.1276 51.4324L26.8057 49.7619C28.1855 50.5699 29.6686 51.187 31.2143 51.5962V53.94C31.2143 54.2819 31.4562 54.5762 31.7943 54.639C33.014 54.8763 34.2536 54.9972 35.4962 55C36.7411 54.9933 37.9828 54.8724 39.2057 54.639C39.3689 54.6087 39.5163 54.5222 39.6222 54.3945C39.7282 54.2668 39.7861 54.106 39.7857 53.94V51.5962C41.3314 51.187 42.8145 50.5699 44.1943 49.7619L45.8724 51.4324C45.9897 51.5507 46.1448 51.6241 46.3107 51.6397C46.4765 51.6554 46.6426 51.6123 46.78 51.5181C48.836 50.112 50.6112 48.3342 52.0143 46.2762C52.1076 46.1385 52.1501 45.9726 52.1345 45.807C52.1188 45.6414 52.046 45.4864 51.9286 45.3686L50.2581 43.6943C51.068 42.319 51.6864 40.8396 52.0962 39.2971L54.44 39.2857C54.6061 39.2849 54.7668 39.2268 54.8949 39.1211C55.023 39.0154 55.1106 38.8686 55.1429 38.7057C55.3771 37.4857 55.4962 36.2467 55.5 35.0038C55.5 34.1705 55.4438 32.7571 55.1543 31.2981ZM53.7962 37.8571H51.5343C51.3714 37.8556 51.2129 37.9103 51.0856 38.0119C50.9582 38.1136 50.8698 38.256 50.8352 38.4152C50.4359 40.1931 49.7322 41.8885 48.7552 43.4267C48.6687 43.5635 48.6311 43.7256 48.6488 43.8865C48.6664 44.0475 48.7382 44.1976 48.8524 44.3124L50.4933 45.9571C49.365 47.5047 48.0019 48.8665 46.4533 49.9933L44.8124 48.3486C44.6967 48.2344 44.5456 48.1629 44.384 48.146C44.2223 48.129 44.0597 48.1675 43.9229 48.2552C42.3882 49.2344 40.6951 49.9395 38.919 50.339C38.7604 50.374 38.6184 50.4619 38.5163 50.5882C38.4142 50.7146 38.3581 50.8719 38.3571 51.0343V53.3371C37.4124 53.4895 36.46 53.5638 35.5 53.5676C34.5443 53.5653 33.5903 53.4883 32.6467 53.3371L32.6429 51.0343C32.643 50.8722 32.5877 50.7148 32.4862 50.5884C32.3847 50.462 32.2431 50.374 32.0848 50.339C30.3084 49.9406 28.6151 49.2354 27.081 48.2552C26.9436 48.1675 26.7805 48.129 26.6184 48.1459C26.4563 48.1629 26.3048 48.2343 26.1886 48.3486L24.5476 49.9924C22.9999 48.8645 21.637 47.5028 20.5076 45.9562L22.1514 44.3114C22.265 44.1962 22.3361 44.0458 22.353 43.8849C22.37 43.724 22.3318 43.5621 22.2448 43.4257C21.2676 41.8881 20.5651 40.1924 20.1686 38.4143C20.1324 38.2553 20.043 38.1134 19.9152 38.0121C19.7873 37.9108 19.6288 37.8561 19.4657 37.8571H17.2038C17.0552 36.9124 16.9324 35.9638 16.9286 35.0038C16.9336 34.0442 17.0132 33.0864 17.1667 32.139H19.4657C19.628 32.1409 19.7861 32.0874 19.9139 31.9874C20.0417 31.8873 20.1315 31.7466 20.1686 31.5886C20.5653 29.8105 21.2678 28.1148 22.2448 26.5771C22.3325 26.4405 22.3711 26.278 22.3542 26.1165C22.3372 25.9549 22.2657 25.804 22.1514 25.6886L20.5076 24.04C21.6316 22.4926 22.9909 21.1307 24.5362 20.0038L26.1886 21.6476C26.4267 21.8857 26.7981 21.9267 27.081 21.7486C28.6155 20.7692 30.3086 20.064 32.0848 19.6648C32.2428 19.6293 32.3842 19.5412 32.4856 19.4149C32.587 19.2886 32.6425 19.1315 32.6429 18.9695V16.7076C33.5914 16.5552 34.54 16.4324 35.5 16.4286C36.46 16.4286 37.4124 16.5476 38.3571 16.6962V18.9619C38.3571 19.301 38.5876 19.5905 38.9152 19.6648C40.6949 20.0582 42.3922 20.7595 43.9305 21.7371C44.0679 21.8238 44.2305 21.8615 44.392 21.844C44.5535 21.8265 44.7043 21.755 44.82 21.641L46.3829 20.0781C47.9306 21.206 49.2935 22.5676 50.4229 24.1143L48.8638 25.681C48.7485 25.7956 48.6758 25.9461 48.6576 26.1077C48.6394 26.2692 48.6769 26.4321 48.7638 26.5695C49.7408 28.1072 50.4433 29.8029 50.84 31.581C50.8749 31.7393 50.9629 31.8809 51.0894 31.9824C51.2158 32.0839 51.3731 32.1392 51.5352 32.139H53.8048C53.9486 33.0876 54.0714 34.04 54.0714 35C54.0676 35.96 53.9486 36.9086 53.7962 37.8571Z" fill="#F27922"/>
<path d="M35.463 34.2857H35.5002C35.9021 34.2857 36.2106 34.5943 36.2106 35C36.2106 35.4019 35.9021 35.7143 35.5002 35.7143C35.0982 35.7143 34.7821 35.4019 34.7821 35C34.7821 34.6095 35.0763 34.3048 35.463 34.2857ZM35.5002 26.4286C30.7754 26.4286 26.9287 30.2714 26.9287 35C26.9269 36.1255 27.1474 37.2403 27.5778 38.2803C28.0081 39.3202 28.6397 40.2649 29.4363 41.06C29.5023 41.1272 29.581 41.1806 29.6678 41.2171C29.7547 41.2535 29.8479 41.2723 29.9421 41.2723C30.0362 41.2723 30.1295 41.2535 30.2163 41.2171C30.3031 41.1806 30.3818 41.1272 30.4478 41.06C30.5817 40.9256 30.6569 40.7436 30.6569 40.5538C30.6569 40.3641 30.5817 40.1821 30.4478 40.0476C29.7845 39.3851 29.2584 38.5982 28.8997 37.7321C28.541 36.8659 28.3567 35.9375 28.3573 35C28.3558 34.0618 28.5395 33.1324 28.898 32.2654C29.2565 31.3983 29.7826 30.6105 30.4463 29.9472C31.1099 29.284 31.8979 28.7582 32.7652 28.4002C33.6325 28.0422 34.5619 27.859 35.5002 27.861C37.1482 27.8562 38.7469 28.423 40.024 29.4648L36.423 33.0695C36.1353 32.9301 35.8198 32.8575 35.5002 32.8572C34.9331 32.8602 34.3902 33.087 33.9896 33.4883C33.589 33.8897 33.3631 34.433 33.3611 35C33.3611 36.1714 34.3249 37.1429 35.5002 37.1429C36.6754 37.1429 37.643 36.1714 37.643 35C37.6427 34.6815 37.57 34.3673 37.4306 34.081L37.4344 34.0772L41.0363 30.4762C42.0795 31.7528 42.6482 33.3514 42.6459 35C42.6455 35.9379 42.4604 36.8664 42.1011 37.7327C41.7417 38.599 41.2152 39.3859 40.5516 40.0486C40.2725 40.3314 40.2725 40.7819 40.5516 41.061C40.8306 41.34 41.2811 41.34 41.5602 41.061C42.3581 40.2664 42.991 39.322 43.4227 38.282C43.8543 37.242 44.0762 36.127 44.0754 35.001C44.0764 32.9742 43.3563 31.0132 42.044 29.4686L42.4344 29.0781C42.5686 28.9439 42.6439 28.7618 42.6438 28.5721C42.6437 28.3823 42.5682 28.2003 42.434 28.0662C42.2997 27.9321 42.1177 27.8568 41.9279 27.8569C41.7381 27.857 41.5562 27.9324 41.4221 28.0667L41.0278 28.4572C39.4841 27.1468 37.525 26.4278 35.5002 26.4286Z" fill="#F27922"/>
</g>
<path d="M0.5 90H33.5" stroke="#F27922" stroke-width="3"/>
<defs>
<clipPath id="clip0_879_8558">
<rect width="40" height="40" fill="white" transform="translate(15.5 15)"/>
</clipPath>
</defs>
</svg>
