<svg width="34" height="33" viewBox="0 0 34 33" fill="none" xmlns="http://www.w3.org/2000/svg">
<g id="Frame" clip-path="url(#clip0_879_1962)">
<g id="Group">
<path id="Vector" d="M32.4688 13.0195H30.35C30.0309 11.7925 29.5424 10.6159 28.8986 9.52359L30.399 8.02313C30.4829 7.93937 30.5494 7.8399 30.5948 7.73041C30.6402 7.62092 30.6636 7.50356 30.6636 7.38504C30.6636 7.26651 30.6402 7.14915 30.5948 7.03966C30.5494 6.93018 30.4829 6.83071 30.399 6.74695L26.753 3.10097C26.6693 3.01711 26.5698 2.95058 26.4603 2.90519C26.3508 2.8598 26.2335 2.83643 26.115 2.83643C25.9964 2.83643 25.8791 2.8598 25.7696 2.90519C25.6601 2.95058 25.5606 3.01711 25.4769 3.10097L23.9764 4.60144C22.8842 3.95753 21.7076 3.469 20.4805 3.14995V1.03125C20.4803 0.791975 20.3852 0.56254 20.216 0.393348C20.0468 0.224155 19.8174 0.129043 19.5781 0.128906H14.4219C14.1826 0.129043 13.9532 0.224155 13.784 0.393348C13.6148 0.56254 13.5197 0.791975 13.5195 1.03125V3.14995C12.2924 3.469 11.1158 3.95753 10.0236 4.60144L8.52313 3.10097C8.43937 3.01711 8.3399 2.95058 8.23041 2.90519C8.12092 2.8598 8.00356 2.83643 7.88504 2.83643C7.76651 2.83643 7.64915 2.8598 7.53966 2.90519C7.43018 2.95058 7.33071 3.01711 7.24695 3.10097L3.60097 6.74695C3.51711 6.83071 3.45058 6.93018 3.40519 7.03966C3.3598 7.14915 3.33643 7.26651 3.33643 7.38504C3.33643 7.50356 3.3598 7.62092 3.40519 7.73041C3.45058 7.8399 3.51711 7.93937 3.60097 8.02313L5.10144 9.52359C4.45762 10.6159 3.9691 11.7925 3.64995 13.0195H1.53125C1.29198 13.0197 1.06254 13.1148 0.893348 13.284C0.724155 13.4532 0.629043 13.6826 0.628906 13.9219V19.0781C0.629043 19.3174 0.724155 19.5468 0.893348 19.716C1.06254 19.8852 1.29198 19.9803 1.53125 19.9805H3.64995C3.9691 21.2075 4.45762 22.3841 5.10144 23.4764L3.60097 24.9769C3.51711 25.0606 3.45058 25.1601 3.40519 25.2696C3.3598 25.3791 3.33643 25.4964 3.33643 25.615C3.33643 25.7335 3.3598 25.8508 3.40519 25.9603C3.45058 26.0698 3.51711 26.1693 3.60097 26.253L7.24695 29.899C7.33071 29.9829 7.43018 30.0494 7.53966 30.0948C7.64915 30.1402 7.76651 30.1636 7.88504 30.1636C8.00356 30.1636 8.12092 30.1402 8.23041 30.0948C8.3399 30.0494 8.43937 29.9829 8.52313 29.899L10.0236 28.3986C11.1159 29.0424 12.2925 29.5309 13.5195 29.85V31.9688C13.5197 32.208 13.6148 32.4375 13.784 32.6067C13.9532 32.7758 14.1826 32.871 14.4219 32.8711H19.5781C19.8174 32.871 20.0468 32.7758 20.216 32.6067C20.3852 32.4375 20.4803 32.208 20.4805 31.9688V29.85C21.7075 29.5309 22.8841 29.0424 23.9764 28.3986L25.4769 29.899C25.5606 29.9829 25.6601 30.0494 25.7696 30.0948C25.8791 30.1402 25.9964 30.1636 26.115 30.1636C26.2335 30.1636 26.3508 30.1402 26.4603 30.0948C26.5698 30.0494 26.6693 29.9829 26.753 29.899L30.399 26.253C30.4829 26.1693 30.5494 26.0698 30.5948 25.9603C30.6402 25.8508 30.6636 25.7335 30.6636 25.615C30.6636 25.4964 30.6402 25.3791 30.5948 25.2696C30.5494 25.1601 30.4829 25.0606 30.399 24.9769L28.8986 23.4764C29.5424 22.3841 30.0309 21.2075 30.35 19.9805H32.4688C32.708 19.9803 32.9375 19.8852 33.1067 19.716C33.2758 19.5468 33.371 19.3174 33.3711 19.0781V13.9219C33.371 13.6826 33.2758 13.4532 33.1067 13.284C32.9375 13.1148 32.708 13.0197 32.4688 13.0195ZM31.5664 18.1758H29.6328C29.4248 18.1757 29.2232 18.2476 29.062 18.3791C28.9009 18.5107 28.7901 18.6938 28.7485 18.8977C28.4445 20.401 27.8518 21.8311 27.0031 23.1088C26.8886 23.282 26.8373 23.4896 26.8581 23.6962C26.8789 23.9029 26.9703 24.0961 27.1171 24.2431L28.4871 25.6132L26.1152 27.985L24.7452 26.615C24.598 26.4685 24.4049 26.3772 24.1983 26.3565C23.9917 26.3357 23.7842 26.3868 23.6108 26.5011C22.3336 27.3501 20.9039 27.9434 19.4007 28.248C19.1969 28.2896 19.0138 28.4003 18.8822 28.5615C18.7507 28.7226 18.6788 28.9243 18.6789 29.1323V31.0664H15.3273V29.1328C15.3274 28.9248 15.2555 28.7232 15.124 28.562C14.9924 28.4009 14.8093 28.2901 14.6054 28.2485C13.101 27.9449 11.6698 27.3521 10.3912 26.5031C10.2179 26.3889 10.0104 26.3378 9.8038 26.3586C9.59719 26.3793 9.40404 26.4706 9.25686 26.6171L7.88684 27.9871L5.51497 25.6152L6.88498 24.2452C7.03172 24.0982 7.12319 23.905 7.14396 23.6983C7.16472 23.4916 7.11349 23.2841 6.99894 23.1108C6.14988 21.8336 5.55661 20.4039 5.252 18.9007C5.21101 18.6963 5.10046 18.5123 4.93915 18.3801C4.77784 18.248 4.57573 18.1758 4.36719 18.1758H2.43359V14.8242H4.36719C4.57521 14.8243 4.77685 14.7524 4.93799 14.6209C5.09914 14.4893 5.20988 14.3062 5.25148 14.1023C5.55549 12.599 6.14824 11.1689 6.99688 9.89123C7.11143 9.71795 7.16265 9.51044 7.14189 9.30376C7.12113 9.09707 7.02965 8.90389 6.88292 8.75686L5.51497 7.38478L7.88684 5.01291L9.25686 6.38292C9.40421 6.53003 9.59785 6.62173 9.80503 6.64249C10.0122 6.66326 10.2202 6.61182 10.3938 6.49688C11.6708 5.64778 13.1004 5.05451 14.6034 4.74994C14.8067 4.70818 14.9895 4.59757 15.1208 4.43677C15.2521 4.27596 15.324 4.0748 15.3242 3.86719V1.93359H18.6758V3.86719C18.6757 4.07521 18.7476 4.27685 18.8791 4.43799C19.0107 4.59914 19.1938 4.70988 19.3977 4.75148C20.9009 5.05546 22.3308 5.64821 23.6083 6.49688C23.7816 6.61124 23.9891 6.66235 24.1957 6.64159C24.4023 6.62084 24.5955 6.52948 24.7426 6.38292L26.1126 5.01291L28.4845 7.38478L27.1145 8.7548C26.9678 8.90183 26.8763 9.09501 26.8555 9.30169C26.8348 9.50838 26.886 9.71589 27.0005 9.88917C27.8496 11.1664 28.4429 12.5961 28.7475 14.0992C28.7891 14.3031 28.8998 14.4862 29.061 14.6178C29.2221 14.7493 29.4238 14.8212 29.6318 14.8211H31.5664V18.1758Z" fill="#F27922"/>
<path id="Vector_2" d="M17 6.83203C15.0879 6.83203 13.2187 7.39905 11.6288 8.46138C10.0389 9.52371 8.79971 11.0336 8.06797 12.8002C7.33622 14.5668 7.14476 16.5107 7.5178 18.3861C7.89084 20.2615 8.81163 21.9842 10.1637 23.3363C11.5158 24.6884 13.2385 25.6092 15.1139 25.9822C16.9893 26.3552 18.9332 26.1638 20.6998 25.432C22.4664 24.7003 23.9763 23.4611 25.0386 21.8712C26.101 20.2813 26.668 18.4121 26.668 16.5C26.6651 13.9368 25.6456 11.4794 23.8331 9.66688C22.0206 7.8544 19.5632 6.8349 17 6.83203ZM17 24.3633C15.465 24.3615 13.9639 23.9112 12.6814 23.0676C11.3989 22.2241 10.3909 21.0242 9.78125 19.6154L11.7571 17.804L13.7299 20.1718C13.8102 20.268 13.9097 20.3465 14.022 20.4022C14.1344 20.4579 14.257 20.4896 14.3823 20.4953C14.5075 20.501 14.6326 20.4805 14.7495 20.4352C14.8664 20.3899 14.9726 20.3207 15.0613 20.2321L19.7081 15.5848V16.5C19.7081 16.7393 19.8031 16.9688 19.9724 17.1381C20.1416 17.3073 20.3711 17.4023 20.6104 17.4023C20.8497 17.4023 21.0792 17.3073 21.2485 17.1381C21.4177 16.9688 21.5128 16.7393 21.5128 16.5V13.4062C21.5127 13.2877 21.4893 13.1703 21.4438 13.0608C21.3984 12.9513 21.3318 12.8518 21.2479 12.768C21.1641 12.6842 21.0645 12.6177 20.9549 12.5724C20.8454 12.5271 20.7279 12.5038 20.6094 12.5039H17.5156C17.2763 12.5039 17.0468 12.599 16.8776 12.7682C16.7084 12.9374 16.6133 13.1669 16.6133 13.4062C16.6133 13.6456 16.7084 13.8751 16.8776 14.0443C17.0468 14.2135 17.2763 14.3086 17.5156 14.3086H18.4309L14.4822 18.2567L12.5368 15.9225C12.4587 15.8287 12.3623 15.7517 12.2536 15.6963C12.1449 15.6408 12.0261 15.608 11.9043 15.5998C11.7825 15.5916 11.6603 15.6082 11.5452 15.6486C11.43 15.689 11.3242 15.7524 11.2343 15.8348L9.22335 17.6767C8.98311 16.0893 9.23452 14.4664 9.94379 13.0261C10.6531 11.5858 11.7862 10.3971 13.1909 9.61983C14.5957 8.84251 16.2047 8.51381 17.8017 8.67789C19.3988 8.84198 20.9074 9.49098 22.1247 10.5377C23.342 11.5844 24.2098 12.9786 24.6114 14.5331C25.013 16.0875 24.9292 17.7276 24.3712 19.233C23.8132 20.7383 22.8078 22.0368 21.49 22.954C20.1723 23.8711 18.6055 24.3629 17 24.3633Z" fill="#F27922"/>
</g>
</g>
<defs>
<clipPath id="clip0_879_1962">
<rect width="33" height="33" fill="white" transform="translate(0.5)"/>
</clipPath>
</defs>
</svg>
