<svg width="33" height="31" viewBox="0 0 33 31" fill="none" xmlns="http://www.w3.org/2000/svg">
<g id="Group">
<path id="Vector" d="M1 9.08304H29.4699" stroke="#828282" stroke-width="1.5" stroke-miterlimit="10" stroke-linecap="round" stroke-linejoin="round"/>
<path id="Vector_2" d="M6.219 6.42322C7.0375 6.42322 7.70537 5.75747 7.70537 4.93941C7.70537 4.12134 7.0375 3.45559 6.219 3.45559C5.40231 3.45559 4.73438 4.12134 4.73438 4.93941C4.73438 5.75747 5.40231 6.42322 6.219 6.42322Z" stroke="#828282" stroke-width="1.5" stroke-miterlimit="10" stroke-linecap="round" stroke-linejoin="round"/>
<path id="Vector_3" d="M19.1213 3.45559H24.7126C25.5293 3.45559 26.1972 4.12316 26.1972 4.93941C26.1972 5.75572 25.5293 6.42322 24.7126 6.42322H19.1213C18.3047 6.42322 17.6367 5.75572 17.6367 4.93941C17.6367 4.12316 18.3047 3.45559 19.1213 3.45559Z" stroke="#828282" stroke-width="1.5" stroke-miterlimit="10" stroke-linecap="round" stroke-linejoin="round"/>
<path id="Vector_4" d="M11.7004 6.42321C12.5189 6.42321 13.1868 5.75746 13.1868 4.9394C13.1868 4.12134 12.5189 3.45559 11.7004 3.45559C10.8838 3.45559 10.2158 4.12134 10.2158 4.9394C10.2158 5.75746 10.8838 6.42321 11.7004 6.42321Z" stroke="#828282" stroke-width="1.5" stroke-miterlimit="10" stroke-linecap="round" stroke-linejoin="round"/>
<path id="Vector_5" d="M10.5262 13.8904L9.27539 19.1246" stroke="#828282" stroke-width="1.5" stroke-miterlimit="10" stroke-linecap="round" stroke-linejoin="round"/>
<path id="Vector_6" d="M13.4062 18.6518L15.1761 16.665C15.254 16.5783 15.254 16.4367 15.1761 16.3499L13.4062 14.3632" stroke="#828282" stroke-width="1.5" stroke-miterlimit="10" stroke-linecap="round" stroke-linejoin="round"/>
<path id="Vector_7" d="M6.39472 18.6518L4.62491 16.665C4.54691 16.5783 4.54691 16.4367 4.62491 16.3499L6.39472 14.3632" stroke="#828282" stroke-width="1.5" stroke-miterlimit="10" stroke-linecap="round" stroke-linejoin="round"/>
<path id="Vector_8" d="M25.6569 16.6525C26.3408 16.8048 26.9803 17.0739 27.5561 17.4351L28.0681 16.9252C28.3711 16.6206 28.8689 16.6206 29.1736 16.9252L29.9797 17.7309C30.2844 18.0354 30.2844 18.533 29.9797 18.8358L29.4694 19.3475C29.8339 19.9257 30.0975 20.5616 30.249 21.228H30.9664C31.397 21.228 31.7495 21.5804 31.7495 22.0089V23.151C31.7495 23.5794 31.397 23.9318 30.9664 23.9318H30.2454C30.0936 24.5942 29.8312 25.2264 29.4694 25.8017L29.9797 26.3116C30.2844 26.6162 30.2844 27.1138 29.9797 27.4166L29.1736 28.224C28.8689 28.5286 28.3711 28.5286 28.0681 28.224L27.5561 27.714C26.9785 28.0773 26.3436 28.3401 25.6782 28.4914V29.2173C25.6782 29.6476 25.3256 30 24.8969 30H23.7543C23.3254 30 22.9729 29.6476 22.9729 29.2173V28.4896C22.2997 28.3373 21.6673 28.0699 21.0985 27.714L20.5883 28.224C20.2836 28.5286 19.7858 28.5286 19.4828 28.224L18.675 27.4166C18.372 27.1138 18.372 26.6162 18.675 26.3116L19.1869 25.8017C18.8239 25.2268 18.561 24.5946 18.4093 23.9318H17.6846C17.2542 23.9318 16.9033 23.5794 16.9033 23.151V22.0089C16.9033 21.5804 17.2542 21.228 17.6846 21.228H18.4075C18.5574 20.5692 18.8167 19.9401 19.1746 19.367L18.6608 18.8518C18.3561 18.5489 18.3561 18.0514 18.6608 17.7468L19.4669 16.9411C19.7716 16.6366 20.2694 16.6366 20.5724 16.9411L21.0808 17.4476C21.6561 17.0831 22.2885 16.818 22.9517 16.6631V15.9425C22.9517 15.5122 23.3024 15.1598 23.7329 15.1598H24.8739C25.3044 15.1598 25.6569 15.5122 25.6569 15.9425V16.6525Z" stroke="#828282" stroke-width="1.5" stroke-miterlimit="10" stroke-linecap="round" stroke-linejoin="round"/>
<path id="Vector_9" d="M24.3271 19.36C26.1058 19.36 27.5479 20.8014 27.5479 22.5809C27.5479 24.3587 26.1058 25.8 24.3271 25.8C22.5467 25.8 21.1045 24.3587 21.1045 22.5809C21.1045 20.8014 22.5467 19.36 24.3271 19.36Z" stroke="#828282" stroke-width="1.5" stroke-miterlimit="10" stroke-linecap="round" stroke-linejoin="round"/>
<path id="Vector_10" d="M7.02706 23.9321H3.32787C2.04887 23.9321 1 22.6803 1 21.1522V3.53027C1 2.00046 2.047 0.750333 3.32787 0.750333H27.1421C28.4229 0.750333 29.4699 2.00221 29.4699 3.53027V17.2213M17.6851 23.9321H12.613" stroke="#828282" stroke-width="1.5" stroke-miterlimit="10" stroke-linecap="round" stroke-linejoin="round"/>
<path id="Vector_11" d="M9.82617 23.9321H9.83855" stroke="#828282" stroke-width="1.5" stroke-miterlimit="10" stroke-linecap="round" stroke-linejoin="round"/>
</g>
</svg>
