<svg width="67" height="92" viewBox="0 0 67 92" fill="none" xmlns="http://www.w3.org/2000/svg">
<rect opacity="0.5" x="0.5" width="66" height="66" rx="9" fill="#FDF1E9"/>
<mask id="mask0_879_8531" style="mask-type:luminance" maskUnits="userSpaceOnUse" x="16" y="14" width="41" height="41">
<path d="M16.5 14.9999H56.5V54.9999H16.5V14.9999Z" fill="white"/>
</mask>
<g mask="url(#mask0_879_8531)">
<path d="M17.2812 27.1349H52.8687" stroke="#F27922" stroke-width="1.5" stroke-miterlimit="10" stroke-linecap="round" stroke-linejoin="round"/>
<path d="M23.806 23.8102C24.8291 23.8102 25.6639 22.978 25.6639 21.9554C25.6639 20.9328 24.8291 20.1006 23.806 20.1006C22.7851 20.1006 21.9502 20.9328 21.9502 21.9554C21.9502 22.978 22.7851 23.8102 23.806 23.8102Z" stroke="#F27922" stroke-width="1.5" stroke-miterlimit="10" stroke-linecap="round" stroke-linejoin="round"/>
<path d="M39.9339 20.1006H46.923C47.9438 20.1006 48.7787 20.9351 48.7787 21.9554C48.7787 22.9758 47.9438 23.8102 46.923 23.8102H39.9339C38.913 23.8102 38.0781 22.9758 38.0781 21.9554C38.0781 20.9351 38.913 20.1006 39.9339 20.1006Z" stroke="#F27922" stroke-width="1.5" stroke-miterlimit="10" stroke-linecap="round" stroke-linejoin="round"/>
<path d="M30.6575 23.8102C31.6807 23.8102 32.5155 22.978 32.5155 21.9554C32.5155 20.9328 31.6807 20.1006 30.6575 20.1006C29.6367 20.1006 28.8018 20.9328 28.8018 21.9554C28.8018 22.978 29.6367 23.8102 30.6575 23.8102Z" stroke="#F27922" stroke-width="1.5" stroke-miterlimit="10" stroke-linecap="round" stroke-linejoin="round"/>
<path d="M29.1885 33.1439L27.625 39.6866" stroke="#F27922" stroke-width="1.5" stroke-miterlimit="10" stroke-linecap="round" stroke-linejoin="round"/>
<path d="M32.7891 39.0957L35.0013 36.6123C35.0987 36.5038 35.0987 36.3268 35.0013 36.2184L32.7891 33.7349" stroke="#F27922" stroke-width="1.5" stroke-miterlimit="10" stroke-linecap="round" stroke-linejoin="round"/>
<path d="M24.0256 39.0957L21.8134 36.6123C21.7159 36.5038 21.7159 36.3268 21.8134 36.2184L24.0256 33.7349" stroke="#F27922" stroke-width="1.5" stroke-miterlimit="10" stroke-linecap="round" stroke-linejoin="round"/>
<path d="M48.1032 36.5968C48.9579 36.7871 49.7574 37.1236 50.4771 37.575L51.1171 36.9376C51.4958 36.5569 52.1181 36.5569 52.499 36.9376L53.5066 37.9447C53.8875 38.3254 53.8875 38.9474 53.5066 39.3259L52.8688 39.9655C53.3243 40.6882 53.6539 41.4831 53.8432 42.3161H54.74C55.2782 42.3161 55.7189 42.7566 55.7189 43.2922V44.7199C55.7189 45.2554 55.2782 45.6959 54.74 45.6959H53.8388C53.6489 46.5239 53.321 47.3141 52.8688 48.0332L53.5066 48.6707C53.8875 49.0514 53.8875 49.6733 53.5066 50.0518L52.499 51.0611C52.1181 51.4418 51.4958 51.4418 51.1171 51.0611L50.4771 50.4236C49.7551 50.8777 48.9614 51.2063 48.1297 51.3953V52.3028C48.1297 52.8407 47.689 53.2811 47.1532 53.2811H45.7248C45.1888 53.2811 44.7482 52.8407 44.7482 52.3028V51.3932C43.9066 51.2028 43.1161 50.8685 42.4051 50.4236L41.7674 51.0611C41.3864 51.4418 40.7643 51.4418 40.3855 51.0611L39.3757 50.0518C38.997 49.6733 38.997 49.0514 39.3757 48.6707L40.0157 48.0332C39.5619 47.3147 39.2332 46.5243 39.0436 45.6959H38.1378C37.5997 45.6959 37.1611 45.2554 37.1611 44.7199V43.2922C37.1611 42.7566 37.5997 42.3161 38.1378 42.3161H39.0414C39.2288 41.4926 39.5529 40.7063 40.0002 39.9899L39.358 39.3458C38.9771 38.9673 38.9771 38.3453 39.358 37.9646L40.3656 36.9575C40.7465 36.5768 41.3688 36.5768 41.7475 36.9575L42.383 37.5906C43.1021 37.135 43.8926 36.8036 44.7216 36.61V35.7093C44.7216 35.1714 45.16 34.7309 45.6982 34.7309H47.1243C47.6625 34.7309 48.1032 35.1714 48.1032 35.7093V36.5968Z" stroke="#F27922" stroke-width="1.5" stroke-miterlimit="10" stroke-linecap="round" stroke-linejoin="round"/>
<path d="M46.4404 39.9811C48.6638 39.9811 50.4664 41.7828 50.4664 44.0072C50.4664 46.2295 48.6638 48.0311 46.4404 48.0311C44.2148 48.0311 42.4121 46.2295 42.4121 44.0072C42.4121 41.7828 44.2148 39.9811 46.4404 39.9811Z" stroke="#F27922" stroke-width="1.5" stroke-miterlimit="10" stroke-linecap="round" stroke-linejoin="round"/>
<path d="M24.8151 45.696H20.1911C18.5923 45.696 17.2812 44.1313 17.2812 42.2211V20.1937C17.2812 18.2814 18.59 16.7188 20.1911 16.7188H49.9588C51.5599 16.7188 52.8687 18.2836 52.8687 20.1937V37.3075M38.1377 45.696H31.7975" stroke="#F27922" stroke-width="1.5" stroke-miterlimit="10" stroke-linecap="round" stroke-linejoin="round"/>
<path d="M28.3135 45.696H28.3289" stroke="#F27922" stroke-width="1.5" stroke-miterlimit="10" stroke-linecap="round" stroke-linejoin="round"/>
</g>
<path d="M0.5 90H33.5" stroke="#F27922" stroke-width="3"/>
</svg>
