<svg width="318" height="151" viewBox="0 0 318 151" fill="none" xmlns="http://www.w3.org/2000/svg">
<rect x="0.5" width="317" height="100" rx="20" fill="#F27922"/>
<path d="M151.243 76.9971C149.452 62.1491 142.244 48.4843 131.002 38.621C119.76 28.7577 105.274 23.3896 90.3192 23.5453C75.3644 23.701 60.993 29.3695 49.9587 39.4647C38.9244 49.56 32.0032 63.3718 30.5215 78.2538L36.5645 78.8555C37.898 65.4617 44.1271 53.031 54.0579 43.9453C63.9888 34.8596 76.9231 29.7579 90.3824 29.6178C103.842 29.4777 116.879 34.309 126.997 43.186C137.115 52.063 143.602 64.3613 145.214 77.7244L151.243 76.9971Z" fill="#D8D8D8"/>
<mask id="path-3-inside-1_2120_1120" fill="white">
<path d="M24.8376 77.5813C26.5044 61.1075 34.2615 45.8495 46.5893 34.7957C58.9172 23.7419 74.9277 17.6887 91.485 17.8217L91.3413 35.7158C79.2427 35.6186 67.5436 40.0418 58.5356 48.1189C49.5275 56.196 43.8593 67.3452 42.6413 79.3827L24.8376 77.5813Z"/>
</mask>
<path d="M24.8376 77.5813C26.5044 61.1075 34.2615 45.8495 46.5893 34.7957C58.9172 23.7419 74.9277 17.6887 91.485 17.8217L91.3413 35.7158C79.2427 35.6186 67.5436 40.0418 58.5356 48.1189C49.5275 56.196 43.8593 67.3452 42.6413 79.3827L24.8376 77.5813Z" fill="white" stroke="white" stroke-width="1.76494" mask="url(#path-3-inside-1_2120_1120)"/>
<line x1="91.773" y1="7" x2="91.773" y2="52.3555" stroke="white" stroke-width="0.711971"/>
<path d="M72.2898 76.2386C71.0852 76.2386 70.0114 76.017 69.0682 75.5739C68.1307 75.1307 67.3864 74.5199 66.8352 73.7415C66.2841 72.9631 65.9972 72.071 65.9744 71.0653H69.554C69.5938 71.7415 69.8778 72.2898 70.4062 72.7102C70.9347 73.1307 71.5625 73.3409 72.2898 73.3409C72.8693 73.3409 73.3807 73.2131 73.8239 72.9574C74.2727 72.696 74.6222 72.3352 74.8722 71.875C75.1278 71.4091 75.2557 70.875 75.2557 70.2727C75.2557 69.6591 75.125 69.1193 74.8636 68.6534C74.608 68.1875 74.2528 67.8239 73.7983 67.5625C73.3438 67.3011 72.8239 67.1676 72.2386 67.1619C71.7273 67.1619 71.2301 67.267 70.7472 67.4773C70.2699 67.6875 69.8977 67.9744 69.6307 68.3381L66.3494 67.75L67.1761 58.5455H77.8466V61.5625H70.2188L69.767 65.9347H69.8693C70.1761 65.5028 70.6392 65.1449 71.2585 64.8608C71.8778 64.5767 72.571 64.4347 73.3381 64.4347C74.3892 64.4347 75.3267 64.6818 76.1506 65.1761C76.9744 65.6705 77.625 66.3494 78.1023 67.2131C78.5795 68.071 78.8153 69.0597 78.8097 70.179C78.8153 71.3551 78.5426 72.4006 77.9915 73.3153C77.446 74.2244 76.6818 74.9403 75.6989 75.4631C74.7216 75.9801 73.5852 76.2386 72.2898 76.2386ZM88.2273 76.3835C86.7614 76.3778 85.5 76.017 84.4432 75.3011C83.392 74.5852 82.5824 73.5483 82.0142 72.1903C81.4517 70.8324 81.1733 69.1989 81.179 67.2898C81.179 65.3864 81.4602 63.7642 82.0227 62.4233C82.5909 61.0824 83.4006 60.0625 84.4517 59.3636C85.5085 58.6591 86.767 58.3068 88.2273 58.3068C89.6875 58.3068 90.9432 58.6591 91.9943 59.3636C93.0511 60.0682 93.8636 61.0909 94.4318 62.4318C95 63.767 95.2813 65.3864 95.2756 67.2898C95.2756 69.2045 94.9915 70.8409 94.4233 72.1989C93.8608 73.5568 93.054 74.5937 92.0028 75.3097C90.9517 76.0256 89.6932 76.3835 88.2273 76.3835ZM88.2273 73.3239C89.2273 73.3239 90.0256 72.821 90.6222 71.8153C91.2188 70.8097 91.5142 69.3011 91.5085 67.2898C91.5085 65.9659 91.3722 64.8636 91.0994 63.983C90.8324 63.1023 90.4517 62.4403 89.9574 61.9972C89.4688 61.554 88.892 61.3324 88.2273 61.3324C87.233 61.3324 86.4375 61.8295 85.8409 62.8239C85.2443 63.8182 84.9432 65.3068 84.9375 67.2898C84.9375 68.6307 85.071 69.75 85.3381 70.6477C85.6108 71.5398 85.9943 72.2102 86.4886 72.6591C86.983 73.1023 87.5625 73.3239 88.2273 73.3239ZM107.461 72.7273V71.8068C107.461 71.108 107.609 70.4659 107.904 69.8807C108.205 69.2898 108.64 68.8182 109.208 68.4659C109.782 68.108 110.481 67.929 111.305 67.929C112.14 67.929 112.842 68.1051 113.41 68.4574C113.984 68.8097 114.415 69.2812 114.705 69.8722C115.001 70.4574 115.148 71.1023 115.148 71.8068V72.7273C115.148 73.4261 115.001 74.071 114.705 74.6619C114.41 75.2472 113.975 75.7159 113.401 76.0682C112.827 76.4261 112.129 76.6051 111.305 76.6051C110.469 76.6051 109.768 76.4261 109.2 76.0682C108.631 75.7159 108.2 75.2472 107.904 74.6619C107.609 74.071 107.461 73.4261 107.461 72.7273ZM109.941 71.8068V72.7273C109.941 73.1307 110.038 73.5114 110.231 73.8693C110.43 74.2273 110.788 74.4062 111.305 74.4062C111.822 74.4062 112.174 74.2301 112.362 73.8778C112.555 73.5256 112.651 73.142 112.651 72.7273V71.8068C112.651 71.392 112.56 71.0057 112.379 70.6477C112.197 70.2898 111.839 70.1108 111.305 70.1108C110.793 70.1108 110.438 70.2898 110.239 70.6477C110.04 71.0057 109.941 71.392 109.941 71.8068ZM98.5036 62.7386V61.8182C98.5036 61.1136 98.6541 60.4687 98.9553 59.8835C99.2564 59.2926 99.6911 58.821 100.259 58.4688C100.833 58.1165 101.526 57.9403 102.339 57.9403C103.18 57.9403 103.884 58.1165 104.452 58.4688C105.021 58.821 105.452 59.2926 105.748 59.8835C106.043 60.4687 106.191 61.1136 106.191 61.8182V62.7386C106.191 63.4432 106.04 64.0881 105.739 64.6733C105.444 65.2585 105.009 65.7273 104.435 66.0795C103.867 66.4261 103.168 66.5994 102.339 66.5994C101.509 66.5994 100.808 66.4233 100.234 66.071C99.6655 65.7131 99.2337 65.2443 98.9382 64.6648C98.6484 64.0795 98.5036 63.4375 98.5036 62.7386ZM101.001 61.8182V62.7386C101.001 63.1534 101.097 63.5369 101.29 63.8892C101.489 64.2415 101.839 64.4176 102.339 64.4176C102.862 64.4176 103.217 64.2415 103.404 63.8892C103.597 63.5369 103.694 63.1534 103.694 62.7386V61.8182C103.694 61.4034 103.603 61.017 103.421 60.6591C103.239 60.3011 102.879 60.1222 102.339 60.1222C101.833 60.1222 101.484 60.304 101.29 60.6676C101.097 61.0312 101.001 61.4148 101.001 61.8182ZM99.6286 76L111.629 58.5455H113.862L101.862 76H99.6286Z" fill="white"/>
<path d="M171.9 39V24.84H175.02V39H171.9ZM177.478 39V29.28H180.358V30.6H180.398C180.798 29.84 181.778 29.04 183.238 29.04C186.278 29.04 186.838 31.04 186.838 33.64V39H183.838V34.24C183.838 33.12 183.818 31.68 182.278 31.68C180.718 31.68 180.478 32.9 180.478 34.16V39H177.478ZM197.522 30.34L195.542 32.42C195.242 32 194.682 31.68 194.062 31.68C192.562 31.68 191.662 32.68 191.662 34.14C191.662 35.6 192.562 36.6 194.062 36.6C194.722 36.6 195.202 36.26 195.542 35.86L197.522 37.94C196.582 38.9 195.202 39.24 194.062 39.24C191.062 39.24 188.662 37.24 188.662 34.14C188.662 31.04 191.062 29.04 194.062 29.04C195.202 29.04 196.582 29.38 197.522 30.34ZM198.611 39V29.28H201.611V30.84H201.651C202.291 29.66 203.131 29.04 204.451 29.04C204.791 29.04 205.171 29.06 205.451 29.14V31.88C205.031 31.76 204.611 31.68 204.171 31.68C201.891 31.68 201.611 33 201.611 34.94V39H198.611ZM213.504 35.78L215.604 37.32C214.644 38.54 213.064 39.24 211.504 39.24C208.504 39.24 206.104 37.24 206.104 34.14C206.104 31.04 208.504 29.04 211.504 29.04C214.304 29.04 216.064 31.04 216.064 34.14V35.08H209.104C209.344 36.22 210.204 36.96 211.364 36.96C212.344 36.96 213.004 36.46 213.504 35.78ZM209.104 33.04H213.064C213.084 32.04 212.304 31.2 211.224 31.2C209.904 31.2 209.184 32.1 209.104 33.04ZM223.988 39V37.78H223.948C223.288 38.82 222.088 39.24 220.868 39.24C219.048 39.24 217.408 38.2 217.408 36.24C217.408 32.88 221.488 32.82 223.988 32.82C223.988 31.76 223.108 31.08 222.068 31.08C221.088 31.08 220.268 31.52 219.628 32.24L218.028 30.6C219.128 29.56 220.728 29.04 222.308 29.04C225.808 29.04 226.748 30.82 226.748 34.06V39H223.988ZM223.988 34.74H223.248C222.328 34.74 220.288 34.82 220.288 36.14C220.288 36.86 221.048 37.2 221.708 37.2C222.888 37.2 223.988 36.58 223.988 35.38V34.74ZM235.97 30.32L234.13 32.14C233.69 31.6 233.11 31.32 232.39 31.32C231.89 31.32 231.29 31.54 231.29 32.12C231.29 33.56 236.35 32.34 236.35 36.04C236.35 38.52 233.95 39.24 231.87 39.24C230.51 39.24 229.01 38.9 228.05 37.92L229.87 35.9C230.43 36.58 231.09 36.96 231.99 36.96C232.67 36.96 233.35 36.78 233.35 36.26C233.35 34.7 228.29 36.02 228.29 32.32C228.29 30.04 230.33 29.04 232.37 29.04C233.65 29.04 235.07 29.36 235.97 30.32ZM244.988 35.78L247.088 37.32C246.128 38.54 244.548 39.24 242.988 39.24C239.988 39.24 237.588 37.24 237.588 34.14C237.588 31.04 239.988 29.04 242.988 29.04C245.788 29.04 247.548 31.04 247.548 34.14V35.08H240.588C240.828 36.22 241.688 36.96 242.848 36.96C243.828 36.96 244.488 36.46 244.988 35.78ZM240.588 33.04H244.548C244.568 32.04 243.788 31.2 242.708 31.2C241.388 31.2 240.668 32.1 240.588 33.04ZM255.63 39V24.84H258.75V39H255.63ZM261.208 39V29.28H264.088V30.6H264.128C264.528 29.84 265.508 29.04 266.968 29.04C270.008 29.04 270.568 31.04 270.568 33.64V39H267.568V34.24C267.568 33.12 267.548 31.68 266.008 31.68C264.448 31.68 264.208 32.9 264.208 34.16V39H261.208ZM172.06 71V56.84H181.68V59.72H175.18V62.36H181.32V65.24H175.18V68.12H182.04V71H172.06ZM185.198 71V63.68H183.218V61.28H185.198V59.56C185.198 57.44 185.738 55.64 188.998 55.64C189.598 55.64 190.198 55.68 190.758 55.82L190.618 58.36C190.278 58.24 189.998 58.16 189.638 58.16C188.678 58.16 188.198 58.46 188.198 59.74V61.28H190.418V63.68H188.198V71H185.198ZM198.648 71V61.28H201.648V71H198.648ZM198.408 58.22C198.408 57.26 199.188 56.48 200.148 56.48C201.108 56.48 201.888 57.26 201.888 58.22C201.888 59.18 201.108 59.96 200.148 59.96C199.188 59.96 198.408 59.18 198.408 58.22ZM192.248 71V63.68H190.268V61.28H192.248V59.56C192.248 57.44 192.788 55.64 196.048 55.64C196.648 55.64 197.248 55.68 197.808 55.82L197.668 58.36C197.328 58.24 197.048 58.16 196.688 58.16C195.728 58.16 195.248 58.46 195.248 59.74V61.28H197.468V63.68H195.248V71H192.248ZM212.366 62.34L210.386 64.42C210.086 64 209.526 63.68 208.906 63.68C207.406 63.68 206.506 64.68 206.506 66.14C206.506 67.6 207.406 68.6 208.906 68.6C209.566 68.6 210.046 68.26 210.386 67.86L212.366 69.94C211.426 70.9 210.046 71.24 208.906 71.24C205.906 71.24 203.506 69.24 203.506 66.14C203.506 63.04 205.906 61.04 208.906 61.04C210.046 61.04 211.426 61.38 212.366 62.34ZM213.495 71V61.28H216.495V71H213.495ZM213.255 58.22C213.255 57.26 214.035 56.48 214.995 56.48C215.955 56.48 216.735 57.26 216.735 58.22C216.735 59.18 215.955 59.96 214.995 59.96C214.035 59.96 213.255 59.18 213.255 58.22ZM225.75 67.78L227.85 69.32C226.89 70.54 225.31 71.24 223.75 71.24C220.75 71.24 218.35 69.24 218.35 66.14C218.35 63.04 220.75 61.04 223.75 61.04C226.55 61.04 228.31 63.04 228.31 66.14V67.08H221.35C221.59 68.22 222.45 68.96 223.61 68.96C224.59 68.96 225.25 68.46 225.75 67.78ZM221.35 65.04H225.31C225.33 64.04 224.55 63.2 223.47 63.2C222.15 63.2 221.43 64.1 221.35 65.04ZM230.134 71V61.28H233.014V62.6H233.054C233.454 61.84 234.434 61.04 235.894 61.04C238.934 61.04 239.494 63.04 239.494 65.64V71H236.494V66.24C236.494 65.12 236.474 63.68 234.934 63.68C233.374 63.68 233.134 64.9 233.134 66.16V71H230.134ZM250.179 62.34L248.199 64.42C247.899 64 247.339 63.68 246.719 63.68C245.219 63.68 244.319 64.68 244.319 66.14C244.319 67.6 245.219 68.6 246.719 68.6C247.379 68.6 247.859 68.26 248.199 67.86L250.179 69.94C249.239 70.9 247.859 71.24 246.719 71.24C243.719 71.24 241.319 69.24 241.319 66.14C241.319 63.04 243.719 61.04 246.719 61.04C247.859 61.04 249.239 61.38 250.179 62.34ZM261.267 61.28L256.867 72.58C256.067 74.64 255.607 75.8 252.747 75.8C251.987 75.8 251.227 75.68 250.507 75.44L250.907 72.98C251.367 73.18 251.807 73.28 252.307 73.28C253.667 73.28 253.887 72.7 254.307 71.64L254.527 71.08L250.267 61.28H253.507L256.007 67.7H256.047L258.187 61.28H261.267Z" fill="white"/>
</svg>
