<svg width="237" height="45" viewBox="0 0 237 45" fill="none" xmlns="http://www.w3.org/2000/svg">
<g id="SocialMedia">
<g id="Component 40 &#226;&#128;&#147; 1">
<path id="Ellipse 597" d="M22.5 45C34.9264 45 45 34.9264 45 22.5C45 10.0736 34.9264 0 22.5 0C10.0736 0 0 10.0736 0 22.5C0 34.9264 10.0736 45 22.5 45Z" fill="#565656"/>
<path id="Icon awesome-facebook-f" d="M26.9499 23.695L27.4809 20.239H24.1609V17.989C24.1376 17.7305 24.1728 17.4701 24.2639 17.227C24.3549 16.984 24.4995 16.7645 24.6868 16.5849C24.8742 16.4053 25.0996 16.2702 25.3463 16.1896C25.593 16.1089 25.8546 16.0848 26.1119 16.119H27.6219V13.173C26.7355 13.0297 25.8398 12.9515 24.9419 12.939C22.2069 12.939 20.4189 14.596 20.4189 17.597V20.239H17.3789V23.7H20.4189V32.066H24.1609V23.695H26.9499Z" fill="white"/>
</g>
<g id="Component 41 &#226;&#128;&#147; 1">
<path id="Ellipse 598" d="M86.5 45C98.9264 45 109 34.9264 109 22.5C109 10.0736 98.9264 0 86.5 0C74.0736 0 64 10.0736 64 22.5C64 34.9264 74.0736 45 86.5 45Z" fill="#565656"/>
<path id="Icon ionic-logo-twitter" d="M97.5 15.1691C96.6571 15.5416 95.7638 15.7873 94.849 15.8981C95.8136 15.3211 96.5354 14.413 96.88 13.3431C95.9742 13.8821 94.9824 14.261 93.948 14.4631C93.3153 13.7864 92.4936 13.3158 91.5898 13.1125C90.6859 12.9092 89.7419 12.9826 88.8803 13.3232C88.0188 13.6638 87.2797 14.2557 86.7593 15.0221C86.2388 15.7884 85.961 16.6937 85.962 17.6201C85.9601 17.9749 86.0001 18.3286 86.081 18.6741C84.2443 18.5831 82.4474 18.106 80.8075 17.2737C79.1677 16.4415 77.7217 15.2729 76.564 13.8441C75.9735 14.862 75.7932 16.0666 76.0598 17.2128C76.3264 18.3589 77.0199 19.3603 77.999 20.0131C77.2623 19.9952 76.5413 19.7971 75.899 19.4361V19.4931C75.8986 20.5589 76.2668 21.5921 76.9411 22.4175C77.6155 23.243 78.5545 23.8098 79.599 24.0221C79.2026 24.1296 78.7937 24.1841 78.383 24.1841C78.0915 24.1845 77.8007 24.1557 77.515 24.0981C77.8099 25.0175 78.3854 25.8214 79.1605 26.3971C79.9356 26.9728 80.8716 27.2914 81.837 27.3081C80.2017 28.5936 78.181 29.2908 76.101 29.2871C75.7333 29.2864 75.366 29.264 75.001 29.2201C77.1032 30.5882 79.5587 31.3138 82.067 31.3081C83.7968 31.3199 85.5117 30.9879 87.1121 30.3312C88.7125 29.6745 90.1664 28.7063 91.3894 27.4829C92.6123 26.2595 93.5799 24.8052 94.236 23.2046C94.8921 21.604 95.2235 19.8889 95.211 18.1591C95.211 17.9591 95.211 17.7591 95.197 17.5591C96.1003 16.9053 96.8801 16.096 97.5 15.1691Z" fill="white"/>
</g>
<g id="Component 43 &#226;&#128;&#147; 1">
<path id="Ellipse 600" d="M214.5 45C226.926 45 237 34.9264 237 22.5C237 10.0736 226.926 0 214.5 0C202.074 0 192 10.0736 192 22.5C192 34.9264 202.074 45 214.5 45Z" fill="#565656"/>
<g id="svgexport-6 (73)">
<path id="Path 87" d="M207.322 13C207.03 12.9766 206.737 13.0135 206.459 13.1083C206.182 13.2032 205.927 13.354 205.711 13.5513C205.494 13.7487 205.321 13.9885 205.2 14.2558C205.08 14.523 205.017 14.8121 205.013 15.1051C205.009 15.3981 205.066 15.6887 205.179 15.9589C205.292 16.2291 205.46 16.4732 205.671 16.676C205.883 16.8788 206.134 17.036 206.408 17.1378C206.683 17.2397 206.976 17.284 207.268 17.268H207.295C207.589 17.2918 207.884 17.2548 208.163 17.1592C208.441 17.0637 208.697 16.9117 208.914 16.7128C209.131 16.5138 209.305 16.2722 209.424 16.0031C209.544 15.7339 209.606 15.443 209.608 15.1485C209.61 14.8541 209.551 14.5624 209.435 14.2917C209.319 14.0211 209.149 13.7773 208.934 13.5756C208.719 13.3739 208.466 13.2187 208.188 13.1197C207.911 13.0206 207.616 12.9799 207.322 13Z" fill="white"/>
<path id="Path 88" d="M205.242 18.9529H209.342V31.3019H205.242V18.9529Z" fill="white"/>
<path id="Path 89" d="M219.423 18.6641C218.694 18.7276 217.986 18.9461 217.348 19.305C216.71 19.6639 216.156 20.1548 215.723 20.7451V18.9541H211.623V31.3031H215.723V24.4031C215.707 24.0643 215.753 23.7255 215.858 23.4031C216.012 22.9666 216.297 22.5883 216.674 22.3198C217.051 22.0513 217.501 21.9058 217.964 21.9031C219.449 21.9031 220.043 23.0351 220.043 24.6961V31.3031H224.143V24.2221C224.143 20.4291 222.118 18.6641 219.417 18.6641H219.423Z" fill="white"/>
</g>
</g>
<g id="Component 43 &#226;&#128;&#147; 2">
<path id="Ellipse 599" d="M150.5 45C162.926 45 173 34.9264 173 22.5C173 10.0736 162.926 0 150.5 0C138.074 0 128 10.0736 128 22.5C128 34.9264 138.074 45 150.5 45Z" fill="#565656"/>
<path id="icons8-instagram" d="M146.365 12.5801C144.831 12.5825 143.361 13.1931 142.276 14.2782C141.192 15.3632 140.582 16.834 140.58 18.3681V26.6351C140.582 28.1692 141.193 29.6399 142.278 30.7244C143.363 31.8089 144.834 32.4188 146.368 32.4201H154.635C156.169 32.4177 157.64 31.807 158.724 30.722C159.809 29.637 160.418 28.1661 160.42 26.6321V18.3651C160.418 16.831 159.807 15.3605 158.722 14.276C157.637 13.1916 156.166 12.5817 154.632 12.5801H146.365ZM156.287 15.8871C156.451 15.8871 156.611 15.9356 156.747 16.0265C156.883 16.1173 156.989 16.2465 157.051 16.3976C157.114 16.5487 157.13 16.715 157.098 16.8754C157.066 17.0358 156.988 17.1832 156.872 17.2989C156.756 17.4145 156.609 17.4933 156.448 17.5252C156.288 17.5571 156.122 17.5407 155.971 17.4781C155.819 17.4155 155.69 17.3095 155.599 17.1735C155.509 17.0375 155.46 16.8776 155.46 16.7141C155.46 16.4947 155.547 16.2844 155.702 16.1293C155.857 15.9742 156.068 15.8871 156.287 15.8871ZM150.5 17.5401C151.481 17.5401 152.44 17.831 153.256 18.376C154.071 18.921 154.707 19.6956 155.083 20.602C155.458 21.5083 155.556 22.5056 155.365 23.4677C155.173 24.4299 154.701 25.3137 154.007 26.0073C153.314 26.701 152.43 27.1734 151.468 27.3648C150.506 27.5562 149.508 27.4579 148.602 27.0825C147.696 26.7071 146.921 26.0714 146.376 25.2557C145.831 24.44 145.54 23.4811 145.54 22.5001C145.541 21.185 146.064 19.9242 146.994 18.9943C147.924 18.0644 149.185 17.5414 150.5 17.5401ZM150.5 19.1931C149.846 19.1931 149.207 19.387 148.663 19.7504C148.119 20.1138 147.695 20.6303 147.445 21.2345C147.195 21.8388 147.129 22.5037 147.257 23.1452C147.384 23.7867 147.699 24.376 148.162 24.8385C148.624 25.301 149.213 25.6159 149.855 25.7435C150.496 25.8711 151.161 25.8056 151.766 25.5553C152.37 25.305 152.886 24.8812 153.25 24.3373C153.613 23.7935 153.807 23.1541 153.807 22.5001C153.807 22.0658 153.722 21.6358 153.555 21.2345C153.389 20.8333 153.146 20.4688 152.838 20.1617C152.531 19.8546 152.167 19.611 151.766 19.4448C151.364 19.2786 150.934 19.1931 150.5 19.1931Z" fill="white"/>
</g>
</g>
</svg>
