<svg width="272" height="524" viewBox="0 0 272 524" fill="none" xmlns="http://www.w3.org/2000/svg">
<path d="M483.391 281.98C483.391 416.086 376.106 523.371 242 523.371C107.894 523.371 0.609375 416.086 0.609375 281.98C0.609375 224.506 19.7674 172.78 54.2519 130.632L98.3153 209.18C86.8205 230.254 81.073 255.159 81.073 281.98C81.073 368.191 148.126 437.16 232.421 442.908C236.253 442.908 238.169 442.908 242 442.908C245.832 442.908 247.748 442.908 251.579 442.908C335.875 439.076 402.928 368.191 402.928 281.98C402.928 255.159 397.18 232.17 385.685 209.18L429.749 130.632C462.317 172.78 483.391 224.506 483.391 281.98Z" fill="#F8F8F8"/>
<path d="M322.416 40.6029H282.184V0.371094H201.721V322.226H282.184V121.067H322.416V40.6029Z" fill="#F8F8F8"/>
</svg>
