<svg width="342" height="54" viewBox="0 0 342 54" fill="none" xmlns="http://www.w3.org/2000/svg">
<path d="M82.9866 41.2607H79.0757V39.8918H88.8529V41.2607H84.942V52.9933H83.1821V41.2607H82.9866Z" fill="black"/>
<path d="M91.1985 48.6911L89.8297 52.7975H88.0698L92.5673 39.696H94.5228L99.0203 52.7975H97.2604L95.8916 48.6911H91.1985ZM95.5005 47.5178L94.1317 43.8025C94.1317 43.8025 93.7406 42.2381 93.5451 41.4559C93.5451 41.4559 93.154 43.0203 92.9584 43.8025L91.5896 47.5178H95.5005Z" fill="black"/>
<path d="M103.13 39.8918V52.9933H101.37V39.8918H103.13Z" fill="black"/>
<path d="M106.45 39.8918H108.21V51.6245H113.88V52.9933H106.645V39.8918H106.45Z" fill="black"/>
<path d="M126.398 46.149C126.398 50.6465 123.661 52.9931 120.337 52.9931C117.012 52.9931 114.47 50.2554 114.47 46.3445C114.47 42.4336 117.012 39.5005 120.532 39.5005C124.052 39.5005 126.398 42.2381 126.398 46.149ZM116.23 46.3445C116.23 49.0822 117.794 51.6243 120.337 51.6243C122.879 51.6243 124.443 49.0822 124.443 46.149C124.443 43.6069 123.074 40.8693 120.337 40.8693C117.599 40.8693 116.23 43.4114 116.23 46.3445Z" fill="black"/>
<path d="M129.136 39.8916C129.136 39.8916 131.287 39.696 132.46 39.696C134.22 39.696 135.393 40.0871 136.175 40.6738C136.762 41.2604 137.153 42.2381 137.153 43.2159C137.153 44.9758 135.98 46.149 134.611 46.5401C135.589 46.9312 136.175 47.9089 136.566 49.2777C136.958 51.0376 137.349 52.4064 137.544 52.7975H135.784C135.784 52.7975 135.198 51.2332 135.002 49.6688C134.611 47.9089 133.829 47.1267 132.46 47.1267H130.896V52.7975H129.136V39.8916ZM130.7 45.9535H132.46C134.22 45.9535 135.393 44.9758 135.393 43.4114C135.393 41.6515 134.22 41.0649 132.46 40.8693C131.678 40.8693 131.091 40.8693 130.7 40.8693V45.5624V45.9535Z" fill="black"/>
<path d="M141.647 39.8918V52.9933H139.887V39.8918H141.647Z" fill="black"/>
<path d="M144.971 52.7975V39.696H146.731L150.838 46.3446C151.815 47.9089 152.598 49.2777 153.184 50.6466C153.184 48.8867 153.184 47.3223 153.184 45.1713V39.696H154.749V52.7975H152.989L148.882 46.149C147.905 44.7802 147.122 43.2159 146.34 41.847C146.34 43.607 146.34 45.1713 146.34 47.3223V52.9931H144.776L144.971 52.7975Z" fill="black"/>
<path d="M168.048 52.4065C168.048 52.4065 165.702 53.1886 163.942 53.1886C161.987 53.1886 160.422 52.602 159.053 51.4287C157.88 50.2555 157.293 48.4956 157.293 46.5401C157.293 42.6292 160.031 39.696 164.333 39.696C165.897 39.696 167.071 40.0871 167.657 40.2827L167.266 41.6515C167.266 41.6515 165.702 41.0649 164.333 41.0649C161.204 41.0649 159.053 43.0203 159.053 46.3446C159.053 49.6688 161.009 51.6243 164.138 51.6243C165.311 51.6243 166.093 51.6243 166.484 51.2332V47.3223H163.746V45.9535H168.048V52.2109V52.4065Z" fill="black"/>
<path d="M175.091 39.8916C176.069 39.8916 177.437 39.696 178.611 39.696C180.957 39.696 182.717 40.2827 183.89 41.2604C185.064 42.2381 185.65 43.8025 185.65 45.9535C185.65 48.1045 185.064 49.8644 183.695 51.0376C182.521 52.2109 180.371 52.9931 177.828 52.9931C176.655 52.9931 175.677 52.9931 174.7 52.9931V40.0871L175.091 39.8916ZM176.851 51.6243C176.851 51.6243 177.828 51.6243 178.611 51.6243C182.13 51.6243 184.281 49.6688 184.281 46.149C184.281 43.0203 182.521 41.0649 179.002 41.0649C178.22 41.0649 177.437 41.0649 177.046 41.0649V51.4287L176.851 51.6243Z" fill="black"/>
<path d="M190.142 39.8918V52.9933H188.382V39.8918H190.142Z" fill="black"/>
<path d="M203.443 52.4065C203.443 52.4065 201.096 53.1886 199.337 53.1886C197.381 53.1886 195.817 52.602 194.448 51.4287C193.275 50.2555 192.688 48.4956 192.688 46.5401C192.688 42.6292 195.426 39.696 199.728 39.696C201.292 39.696 202.465 40.0871 203.052 40.2827L202.661 41.6515C202.661 41.6515 201.096 41.0649 199.728 41.0649C196.599 41.0649 194.448 43.0203 194.448 46.3446C194.448 49.6688 196.403 51.6243 199.532 51.6243C200.705 51.6243 201.488 51.6243 201.879 51.2332V47.3223H199.141V45.9535H203.443V52.2109V52.4065Z" fill="black"/>
<path d="M208.131 39.8918V52.9933H206.371V39.8918H208.131Z" fill="black"/>
<path d="M214.005 41.2607H210.094V39.8918H219.871V41.2607H215.961V52.9933H214.201V41.2607H214.005Z" fill="black"/>
<path d="M222.217 48.6911L220.848 52.7975H219.088L223.586 39.696H225.541L230.039 52.7975H228.279L226.91 48.6911H222.217ZM226.519 47.5178L225.15 43.8025C225.15 43.8025 224.759 42.2381 224.564 41.4559C224.564 41.4559 224.173 43.0203 223.977 43.8025L222.608 47.5178H226.519Z" fill="black"/>
<path d="M232.379 39.8918H234.139V51.6245H239.81V52.9933H232.575V39.8918H232.379Z" fill="black"/>
<path d="M78.2939 9.18988H70.0811V4.10571H92.5687V9.18988H84.3558V32.8508H78.2939V9.18988Z" fill="black"/>
<path d="M119.947 21.9003C119.947 25.6156 118.969 28.3532 116.818 30.1132C114.667 31.8731 111.929 32.8508 108.214 32.8508C104.499 32.8508 101.566 31.8731 99.6102 30.1132C97.6547 28.3532 96.4814 25.6156 96.4814 21.9003V4.10571H102.543V21.9003C102.543 21.9003 102.543 23.4646 102.543 24.0513C102.543 24.8334 102.934 25.4201 103.326 26.0067C103.717 26.5933 104.303 26.9844 105.085 27.3755C105.868 27.7666 106.845 27.9622 108.019 27.9622C110.17 27.9622 111.734 27.5711 112.516 26.5933C113.298 25.6156 113.689 24.0513 113.689 22.0958V4.30126H119.751V22.0958L119.947 21.9003Z" fill="black"/>
<path d="M124.047 4.10571H138.908C140.082 4.10571 141.255 4.30125 142.233 4.69234C143.21 5.08343 143.992 5.67006 144.775 6.2567C145.557 7.03888 145.948 7.82105 146.339 8.60323C146.73 9.58095 146.926 10.5587 146.926 11.5364C146.926 13.1008 146.535 14.4696 145.948 15.6429C145.361 16.8161 144.188 17.7938 142.624 18.3805C142.624 18.3805 143.992 18.9671 144.384 19.3582C144.775 19.7493 145.361 20.3359 145.557 20.9225C145.948 21.5092 146.143 22.0958 146.143 22.878C146.143 23.4646 146.339 25.4201 146.535 26.2023C146.535 26.5934 146.535 27.18 146.535 27.7666C146.535 28.3533 146.535 28.9399 146.535 29.5265C146.535 30.1132 146.534 30.6998 146.926 31.2864C146.926 31.8731 147.317 32.2641 147.512 32.6552H141.45C141.45 32.6552 141.059 31.6775 141.059 31.2864C141.059 30.6998 141.059 30.3087 140.864 29.7221C140.864 29.1354 140.864 28.5488 140.864 27.9622C140.864 27.3755 140.864 26.7889 140.864 26.2023C140.668 24.8334 140.277 22.4869 139.495 21.9003C138.713 21.3136 137.735 20.9225 136.171 20.9225H130.109V32.8508H124.047V4.30126V4.10571ZM130.109 16.425H136.757C138.126 16.425 139.104 16.0339 139.886 15.4473C140.668 14.8607 140.864 13.883 140.864 12.5141C140.864 11.1453 140.473 10.1676 139.886 9.58096C139.104 8.99432 138.126 8.60323 136.757 8.60323H130.109V16.2295V16.425Z" fill="black"/>
<path d="M151.039 4.10571H157.101L168.638 23.6602V4.10571H174.309V32.6552H168.247L156.905 13.1008V32.6552H151.235V4.10571H151.039Z" fill="black"/>
<path d="M190.735 4.10546H202.468C204.228 4.10546 205.792 4.30101 207.356 4.88764C208.921 5.47427 210.29 6.25645 211.267 7.42972C212.441 8.60299 213.223 9.97181 213.809 11.7317C214.396 13.4916 214.787 16.8159 214.787 18.9669C214.787 20.9223 214.592 22.8777 214.005 24.4421C213.418 26.202 212.636 27.5708 211.658 28.7441C210.681 29.9174 209.312 30.8951 207.748 31.6773C206.183 32.4594 204.423 32.655 202.272 32.655H190.54V3.90991L190.735 4.10546ZM196.601 27.7664H201.881C201.881 27.7664 203.641 27.7664 204.423 27.3753C205.205 27.1797 205.988 26.5931 206.574 26.0065C207.161 25.4198 207.748 24.4421 208.139 23.4644C208.53 22.4867 208.725 21.1178 208.725 19.5535C208.725 18.1847 208.725 15.447 208.334 14.4693C208.139 13.2961 207.552 12.3183 206.965 11.5362C206.379 10.754 205.597 10.1673 204.619 9.77626C203.641 9.38517 202.272 9.18963 200.903 9.18963H196.601V27.7664Z" fill="black"/>
<path d="M219.088 4.10571H225.15V32.8508H219.088V4.10571Z" fill="black"/>
<path d="M250.175 28.9394C249.002 30.3082 247.829 31.2859 246.656 31.8726C245.287 32.4592 244.114 32.6547 242.745 32.6547C240.594 32.6547 238.638 32.2636 237.074 31.4815C235.314 30.6993 233.945 29.7216 232.772 28.3527C231.599 26.9839 230.817 25.6151 230.034 23.8552C229.448 22.0953 229.057 20.3354 229.057 18.38C229.057 16.4245 229.448 14.4691 230.034 12.7092C230.621 10.9493 231.599 9.38491 232.772 8.0161C233.945 6.64729 235.314 5.66957 237.074 4.88739C238.638 4.10521 240.594 3.71411 242.745 3.71411C244.114 3.71411 245.482 3.90967 246.851 4.30076C248.22 4.69185 249.393 5.27849 250.371 6.06066C251.349 6.84284 252.326 7.82056 252.913 9.18938C253.695 10.3626 254.086 11.7315 254.282 13.2958H248.611C248.22 11.7315 247.633 10.5582 246.46 9.776C245.482 8.99383 244.114 8.60273 242.745 8.60273C241.376 8.60273 240.203 8.79827 239.225 9.38491C238.247 9.97154 237.465 10.5582 236.878 11.5359C236.292 12.5136 235.901 13.4913 235.51 14.4691C235.314 15.6423 235.119 16.8156 235.119 17.9889C235.119 19.1621 235.119 20.3354 235.51 21.3131C235.705 22.4864 236.292 23.4641 236.878 24.2463C237.465 25.0285 238.247 25.8107 239.225 26.3973C240.203 26.9839 241.376 27.1795 242.745 27.1795C244.7 27.1795 246.265 26.5929 247.438 25.6151C248.611 24.6374 249.198 23.073 249.393 21.3131H243.331V16.8156H254.869V31.677H250.958L250.371 28.5483L250.175 28.9394Z" fill="black"/>
<path d="M301.607 4.10571H307.864L318.033 32.8508H311.775L309.624 26.7889H299.456L297.305 32.8508H291.243L301.607 4.10571ZM301.02 20.9225H308.06L304.54 10.9498L301.02 20.9225Z" fill="black"/>
<path d="M322.141 4.10571H328.203V27.7666H341.5V32.8508H322.141V4.10571Z" fill="black"/>
<path d="M49.7436 28.7437C49.7436 42.4318 38.7931 53.3823 25.1049 53.3823C11.4168 53.3823 0.466309 42.4318 0.466309 28.7437C0.466309 22.8773 2.42176 17.5976 5.94156 13.2957L10.4391 21.313C9.26582 23.464 8.67919 26.0061 8.67919 28.7437C8.67919 37.5432 15.5232 44.5828 24.1272 45.1694C24.5183 45.1694 24.7139 45.1694 25.1049 45.1694C25.496 45.1694 25.6916 45.1694 26.0827 45.1694C34.6866 44.7783 41.5307 37.5432 41.5307 28.7437C41.5307 26.0061 40.9441 23.6595 39.7708 21.313L44.2683 13.2957C47.5926 17.5976 49.7436 22.8773 49.7436 28.7437Z" fill="#F27822"/>
<path d="M33.3135 4.10644H29.207V0H20.9941V32.8515H29.207V12.3193H33.3135V4.10644Z" fill="#F27822"/>
<path d="M276.971 9.18988H268.758V4.10571H291.245V9.18988H283.033V32.8508H276.971V9.18988Z" fill="black"/>
<path d="M258.589 4.10571H264.651V32.8508H258.589V4.10571Z" fill="black"/>
</svg>
