<svg width="363" height="108" viewBox="0 0 363 108" fill="none" xmlns="http://www.w3.org/2000/svg">
<g filter="url(#filter0_d_2302_387)">
<rect x="4.5" y="4" width="354" height="100" rx="20" fill="white"/>
</g>
<path d="M133.6 32.56L131.2 34.52C130.58 33.78 129.68 33.36 128.52 33.36C126.16 33.36 124.42 35.28 124.42 37.92C124.42 40.56 126.16 42.48 128.42 42.48C129.68 42.48 130.7 41.92 131.34 40.96L133.94 42.9C132.76 44.58 130.76 45.36 128.82 45.36C124.4 45.36 121.18 42.46 121.18 37.92C121.18 33.38 124.4 30.48 128.82 30.48C130.4 30.48 132.4 31.02 133.6 32.56ZM134.891 40.14C134.891 37.04 137.291 35.04 140.291 35.04C143.291 35.04 145.691 37.04 145.691 40.14C145.691 43.24 143.291 45.24 140.291 45.24C137.291 45.24 134.891 43.24 134.891 40.14ZM137.891 40.14C137.891 41.6 138.791 42.6 140.291 42.6C141.791 42.6 142.691 41.6 142.691 40.14C142.691 38.68 141.791 37.68 140.291 37.68C138.791 37.68 137.891 38.68 137.891 40.14ZM154.798 36.32L152.958 38.14C152.518 37.6 151.938 37.32 151.218 37.32C150.718 37.32 150.118 37.54 150.118 38.12C150.118 39.56 155.178 38.34 155.178 42.04C155.178 44.52 152.778 45.24 150.698 45.24C149.338 45.24 147.838 44.9 146.878 43.92L148.698 41.9C149.258 42.58 149.918 42.96 150.818 42.96C151.498 42.96 152.178 42.78 152.178 42.26C152.178 40.7 147.118 42.02 147.118 38.32C147.118 36.04 149.158 35.04 151.198 35.04C152.478 35.04 153.898 35.36 154.798 36.32ZM163.336 35.28V37.68H160.696V40.92C160.696 41.96 160.816 42.72 162.116 42.72C162.436 42.72 163.076 42.68 163.336 42.44V44.94C162.676 45.18 161.936 45.24 161.236 45.24C159.236 45.24 157.696 44.42 157.696 42.3V37.68H155.776V35.28H157.696V32.4H160.696V35.28H163.336ZM170.399 37.92C170.399 33.38 173.619 30.48 178.039 30.48C182.459 30.48 185.679 33.38 185.679 37.92C185.679 42.46 182.459 45.36 178.039 45.36C173.619 45.36 170.399 42.46 170.399 37.92ZM173.639 37.92C173.639 40.56 175.379 42.48 178.039 42.48C180.699 42.48 182.439 40.56 182.439 37.92C182.439 35.28 180.699 33.36 178.039 33.36C175.379 33.36 173.639 35.28 173.639 37.92ZM188.459 45V37.68H186.479V35.28H188.459V33.56C188.459 31.44 188.999 29.64 192.259 29.64C192.859 29.64 193.459 29.68 194.019 29.82L193.879 32.36C193.539 32.24 193.259 32.16 192.899 32.16C191.939 32.16 191.459 32.46 191.459 33.74V35.28H193.679V37.68H191.459V45H188.459ZM200.36 37.92C200.36 33.38 203.58 30.48 208 30.48C212.42 30.48 215.64 33.38 215.64 37.92C215.64 42.46 212.42 45.36 208 45.36C203.58 45.36 200.36 42.46 200.36 37.92ZM203.6 37.92C203.6 40.56 205.34 42.48 208 42.48C210.66 42.48 212.4 40.56 212.4 37.92C212.4 35.28 210.66 33.36 208 33.36C205.34 33.36 203.6 35.28 203.6 37.92ZM217.66 49.56V35.28H220.42V36.56H220.46C220.92 35.86 222.08 35.04 223.44 35.04C226.32 35.04 228.22 37.12 228.22 40.06C228.22 42.76 226.54 45.24 223.78 45.24C222.54 45.24 221.38 44.9 220.7 43.96H220.66V49.56H217.66ZM220.42 40.14C220.42 41.6 221.32 42.6 222.82 42.6C224.32 42.6 225.22 41.6 225.22 40.14C225.22 38.68 224.32 37.68 222.82 37.68C221.32 37.68 220.42 38.68 220.42 40.14ZM237.078 41.78L239.178 43.32C238.218 44.54 236.638 45.24 235.078 45.24C232.078 45.24 229.678 43.24 229.678 40.14C229.678 37.04 232.078 35.04 235.078 35.04C237.878 35.04 239.638 37.04 239.638 40.14V41.08H232.678C232.918 42.22 233.778 42.96 234.938 42.96C235.918 42.96 236.578 42.46 237.078 41.78ZM232.678 39.04H236.638C236.658 38.04 235.878 37.2 234.798 37.2C233.478 37.2 232.758 38.1 232.678 39.04ZM241.462 45V35.28H244.462V36.84H244.502C245.142 35.66 245.982 35.04 247.302 35.04C247.642 35.04 248.022 35.06 248.302 35.14V37.88C247.882 37.76 247.462 37.68 247.022 37.68C244.742 37.68 244.462 39 244.462 40.94V45H241.462ZM255.707 45V43.78H255.667C255.007 44.82 253.807 45.24 252.587 45.24C250.767 45.24 249.127 44.2 249.127 42.24C249.127 38.88 253.207 38.82 255.707 38.82C255.707 37.76 254.827 37.08 253.787 37.08C252.807 37.08 251.987 37.52 251.347 38.24L249.747 36.6C250.847 35.56 252.447 35.04 254.027 35.04C257.527 35.04 258.467 36.82 258.467 40.06V45H255.707ZM255.707 40.74H254.967C254.047 40.74 252.007 40.82 252.007 42.14C252.007 42.86 252.767 43.2 253.427 43.2C254.607 43.2 255.707 42.58 255.707 41.38V40.74ZM266.969 35.28V37.68H264.329V40.92C264.329 41.96 264.449 42.72 265.749 42.72C266.069 42.72 266.709 42.68 266.969 42.44V44.94C266.309 45.18 265.569 45.24 264.869 45.24C262.869 45.24 261.329 44.42 261.329 42.3V37.68H259.409V35.28H261.329V32.4H264.329V35.28H266.969ZM268.534 45V35.28H271.534V45H268.534ZM268.294 32.22C268.294 31.26 269.074 30.48 270.034 30.48C270.994 30.48 271.774 31.26 271.774 32.22C271.774 33.18 270.994 33.96 270.034 33.96C269.074 33.96 268.294 33.18 268.294 32.22ZM273.329 40.14C273.329 37.04 275.729 35.04 278.729 35.04C281.729 35.04 284.129 37.04 284.129 40.14C284.129 43.24 281.729 45.24 278.729 45.24C275.729 45.24 273.329 43.24 273.329 40.14ZM276.329 40.14C276.329 41.6 277.229 42.6 278.729 42.6C280.229 42.6 281.129 41.6 281.129 40.14C281.129 38.68 280.229 37.68 278.729 37.68C277.229 37.68 276.329 38.68 276.329 40.14ZM285.896 45V35.28H288.776V36.6H288.816C289.216 35.84 290.196 35.04 291.656 35.04C294.696 35.04 295.256 37.04 295.256 39.64V45H292.256V40.24C292.256 39.12 292.236 37.68 290.696 37.68C289.136 37.68 288.896 38.9 288.896 40.16V45H285.896ZM304.72 36.32L302.88 38.14C302.44 37.6 301.86 37.32 301.14 37.32C300.64 37.32 300.04 37.54 300.04 38.12C300.04 39.56 305.1 38.34 305.1 42.04C305.1 44.52 302.7 45.24 300.62 45.24C299.26 45.24 297.76 44.9 296.8 43.92L298.62 41.9C299.18 42.58 299.84 42.96 300.74 42.96C301.42 42.96 302.1 42.78 302.1 42.26C302.1 40.7 297.04 42.02 297.04 38.32C297.04 36.04 299.08 35.04 301.12 35.04C302.4 35.04 303.82 35.36 304.72 36.32ZM121.94 77V62.84H127.42C130.32 62.84 132.76 63.84 132.76 67.14C132.76 69.12 131.7 70.66 129.7 71.02L133.3 77H129.56L126.6 71.34H125.06V77H121.94ZM125.06 65.48V68.7H126.9C128.04 68.7 129.52 68.66 129.52 67.12C129.52 65.7 128.24 65.48 127.1 65.48H125.06ZM141.629 73.78L143.729 75.32C142.769 76.54 141.189 77.24 139.629 77.24C136.629 77.24 134.229 75.24 134.229 72.14C134.229 69.04 136.629 67.04 139.629 67.04C142.429 67.04 144.189 69.04 144.189 72.14V73.08H137.229C137.469 74.22 138.329 74.96 139.489 74.96C140.469 74.96 141.129 74.46 141.629 73.78ZM137.229 71.04H141.189C141.209 70.04 140.429 69.2 139.349 69.2C138.029 69.2 137.309 70.1 137.229 71.04ZM156.213 61.88V77H153.453V75.72H153.413C152.953 76.42 151.793 77.24 150.433 77.24C147.553 77.24 145.653 75.16 145.653 72.22C145.653 69.52 147.333 67.04 150.093 67.04C151.333 67.04 152.493 67.38 153.173 68.32H153.213V61.88H156.213ZM153.453 72.14C153.453 70.68 152.553 69.68 151.053 69.68C149.553 69.68 148.653 70.68 148.653 72.14C148.653 73.6 149.553 74.6 151.053 74.6C152.553 74.6 153.453 73.6 153.453 72.14ZM167.971 67.28V77H165.091V75.68H165.051C164.651 76.44 163.671 77.24 162.211 77.24C159.171 77.24 158.611 75.24 158.611 72.64V67.28H161.611V72.04C161.611 73.16 161.631 74.6 163.171 74.6C164.731 74.6 164.971 73.38 164.971 72.12V67.28H167.971ZM178.655 68.34L176.675 70.42C176.375 70 175.815 69.68 175.195 69.68C173.695 69.68 172.795 70.68 172.795 72.14C172.795 73.6 173.695 74.6 175.195 74.6C175.855 74.6 176.335 74.26 176.675 73.86L178.655 75.94C177.715 76.9 176.335 77.24 175.195 77.24C172.195 77.24 169.795 75.24 169.795 72.14C169.795 69.04 172.195 67.04 175.195 67.04C176.335 67.04 177.715 67.38 178.655 68.34ZM186.364 67.28V69.68H183.724V72.92C183.724 73.96 183.844 74.72 185.144 74.72C185.464 74.72 186.104 74.68 186.364 74.44V76.94C185.704 77.18 184.964 77.24 184.264 77.24C182.264 77.24 180.724 76.42 180.724 74.3V69.68H178.804V67.28H180.724V64.4H183.724V67.28H186.364ZM187.928 77V67.28H190.928V77H187.928ZM187.688 64.22C187.688 63.26 188.468 62.48 189.428 62.48C190.388 62.48 191.168 63.26 191.168 64.22C191.168 65.18 190.388 65.96 189.428 65.96C188.468 65.96 187.688 65.18 187.688 64.22ZM192.723 72.14C192.723 69.04 195.123 67.04 198.123 67.04C201.123 67.04 203.523 69.04 203.523 72.14C203.523 75.24 201.123 77.24 198.123 77.24C195.123 77.24 192.723 75.24 192.723 72.14ZM195.723 72.14C195.723 73.6 196.623 74.6 198.123 74.6C199.623 74.6 200.523 73.6 200.523 72.14C200.523 70.68 199.623 69.68 198.123 69.68C196.623 69.68 195.723 70.68 195.723 72.14ZM205.29 77V67.28H208.17V68.6H208.21C208.61 67.84 209.59 67.04 211.05 67.04C214.09 67.04 214.65 69.04 214.65 71.64V77H211.65V72.24C211.65 71.12 211.63 69.68 210.09 69.68C208.53 69.68 208.29 70.9 208.29 72.16V77H205.29Z" fill="black"/>
<circle opacity="0.2" cx="66.2095" cy="55.7095" r="27.7095" fill="#F27922"/>
<path d="M97.2932 37.1588C98.1883 36.6112 98.4738 35.4385 97.8821 34.5719C94.7331 29.96 90.6013 26.092 85.7751 23.2514C80.949 20.4109 75.5617 18.6761 70.0009 18.1616C68.956 18.0649 68.0694 18.8838 68.0251 19.9322C67.9808 20.9806 68.7957 21.861 69.84 21.9635C74.7776 22.448 79.5588 24.002 83.8476 26.5263C88.1364 29.0506 91.8159 32.4764 94.6363 36.5581C95.2328 37.4214 96.3981 37.7065 97.2932 37.1588Z" fill="#FAC9A7"/>
<path d="M66.5 19.9C66.5 18.8507 65.6486 17.995 64.6006 18.0475C56.8615 18.4347 49.4083 21.1806 43.2545 25.9393C37.1007 30.6979 32.5679 37.2205 30.2461 44.6133C29.9317 45.6144 30.5456 46.6536 31.5612 46.9176C32.5768 47.1817 33.609 46.5702 33.9289 45.5709C36.0354 38.9919 40.0909 33.1892 45.5791 28.9453C51.0672 24.7015 57.7036 22.2362 64.6008 21.8527C65.6486 21.7945 66.5 20.9493 66.5 19.9Z" fill="#F27922"/>
<path d="M97.7732 37.9668C98.6822 37.4426 99.8487 37.7526 100.327 38.6867C103.255 44.4081 104.689 50.7892 104.48 57.2337C104.271 63.6783 102.425 69.9528 99.1318 75.4721C98.5941 76.3732 97.41 76.6069 96.5369 76.0248C95.6638 75.4427 95.4329 74.2656 95.9656 73.3615C98.869 68.4339 100.496 62.847 100.682 57.1104C100.868 51.3738 99.6077 45.6931 97.0302 40.5874C96.5573 39.6507 96.8642 38.491 97.7732 37.9668Z" fill="#C2611B"/>
<path d="M37.0451 76.8715C36.1889 77.4782 34.9987 77.2783 34.4355 76.3929C31.976 72.5257 30.2334 68.2407 29.2973 63.7435C28.3613 59.2464 28.2494 54.622 28.9617 50.0946C29.1247 49.058 30.1364 48.3998 31.1636 48.6145C32.1907 48.8292 32.8438 49.8354 32.6865 50.8729C32.0777 54.8876 32.1881 58.9839 33.0176 62.9692C33.8471 66.9545 35.3804 70.7546 37.5405 74.193C38.0987 75.0815 37.9013 76.2648 37.0451 76.8715Z" fill="#FFCE20"/>
<path d="M49.9034 61L54.7273 51.4545V51.375H49.108V49.3636H57.2727V51.4034L52.4432 61H49.9034ZM63.2713 61.2557C62.294 61.2519 61.4531 61.0114 60.7486 60.5341C60.0478 60.0568 59.508 59.3655 59.1293 58.4602C58.7543 57.5549 58.5687 56.4659 58.5724 55.1932C58.5724 53.9242 58.7599 52.8428 59.1349 51.9489C59.5137 51.0549 60.0535 50.375 60.7543 49.9091C61.4588 49.4394 62.2978 49.2045 63.2713 49.2045C64.2448 49.2045 65.0819 49.4394 65.7827 49.9091C66.4872 50.3788 67.0289 51.0606 67.4077 51.9545C67.7865 52.8447 67.974 53.9242 67.9702 55.1932C67.9702 56.4697 67.7808 57.5606 67.402 58.4659C67.027 59.3712 66.4891 60.0625 65.7884 60.5398C65.0876 61.017 64.2486 61.2557 63.2713 61.2557ZM63.2713 59.2159C63.938 59.2159 64.4702 58.8807 64.8679 58.2102C65.2656 57.5398 65.4626 56.5341 65.4588 55.1932C65.4588 54.3106 65.3679 53.5758 65.1861 52.9886C65.008 52.4015 64.7543 51.9602 64.4247 51.6648C64.099 51.3693 63.7145 51.2216 63.2713 51.2216C62.6084 51.2216 62.0781 51.553 61.6804 52.2159C61.2827 52.8788 61.0819 53.8712 61.0781 55.1932C61.0781 56.0871 61.1671 56.8333 61.3452 57.4318C61.527 58.0265 61.7827 58.4735 62.1122 58.7727C62.4418 59.0682 62.8281 59.2159 63.2713 59.2159ZM76.0938 58.8182V58.2045C76.0938 57.7386 76.1922 57.3106 76.3892 56.9205C76.59 56.5265 76.8797 56.2121 77.2585 55.9773C77.6411 55.7386 78.107 55.6193 78.6562 55.6193C79.2131 55.6193 79.6809 55.7367 80.0597 55.9716C80.4422 56.2064 80.7301 56.5208 80.9233 56.9148C81.1203 57.3049 81.2188 57.7348 81.2188 58.2045V58.8182C81.2188 59.2841 81.1203 59.714 80.9233 60.108C80.7263 60.4981 80.4366 60.8106 80.054 61.0455C79.6714 61.2841 79.2055 61.4034 78.6562 61.4034C78.0994 61.4034 77.6316 61.2841 77.2528 61.0455C76.8741 60.8106 76.5862 60.4981 76.3892 60.108C76.1922 59.714 76.0938 59.2841 76.0938 58.8182ZM77.7472 58.2045V58.8182C77.7472 59.0871 77.8116 59.3409 77.9403 59.5795C78.0729 59.8182 78.3116 59.9375 78.6562 59.9375C79.0009 59.9375 79.2358 59.8201 79.3608 59.5852C79.4896 59.3504 79.554 59.0947 79.554 58.8182V58.2045C79.554 57.928 79.4934 57.6705 79.3722 57.4318C79.2509 57.1932 79.0123 57.0739 78.6562 57.0739C78.3153 57.0739 78.0786 57.1932 77.946 57.4318C77.8134 57.6705 77.7472 57.928 77.7472 58.2045ZM70.1222 52.1591V51.5455C70.1222 51.0758 70.2225 50.6458 70.4233 50.2557C70.6241 49.8617 70.9138 49.5473 71.2926 49.3125C71.6752 49.0777 72.1373 48.9602 72.679 48.9602C73.2396 48.9602 73.7093 49.0777 74.0881 49.3125C74.4669 49.5473 74.7547 49.8617 74.9517 50.2557C75.1487 50.6458 75.2472 51.0758 75.2472 51.5455V52.1591C75.2472 52.6288 75.1468 53.0587 74.946 53.4489C74.7491 53.839 74.4593 54.1515 74.0767 54.3864C73.6979 54.6174 73.232 54.733 72.679 54.733C72.1259 54.733 71.6581 54.6155 71.2756 54.3807C70.8968 54.142 70.6089 53.8295 70.4119 53.4432C70.2188 53.053 70.1222 52.625 70.1222 52.1591ZM71.7869 51.5455V52.1591C71.7869 52.4356 71.8513 52.6913 71.9801 52.9261C72.1127 53.161 72.3456 53.2784 72.679 53.2784C73.0275 53.2784 73.2642 53.161 73.3892 52.9261C73.518 52.6913 73.5824 52.4356 73.5824 52.1591V51.5455C73.5824 51.2689 73.5218 51.0114 73.4006 50.7727C73.2794 50.5341 73.0388 50.4148 72.679 50.4148C72.3419 50.4148 72.1089 50.536 71.9801 50.7784C71.8513 51.0208 71.7869 51.2765 71.7869 51.5455ZM70.8722 61L78.8722 49.3636H80.3608L72.3608 61H70.8722Z" fill="#F27922"/>
<defs>
<filter id="filter0_d_2302_387" x="0.5" y="0" width="362" height="108" filterUnits="userSpaceOnUse" color-interpolation-filters="sRGB">
<feFlood flood-opacity="0" result="BackgroundImageFix"/>
<feColorMatrix in="SourceAlpha" type="matrix" values="0 0 0 0 0 0 0 0 0 0 0 0 0 0 0 0 0 0 127 0" result="hardAlpha"/>
<feOffset/>
<feGaussianBlur stdDeviation="2"/>
<feComposite in2="hardAlpha" operator="out"/>
<feColorMatrix type="matrix" values="0 0 0 0 0 0 0 0 0 0 0 0 0 0 0 0 0 0 0.25 0"/>
<feBlend mode="normal" in2="BackgroundImageFix" result="effect1_dropShadow_2302_387"/>
<feBlend mode="normal" in="SourceGraphic" in2="effect1_dropShadow_2302_387" result="shape"/>
</filter>
</defs>
</svg>
