<svg width="168" height="157" viewBox="0 0 168 157" fill="none" xmlns="http://www.w3.org/2000/svg">
<g filter="url(#filter0_d_2120_1529)">
<rect x="4.5" y="4" width="159" height="149" rx="20" fill="#F27922"/>
</g>
<path d="M41.46 78V71.64L52.46 61.76C53.58 60.72 54.98 59.52 54.98 57.8C54.98 55.88 53.34 54.72 51.5 54.72C49.3 54.72 47.98 56.28 47.82 58.32L41.82 57.88C42.18 52.04 46.26 49.2 51.82 49.2C56.98 49.2 60.98 52.04 60.98 57.72C60.98 61.36 59.42 63.44 57.26 65.32L48.66 72.72H61.22V78H41.46ZM66.0519 78V49.68H75.4919L82.0119 68.16H82.0919L88.6519 49.68H98.0519V78H91.8119V56.28H91.7319L84.2919 78H79.5319L72.3719 56.28H72.2919V78H66.0519ZM103.305 68.4V63.36H111.745V54.92H116.785V63.36H125.225V68.4H116.785V76.84H111.745V68.4H103.305Z" fill="white"/>
<path d="M39.62 114L45.86 99.84H47.44L53.46 114H51.5L50.06 110.52H42.98L41.52 114H39.62ZM49.42 108.96L46.62 102H46.58L43.64 108.96H49.42ZM55.342 114V99.84H59.542C62.142 99.84 64.502 100.76 64.502 103.72C64.502 106.82 61.862 107.64 59.862 107.64H57.022V114H55.342ZM57.022 101.4V106.08H59.862C61.542 106.08 62.702 105.32 62.702 103.74C62.702 102.16 61.542 101.4 59.862 101.4H57.022ZM67.1975 114V99.84H68.8775V114H67.1975ZM89.3392 101.7L87.8792 102.76C87.0392 101.62 85.6992 101.04 84.3392 101.04C81.1792 101.04 78.9392 103.82 78.9392 106.92C78.9392 110.2 81.1592 112.8 84.3392 112.8C86.0592 112.8 87.4392 112.1 88.4392 110.82L89.6992 111.88C88.4392 113.58 86.5992 114.36 84.3392 114.36C80.2792 114.36 77.1392 111.22 77.1392 106.92C77.1392 102.76 80.1392 99.48 84.3392 99.48C86.2592 99.48 88.1392 100.14 89.3392 101.7ZM90.4013 114L96.6413 99.84H98.2213L104.241 114H102.281L100.841 110.52H93.7613L92.3013 114H90.4013ZM100.201 108.96L97.4013 102H97.3613L94.4213 108.96H100.201ZM106.123 114V99.84H107.803V112.44H114.283V114H106.123ZM116.123 114V99.84H117.803V112.44H124.283V114H116.123ZM134.223 101.14L132.843 102.34C132.283 101.44 131.283 101.04 130.263 101.04C128.783 101.04 127.243 101.74 127.243 103.42C127.243 104.72 127.963 105.3 130.223 106.02C132.423 106.72 134.463 107.44 134.463 110.22C134.463 113.04 132.043 114.36 129.483 114.36C127.843 114.36 126.083 113.82 125.123 112.4L126.563 111.22C127.163 112.26 128.363 112.8 129.583 112.8C131.023 112.8 132.663 111.96 132.663 110.34C132.663 108.6 131.483 108.3 128.963 107.46C126.963 106.8 125.443 105.92 125.443 103.56C125.443 100.84 127.783 99.48 130.263 99.48C131.843 99.48 133.183 99.92 134.223 101.14Z" fill="white"/>
<defs>
<filter id="filter0_d_2120_1529" x="0.5" y="0" width="167" height="157" filterUnits="userSpaceOnUse" color-interpolation-filters="sRGB">
<feFlood flood-opacity="0" result="BackgroundImageFix"/>
<feColorMatrix in="SourceAlpha" type="matrix" values="0 0 0 0 0 0 0 0 0 0 0 0 0 0 0 0 0 0 127 0" result="hardAlpha"/>
<feOffset/>
<feGaussianBlur stdDeviation="2"/>
<feComposite in2="hardAlpha" operator="out"/>
<feColorMatrix type="matrix" values="0 0 0 0 0 0 0 0 0 0 0 0 0 0 0 0 0 0 0.25 0"/>
<feBlend mode="normal" in2="BackgroundImageFix" result="effect1_dropShadow_2120_1529"/>
<feBlend mode="normal" in="SourceGraphic" in2="effect1_dropShadow_2120_1529" result="shape"/>
</filter>
</defs>
</svg>
