<svg width="134" height="144" viewBox="0 0 134 144" fill="none" xmlns="http://www.w3.org/2000/svg">
<path d="M127.243 69.9971C125.452 55.1491 118.244 41.4843 107.002 31.621C95.7603 21.7577 81.2739 16.3896 66.3192 16.5453C51.3644 16.701 36.993 22.3695 25.9587 32.4647C14.9244 42.56 8.00322 56.3718 6.52146 71.2538L12.5645 71.8555C13.898 58.4617 20.1271 46.031 30.0579 36.9453C39.9888 27.8596 52.9231 22.7579 66.3824 22.6178C79.8417 22.4777 92.8794 27.309 102.997 36.186C113.115 45.063 119.602 57.3613 121.214 70.7244L127.243 69.9971Z" fill="#D8D8D8"/>
<mask id="path-2-inside-1_2557_4297" fill="white">
<path d="M0.837575 70.5813C2.50444 54.1075 10.2615 38.8495 22.5893 27.7957C34.9172 16.7419 50.9277 10.6887 67.485 10.8217L67.3413 28.7158C55.2427 28.6186 43.5436 33.0418 34.5356 41.1189C25.5275 49.196 19.8593 60.3452 18.6413 72.3827L0.837575 70.5813Z"/>
</mask>
<path d="M0.837575 70.5813C2.50444 54.1075 10.2615 38.8495 22.5893 27.7957C34.9172 16.7419 50.9277 10.6887 67.485 10.8217L67.3413 28.7158C55.2427 28.6186 43.5436 33.0418 34.5356 41.1189C25.5275 49.196 19.8593 60.3452 18.6413 72.3827L0.837575 70.5813Z" fill="white" stroke="white" stroke-width="1.76494" mask="url(#path-2-inside-1_2557_4297)"/>
<line x1="67.773" y1="1.55606e-08" x2="67.773" y2="45.3555" stroke="white" stroke-width="0.711971"/>
</svg>
