<svg width="77" height="76" viewBox="0 0 77 76" fill="none" xmlns="http://www.w3.org/2000/svg">
<circle opacity="0.2" cx="38.2095" cy="37.7095" r="27.7095" fill="#F27922"/>
<path d="M69.2932 19.1588C70.1883 18.6112 70.4738 17.4385 69.8821 16.5719C66.7331 11.96 62.6013 8.092 57.7751 5.25143C52.949 2.41086 47.5617 0.676084 42.0009 0.161607C40.956 0.0649359 40.0694 0.883824 40.0251 1.93223C39.9808 2.98063 40.7957 3.861 41.84 3.96348C46.7776 4.44799 51.5588 6.00199 55.8476 8.52629C60.1364 11.0506 63.8159 14.4764 66.6363 18.5581C67.2328 19.4214 68.3981 19.7065 69.2932 19.1588Z" fill="#FAC9A7"/>
<path d="M38.5 1.9C38.5 0.850658 37.6486 -0.00495505 36.6006 0.0474776C28.8615 0.434666 21.4083 3.18062 15.2545 7.93928C9.10069 12.6979 4.56793 19.2205 2.24611 26.6133C1.93169 27.6144 2.5456 28.6536 3.56118 28.9176C4.57677 29.1817 5.60896 28.5702 5.92893 27.5709C8.03536 20.9919 12.0909 15.1892 17.5791 10.9453C23.0672 6.70146 29.7036 4.23624 36.6008 3.85275C37.6486 3.7945 38.5 2.94934 38.5 1.9Z" fill="#F27922"/>
<path d="M69.7732 19.9668C70.6822 19.4426 71.8487 19.7526 72.3268 20.6867C75.2552 26.4081 76.6893 32.7892 76.48 39.2337C76.2706 45.6783 74.4254 51.9528 71.1318 57.4721C70.5941 58.3732 69.41 58.6069 68.5369 58.0248C67.6638 57.4427 67.4329 56.2656 67.9656 55.3615C70.869 50.4339 72.4956 44.847 72.682 39.1104C72.8683 33.3738 71.6077 27.6931 69.0302 22.5874C68.5573 21.6507 68.8642 20.491 69.7732 19.9668Z" fill="#C2611B"/>
<path d="M9.0451 58.8715C8.18891 59.4782 6.99867 59.2783 6.43553 58.3929C3.97598 54.5257 2.2334 50.2407 1.29734 45.7435C0.361282 41.2464 0.249423 36.622 0.961674 32.0946C1.12475 31.058 2.13641 30.3998 3.16356 30.6145C4.1907 30.8292 4.84381 31.8354 4.6865 32.8729C4.07775 36.8876 4.18809 40.9839 5.01761 44.9692C5.84713 48.9545 7.38038 52.7546 9.54045 56.193C10.0987 57.0815 9.90128 58.2648 9.0451 58.8715Z" fill="#FFCE20"/>
</svg>
