<svg width="39" height="35" viewBox="0 0 39 35" fill="none" xmlns="http://www.w3.org/2000/svg">
<path opacity="0.75" fill-rule="evenodd" clip-rule="evenodd" d="M38.3031 2.37986C38.3031 1.74868 38.0219 1.14335 37.5212 0.697044C37.0205 0.250734 36.3415 0 35.6334 0H8.93631C8.22826 0 7.54921 0.250734 7.04854 0.697044C6.54787 1.14335 6.2666 1.74868 6.2666 2.37986V30.9381C6.2666 31.5693 6.54787 32.1746 7.04854 32.621C7.54921 33.0673 8.22826 33.318 8.93631 33.318H35.6334C36.3415 33.318 37.0205 33.0673 37.5212 32.621C38.0219 32.1746 38.3031 31.5693 38.3031 30.9381V2.37986Z" fill="#FCE4D3"/>
<path fill-rule="evenodd" clip-rule="evenodd" d="M6.2666 8.04918H38.4633V2.68306C38.4633 1.97147 38.1806 1.28902 37.6775 0.78585C37.1743 0.282679 36.4918 0 35.7803 0H8.94966C8.23807 0 7.55562 0.282679 7.05245 0.78585C6.54928 1.28902 6.2666 1.97147 6.2666 2.68306V8.04918Z" fill="#F27922"/>
<path d="M9.89036 5.36617C10.6313 5.36617 11.2319 4.76554 11.2319 4.02464C11.2319 3.28373 10.6313 2.68311 9.89036 2.68311C9.14945 2.68311 8.54883 3.28373 8.54883 4.02464C8.54883 4.76554 9.14945 5.36617 9.89036 5.36617Z" fill="#DA4A4A"/>
<path d="M15.2566 5.36617C15.9975 5.36617 16.5981 4.76554 16.5981 4.02464C16.5981 3.28373 15.9975 2.68311 15.2566 2.68311C14.5157 2.68311 13.915 3.28373 13.915 4.02464C13.915 4.76554 14.5157 5.36617 15.2566 5.36617Z" fill="#FFCE4B"/>
<path d="M20.6228 5.36617C21.3637 5.36617 21.9643 4.76554 21.9643 4.02464C21.9643 3.28373 21.3637 2.68311 20.6228 2.68311C19.8819 2.68311 19.2812 3.28373 19.2812 4.02464C19.2812 4.76554 19.8819 5.36617 20.6228 5.36617Z" fill="#F27922"/>
<path fill-rule="evenodd" clip-rule="evenodd" d="M35.3797 4.02464C35.3797 3.66884 35.2384 3.32762 34.9868 3.07603C34.7352 2.82445 34.394 2.68311 34.0382 2.68311H25.989C25.6332 2.68311 25.292 2.82445 25.0404 3.07603C24.7888 3.32762 24.6475 3.66884 24.6475 4.02464C24.6475 4.38043 24.7888 4.72165 25.0404 4.97324C25.292 5.22483 25.6332 5.36617 25.989 5.36617H34.0382C34.394 5.36617 34.7352 5.22483 34.9868 4.97324C35.2384 4.72165 35.3797 4.38043 35.3797 4.02464Z" fill="#E0E0E0"/>
<path fill-rule="evenodd" clip-rule="evenodd" d="M3.18306 28.2922C3.18306 27.9364 3.04172 27.5952 2.79013 27.3436C2.53855 27.092 2.19733 26.9507 1.84153 26.9507C1.48573 26.9507 1.14451 27.092 0.892925 27.3436C0.641339 27.5952 0.5 27.9364 0.5 28.2922V33.6583C0.5 34.0141 0.641339 34.3554 0.892925 34.6069C1.14451 34.8585 1.48573 34.9999 1.84153 34.9999C2.19733 34.9999 2.53855 34.8585 2.79013 34.6069C3.04172 34.3554 3.18306 34.0141 3.18306 33.6583V28.2922Z" fill="#FFCE20"/>
<path fill-rule="evenodd" clip-rule="evenodd" d="M19.2797 20.2429C19.2797 19.8871 19.1384 19.5459 18.8868 19.2943C18.6352 19.0427 18.294 18.9014 17.9382 18.9014C17.5824 18.9014 17.2412 19.0427 16.9896 19.2943C16.738 19.5459 16.5967 19.8871 16.5967 20.2429V33.6582C16.5967 34.014 16.738 34.3552 16.9896 34.6068C17.2412 34.8584 17.5824 34.9997 17.9382 34.9997C18.294 34.9997 18.6352 34.8584 18.8868 34.6068C19.1384 34.3552 19.2797 34.014 19.2797 33.6582V20.2429Z" fill="#F27922"/>
<path fill-rule="evenodd" clip-rule="evenodd" d="M13.9165 25.6091C13.9165 25.2533 13.7751 24.9121 13.5235 24.6605C13.2719 24.4089 12.9307 24.2676 12.5749 24.2676C12.2191 24.2676 11.8779 24.4089 11.6263 24.6605C11.3747 24.9121 11.2334 25.2533 11.2334 25.6091V33.6583C11.2334 34.0141 11.3747 34.3553 11.6263 34.6069C11.8779 34.8585 12.2191 34.9998 12.5749 34.9998C12.9307 34.9998 13.2719 34.8585 13.5235 34.6069C13.7751 34.3553 13.9165 34.0141 13.9165 33.6583V25.6091Z" fill="#FFCE20"/>
<path fill-rule="evenodd" clip-rule="evenodd" d="M5.86778 17.5599V33.6583C5.86778 34.0141 6.00912 34.3553 6.2607 34.6069C6.51229 34.8585 6.85351 34.9998 7.20931 34.9998C7.5651 34.9998 7.90633 34.8585 8.15791 34.6069C8.4095 34.3553 8.55084 34.0141 8.55084 33.6583V17.5599H9.88901C10.1317 17.5599 10.3699 17.4941 10.5781 17.3694C10.7864 17.2447 10.9569 17.0658 11.0715 16.8519C11.1861 16.6379 11.2406 16.3969 11.229 16.1545C11.2174 15.912 11.1403 15.6773 11.0058 15.4752L8.32546 11.4506C8.20327 11.2665 8.03746 11.1155 7.84278 11.011C7.64811 10.9065 7.43062 10.8517 7.20967 10.8516C6.98871 10.8514 6.77116 10.9059 6.57636 11.0102C6.38156 11.1145 6.21557 11.2653 6.09316 11.4493L3.40741 15.4738C3.27217 15.6757 3.19436 15.9106 3.18231 16.1533C3.17027 16.396 3.22443 16.6374 3.33902 16.8517C3.4536 17.066 3.6243 17.2451 3.83283 17.3698C4.04137 17.4946 4.27989 17.5603 4.52289 17.5599H5.86778Z" fill="#F27922"/>
<g clip-path="url(#clip0_2532_4249)">
<path d="M23.9211 21.2126C23.9206 21.2987 23.936 21.3838 23.9664 21.4644C24.0022 21.5709 24.0626 21.6675 24.1426 21.7463C24.2126 21.8165 24.2958 21.8722 24.3874 21.9102C24.479 21.9482 24.5771 21.9678 24.6763 21.9678H25.1797C24.9794 21.9678 24.7874 22.0473 24.6457 22.189C24.5041 22.3306 24.4246 22.5227 24.4246 22.7229C24.4241 22.809 24.4394 22.8941 24.4699 22.9746C24.5056 23.0812 24.566 23.1778 24.6461 23.2566C24.7161 23.3268 24.7992 23.3825 24.8908 23.4205C24.9824 23.4585 25.0806 23.4781 25.1797 23.4781H25.6831C25.4829 23.4781 25.2908 23.5576 25.1492 23.6993C25.0076 23.8409 24.928 24.0329 24.928 24.2332C24.928 24.4335 25.0076 24.6256 25.1492 24.7672C25.2908 24.9088 25.4829 24.9884 25.6831 24.9884H30.214C30.5991 24.9944 30.9818 24.927 31.3417 24.7895C31.5884 24.6913 31.8049 24.5328 32.044 24.417C32.2979 24.2958 32.5757 24.233 32.857 24.2332H33.4863L32.9829 19.1989C32.4705 19.1983 31.969 19.0507 31.538 18.7735C30.6294 18.1946 29.2525 17.1424 29.5495 15.8033C29.6502 15.3527 29.6879 14.9122 29.2072 14.668C28.6735 14.3962 28.1625 14.741 27.9133 15.1765C27.0751 16.644 28.5401 18.9472 28.5401 18.9472H24.928C24.7277 18.9472 24.5356 19.0268 24.394 19.1684C24.2524 19.31 24.1728 19.5021 24.1728 19.7023C24.1723 19.7884 24.1877 19.8735 24.2182 19.9541C24.2539 20.0606 24.3143 20.1572 24.3944 20.236C24.4644 20.3062 24.5475 20.3619 24.6391 20.3999C24.7307 20.4379 24.8288 20.4575 24.928 20.4575H24.6763C24.476 20.4575 24.2839 20.5371 24.1423 20.6787C24.0007 20.8203 23.9211 21.0124 23.9211 21.2126Z" fill="#FDD7AD"/>
<path d="M24.4703 22.9747C24.506 23.0812 24.5664 23.1778 24.6465 23.2566C24.7165 23.3268 24.7997 23.3825 24.8912 23.4206C24.9828 23.4586 25.081 23.4781 25.1801 23.4781H26.4387C26.5055 23.4781 26.5695 23.4516 26.6167 23.4044C26.6639 23.3572 26.6904 23.2932 26.6904 23.2264C26.6904 23.1596 26.6639 23.0956 26.6167 23.0484C26.5695 23.0012 26.5055 22.9747 26.4387 22.9747H24.4703ZM23.9669 21.4644C24.0026 21.5709 24.063 21.6675 24.1431 21.7463C24.2131 21.8165 24.2962 21.8723 24.3878 21.9103C24.4794 21.9483 24.5776 21.9678 24.6767 21.9678H26.4387C26.5055 21.9678 26.5695 21.9413 26.6167 21.8941C26.6639 21.8469 26.6904 21.7829 26.6904 21.7161C26.6904 21.6494 26.6639 21.5853 26.6167 21.5381C26.5695 21.4909 26.5055 21.4644 26.4387 21.4644H23.9669ZM24.2186 19.9541C24.2543 20.0606 24.3147 20.1572 24.3948 20.236C24.4648 20.3062 24.548 20.362 24.6395 20.4C24.7311 20.438 24.8293 20.4575 24.9284 20.4575H26.4387C26.5055 20.4575 26.5695 20.431 26.6167 20.3838C26.6639 20.3366 26.6904 20.2726 26.6904 20.2058C26.6904 20.1391 26.6639 20.075 26.6167 20.0278C26.5695 19.9806 26.5055 19.9541 26.4387 19.9541H24.2186Z" fill="#F9C795"/>
<path d="M33.7382 18.4441H34.9968C35.4139 18.4441 35.752 18.7822 35.752 19.1992V24.2336C35.752 24.6506 35.4139 24.9887 34.9968 24.9887H33.7382C33.3212 24.9887 32.9831 24.6506 32.9831 24.2336V19.1992C32.9831 18.7822 33.3212 18.4441 33.7382 18.4441Z" fill="#F27922"/>
<path d="M24.1731 16.4302C24.2398 16.4302 24.3038 16.4037 24.3511 16.3565C24.3983 16.3093 24.4248 16.2452 24.4248 16.1785V15.6751C24.4248 15.6083 24.3983 15.5443 24.3511 15.4971C24.3038 15.4499 24.2398 15.4233 24.1731 15.4233C24.1063 15.4233 24.0423 15.4499 23.9951 15.4971C23.9479 15.5443 23.9213 15.6083 23.9213 15.6751V16.1785C23.9213 16.2452 23.9479 16.3093 23.9951 16.3565C24.0423 16.4037 24.1063 16.4302 24.1731 16.4302ZM24.1731 17.9405C24.2398 17.9405 24.3038 17.914 24.3511 17.8668C24.3983 17.8196 24.4248 17.7555 24.4248 17.6888V17.1853C24.4248 17.1186 24.3983 17.0546 24.3511 17.0074C24.3038 16.9602 24.2398 16.9336 24.1731 16.9336C24.1063 16.9336 24.0423 16.9602 23.9951 17.0074C23.9479 17.0546 23.9213 17.1186 23.9213 17.1853V17.6888C23.9213 17.7555 23.9479 17.8196 23.9951 17.8668C24.0423 17.914 24.1063 17.9405 24.1731 17.9405ZM23.1662 16.9336H23.6696C23.7364 16.9336 23.8004 16.9071 23.8476 16.8599C23.8948 16.8127 23.9213 16.7487 23.9213 16.6819C23.9213 16.6152 23.8948 16.5511 23.8476 16.5039C23.8004 16.4567 23.7364 16.4302 23.6696 16.4302H23.1662C23.0994 16.4302 23.0354 16.4567 22.9882 16.5039C22.941 16.5511 22.9145 16.6152 22.9145 16.6819C22.9145 16.7487 22.941 16.8127 22.9882 16.8599C23.0354 16.9071 23.0994 16.9336 23.1662 16.9336ZM24.6765 16.9336H25.1799C25.2467 16.9336 25.3107 16.9071 25.3579 16.8599C25.4051 16.8127 25.4316 16.7487 25.4316 16.6819C25.4316 16.6152 25.4051 16.5511 25.3579 16.5039C25.3107 16.4567 25.2467 16.4302 25.1799 16.4302H24.6765C24.6097 16.4302 24.5457 16.4567 24.4985 16.5039C24.4513 16.5511 24.4248 16.6152 24.4248 16.6819C24.4248 16.7487 24.4513 16.8127 24.4985 16.8599C24.5457 16.9071 24.6097 16.9336 24.6765 16.9336Z" fill="#DA4A4A"/>
<path d="M29.9627 12.9062C30.0294 12.9062 30.0934 12.8797 30.1406 12.8325L30.5182 12.4549C30.5422 12.4317 30.5614 12.4039 30.5746 12.3732C30.5878 12.3425 30.5947 12.3095 30.595 12.276C30.5953 12.2426 30.5889 12.2095 30.5763 12.1785C30.5636 12.1476 30.5449 12.1195 30.5213 12.0959C30.4977 12.0722 30.4696 12.0535 30.4386 12.0409C30.4077 12.0282 30.3746 12.0218 30.3411 12.0221C30.3077 12.0224 30.2747 12.0294 30.244 12.0426C30.2133 12.0558 30.1855 12.0749 30.1623 12.099L29.7847 12.4765C29.7495 12.5117 29.7255 12.5566 29.7158 12.6054C29.7061 12.6542 29.7111 12.7048 29.7301 12.7508C29.7492 12.7968 29.7815 12.8361 29.8228 12.8638C29.8642 12.8914 29.9129 12.9062 29.9627 12.9062ZM31.0954 11.7735C31.1621 11.7735 31.2261 11.747 31.2733 11.6997L31.6509 11.3222C31.6968 11.2747 31.7221 11.2111 31.7216 11.1451C31.721 11.0791 31.6945 11.016 31.6478 10.9693C31.6012 10.9226 31.538 10.8962 31.472 10.8956C31.406 10.895 31.3425 10.9204 31.295 10.9663L30.9174 11.3438C30.8822 11.379 30.8583 11.4239 30.8485 11.4727C30.8388 11.5215 30.8438 11.5721 30.8629 11.6181C30.8819 11.6641 30.9142 11.7034 30.9556 11.7311C30.9969 11.7587 31.0456 11.7735 31.0954 11.7735ZM31.4729 12.9062C31.5227 12.9062 31.5714 12.8914 31.6128 12.8638C31.6541 12.8361 31.6864 12.7968 31.7055 12.7508C31.7245 12.7048 31.7295 12.6542 31.7198 12.6054C31.7101 12.5566 31.6861 12.5117 31.6509 12.4765L31.2733 12.099C31.2501 12.0749 31.2223 12.0558 31.1916 12.0426C31.1609 12.0294 31.1279 12.0224 31.0945 12.0221C31.061 12.0218 31.0279 12.0282 30.997 12.0409C30.966 12.0535 30.9379 12.0722 30.9143 12.0959C30.8907 12.1195 30.872 12.1476 30.8593 12.1785C30.8467 12.2095 30.8403 12.2426 30.8406 12.276C30.8409 12.3095 30.8478 12.3425 30.861 12.3732C30.8742 12.4039 30.8934 12.4317 30.9174 12.4549L31.295 12.8325C31.3422 12.8797 31.4062 12.9062 31.4729 12.9062ZM30.3402 11.7735C30.39 11.7735 30.4387 11.7587 30.48 11.7311C30.5214 11.7034 30.5537 11.6641 30.5727 11.6181C30.5918 11.5721 30.5968 11.5215 30.5871 11.4727C30.5773 11.4239 30.5534 11.379 30.5182 11.3438L30.1406 10.9663C30.1174 10.9422 30.0896 10.923 30.0589 10.9098C30.0282 10.8966 29.9952 10.8897 29.9617 10.8894C29.9283 10.8891 29.8952 10.8955 29.8642 10.9081C29.8333 10.9208 29.8052 10.9395 29.7816 10.9631C29.7579 10.9868 29.7392 11.0149 29.7266 11.0458C29.7139 11.0767 29.7076 11.1099 29.7079 11.1433C29.7081 11.1767 29.7151 11.2098 29.7283 11.2405C29.7415 11.2712 29.7606 11.299 29.7847 11.3222L30.1623 11.6997C30.2095 11.747 30.2735 11.7735 30.3402 11.7735Z" fill="#955BA5"/>
<path d="M24.6344 13.0883C24.9473 13.2068 25.2313 13.3907 25.4675 13.6277C25.7036 13.8647 25.8865 14.1494 26.0038 14.4627C26.0131 14.4868 26.0296 14.5075 26.0511 14.5219C26.0726 14.5363 26.098 14.5437 26.1239 14.5432C26.1497 14.5426 26.1748 14.5341 26.1956 14.5188C26.2165 14.5035 26.2321 14.4822 26.2404 14.4577C26.3592 14.1458 26.5426 13.8625 26.7786 13.6265C27.0146 13.3905 27.2978 13.2071 27.6097 13.0883C27.6349 13.0804 27.6568 13.0646 27.6724 13.0433C27.688 13.0221 27.6964 12.9964 27.6964 12.97C27.6964 12.9437 27.688 12.918 27.6724 12.8967C27.6568 12.8754 27.6349 12.8597 27.6097 12.8517C27.2972 12.734 27.0134 12.551 26.7772 12.3149C26.5411 12.0787 26.3581 11.7949 26.2404 11.4824C26.2324 11.4573 26.2167 11.4353 26.1954 11.4197C26.1741 11.4041 26.1485 11.3958 26.1221 11.3958C26.0957 11.3958 26.07 11.4041 26.0488 11.4197C26.0275 11.4353 26.0117 11.4573 26.0038 11.4824C25.8861 11.7957 25.7025 12.0801 25.4654 12.3164C25.2283 12.5526 24.9432 12.7352 24.6294 12.8517C24.6053 12.861 24.5846 12.8776 24.5702 12.8991C24.5558 12.9205 24.5484 12.9459 24.549 12.9718C24.5495 12.9976 24.558 13.0227 24.5733 13.0436C24.5886 13.0644 24.6099 13.08 24.6344 13.0883ZM32.0915 15.3047C32.4388 15.4746 32.7195 15.7554 32.8895 16.1026C32.8988 16.1249 32.9146 16.144 32.9347 16.1574C32.9549 16.1708 32.9785 16.1779 33.0027 16.1779C33.0269 16.1779 33.0506 16.1708 33.0707 16.1574C33.0909 16.144 33.1066 16.1249 33.116 16.1026C33.2854 15.755 33.5663 15.4741 33.9139 15.3047C33.9363 15.2953 33.9553 15.2796 33.9687 15.2594C33.9821 15.2393 33.9893 15.2156 33.9893 15.1914C33.9893 15.1672 33.9821 15.1436 33.9687 15.1234C33.9553 15.1033 33.9363 15.0875 33.9139 15.0781C33.5663 14.9088 33.2854 14.6278 33.116 14.2802C33.1066 14.2579 33.0909 14.2388 33.0707 14.2254C33.0506 14.212 33.0269 14.2049 33.0027 14.2049C32.9785 14.2049 32.9549 14.212 32.9347 14.2254C32.9146 14.2388 32.8988 14.2579 32.8895 14.2802C32.7195 14.6275 32.4388 14.9082 32.0915 15.0781C32.0692 15.0875 32.0502 15.1033 32.0368 15.1234C32.0234 15.1436 32.0162 15.1672 32.0162 15.1914C32.0162 15.2156 32.0234 15.2393 32.0368 15.2594C32.0502 15.2796 32.0692 15.2953 32.0915 15.3047Z" fill="#FFCE20"/>
</g>
<defs>
<clipPath id="clip0_2532_4249">
<rect width="14.0961" height="14.0961" fill="white" transform="matrix(-1 0 0 1 36.3809 10.8923)"/>
</clipPath>
</defs>
</svg>
